<svg id="Layer_1" data-name="Layer 1" xmlns="http://www.w3.org/2000/svg" viewBox="0 0 32.46 31.78"><defs><style>.cls-1{fill:#ce9f9f;}</style></defs><title>github_pink</title><path class="cls-1" d="M16.29,0a16.29,16.29,0,0,0-5.15,31.75c.81.15,1.11-.35,1.11-.79V28.19C7.7,29.18,6.74,26,6.74,26a4.31,4.31,0,0,0-1.81-2.38c-1.48-1,.11-1,.11-1a3.4,3.4,0,0,1,2.5,1.68,3.46,3.46,0,0,0,4.71,1.36h0a3.48,3.48,0,0,1,1-2.18c-3.58-.39-7.38-1.79-7.38-8a6.32,6.32,0,0,1,1.68-4.37,5.84,5.84,0,0,1,.16-4.31s1.37-.44,4.48,1.67a15.48,15.48,0,0,1,8.16,0c3.11-2.11,4.48-1.67,4.48-1.67A5.89,5.89,0,0,1,25,11.07a6.26,6.26,0,0,1,1.67,4.37c0,6.26-3.81,7.63-7.44,8a3.89,3.89,0,0,1,1.11,3v4.47c0,.54.29.94,1.12.78A16.29,16.29,0,0,0,16.29,0Z" transform="translate(0.02 0)"/></svg>