<?xml version="1.0" standalone="no"?>
<!DOCTYPE svg PUBLIC "-//W3C//DTD SVG 20010904//EN"
 "http://www.w3.org/TR/2001/REC-SVG-20010904/DTD/svg10.dtd">
<svg version="1.0" xmlns="http://www.w3.org/2000/svg"
 width="170.000000pt" height="170.000000pt" viewBox="0 0 170.000000 170.000000"
 preserveAspectRatio="xMidYMid meet">
<metadata>
Created by potrace 1.11, written by Peter Selinger 2001-2013
</metadata>
<g transform="translate(0.000000,170.000000) scale(0.100000,-0.100000)"
fill="#000000" stroke="none">
<path d="M1433 1468 c-22 -24 -49 -59 -58 -78 -10 -19 -25 -43 -33 -53 -9 -10
-17 -24 -18 -31 -1 -7 -13 -30 -26 -52 -14 -21 -28 -49 -32 -61 -4 -13 -11
-23 -15 -23 -4 0 -18 -33 -30 -72 -13 -40 -27 -81 -32 -90 -5 -10 -9 -27 -9
-38 0 -11 -8 -24 -17 -27 -22 -9 -89 -73 -77 -73 5 -1 -3 -8 -18 -16 -25 -13
-33 -25 -25 -39 1 -2 -9 -12 -22 -22 -47 -33 -237 -30 -331 5 -8 3 -17 6 -20
7 -41 14 -100 47 -100 56 0 7 -3 9 -7 6 -3 -4 -11 -3 -17 2 -30 24 -198 113
-203 107 -9 -8 17 -46 40 -57 12 -7 28 -20 35 -31 7 -10 17 -18 22 -18 12 0
120 -111 120 -123 0 -5 -11 -7 -25 -5 -14 3 -25 2 -25 -1 0 -3 -37 -5 -82 -4
-321 9 -329 9 -315 -5 8 -7 20 -15 28 -16 8 -1 34 -8 58 -15 23 -7 45 -10 48
-7 3 3 14 1 23 -4 10 -5 40 -12 66 -15 27 -3 65 -7 84 -10 19 -2 58 -7 85 -10
51 -6 81 -11 125 -21 14 -3 34 -6 45 -8 34 -3 134 -56 145 -76 7 -14 6 -23 -7
-35 -30 -31 -191 -92 -293 -112 -22 -4 -31 -7 -60 -18 -3 -1 -20 -6 -38 -10
-18 -4 -35 -12 -38 -16 -3 -5 -16 -9 -30 -9 -13 0 -24 -4 -24 -8 0 -4 -17 -14
-37 -21 -62 -22 -80 -44 -44 -54 11 -2 24 0 30 6 6 6 11 8 11 4 0 -4 16 -1 35
7 20 9 38 15 40 16 3 0 6 1 8 1 1 1 16 3 32 4 17 2 30 4 30 5 0 2 115 4 255 5
232 1 258 3 285 20 17 11 32 22 35 25 7 7 60 42 86 56 11 6 40 14 64 18 44 7
160 64 160 78 0 5 9 8 20 8 27 0 72 22 91 45 11 13 28 19 53 18 32 -1 35 1 25
18 -5 11 -19 25 -29 32 -11 6 -20 19 -20 29 0 9 -14 28 -31 42 -24 20 -41 26
-81 26 -44 0 -49 2 -43 18 4 9 8 25 10 35 2 9 7 22 10 27 4 6 8 24 10 40 2 16
9 55 15 87 5 33 13 86 16 119 3 32 10 77 15 99 13 52 14 55 27 85 8 20 29 80
46 135 2 6 6 17 9 25 16 44 27 110 17 110 -3 0 -24 -19 -47 -42z m-545 -828
c21 0 23 -3 17 -32 -10 -43 -9 -43 -48 -24 -39 18 -56 62 -28 69 9 2 20 0 26
-5 5 -4 20 -8 33 -8z m396 -29 c3 -4 26 -7 50 -5 58 4 53 -12 -12 -46 -26 -14
-49 -27 -52 -30 -7 -7 -71 -30 -98 -36 -54 -11 -85 26 -39 46 12 6 47 26 77
45 59 37 66 40 74 26z"/>
</g>
</svg>
