<svg id="Layer_1" data-name="Layer 1" xmlns="http://www.w3.org/2000/svg" viewBox="0 0 508 504"><defs><style>.cls-1{fill:#ce9f9f;}</style></defs><title>linkedin_pink</title><path class="cls-1" d="M257.6,5H479.5C499,5,511,16.9,511,36.4V477.8c0,19.2-12,31.2-31.1,31.2H34c-18.8,0-31-12.1-31-30.9V35.8C3,17.3,15.2,5,33.6,5ZM257,19H35c-12.3,0-18,5.7-18,18V477c0,12.3,5.7,18,18,18H479c12.3,0,18-5.7,18-18V37c0-12.3-5.7-18-18-18Z" transform="translate(-3 -5)"/><path class="cls-1" d="M200.2,430.8V201.3h70.1V230c4.1-4.9,7.4-9,10.9-13,13-14.9,29.6-22.7,49-24.5,19.7-1.8,38.8.7,56.3,10.9,14.1,8.1,24.3,19.7,31.4,34.2,8.6,17.5,11.8,36.3,11.9,55.6.2,44.2.1,88.3.1,132.5,0,1.5-.1,3-.2,4.9-1.8.1-3.4.2-5,.2-20.2,0-40.3-.1-60.5.1-4.6.1-5.6-1.5-5.6-5.8.1-40.5.2-81,0-121.5a97.71,97.71,0,0,0-2.7-22.2c-3-12.5-11.4-20.9-23.4-25.2-12.3-4.4-25-5.3-36.9.6-17.5,8.8-24.9,23.7-24.8,43,.2,40.8.1,81.7,0,122.5,0,10.2.1,8.2-8.3,8.3-18.8.1-37.7,0-56.5,0A50.64,50.64,0,0,1,200.2,430.8Z" transform="translate(-3 -5)"/><path class="cls-1" d="M155.5,430.8H142.2c-17.2,0-34.3-.1-51.5.1-4.2.1-5.9-.9-5.9-5.5q.15-108.9.1-217.8c0-3.1.2-5.4,4.4-5.4q31.2.15,62.5.1a29.31,29.31,0,0,1,3.7.5Z" transform="translate(-3 -5)"/><path class="cls-1" d="M118.6,157c-21.1,0-35.9-15-35.8-36.3.1-20.8,15.3-35.7,36.6-35.6,21.8.1,36,14.8,36.2,36.1C155.8,141.7,141.2,157.2,118.6,157Z" transform="translate(-3 -5)"/></svg>