<svg id="Layer_1" data-name="Layer 1" xmlns="http://www.w3.org/2000/svg" viewBox="0 0 511.73 504.6"><defs><style>.cls-1{fill:#ce9f9f;}</style></defs><title>phone_pink</title><path class="cls-1" d="M136.3,473.3c-20.1,0-36-5.3-45.9-15.2-2.7-2.7-5.7-5.5-8.8-8.5-17.9-17-40.2-38.2-39-65.7.8-18.9,12.3-37.1,35.3-55.6,27.2-21.8,48.5-32,67-32,23,0,37.7,14.9,53.3,30.7,1.6,1.6,3.2,3.3,4.9,4.9,1,1,2.6,2.1,6,2.1,9.9,0,35.4-8.9,95.1-68.6,25.8-25.8,44.7-47.8,56.1-65.4s15.3-30.9,10.4-35.8l-4.9-4.9c-14.2-14-27.6-27.1-30.3-46.4C332.6,92.5,342.4,69.7,367,39c19.1-23.8,38-35.4,57.6-35.4,26.5,0,47.1,21.7,63.6,39.1q4.35,4.65,8.4,8.7c10.2,10.2,15.4,26.5,15.2,47.2-.2,19.5-5.3,43-14.7,68-21.3,56.6-63.4,118.1-118.5,173.2-42.5,42.5-88.8,77.4-134.1,100.9C204.6,461.8,166.1,473.3,136.3,473.3Zm8.6-155.8c-13.3,0-30.9,8.9-53.8,27.3-17.7,14.2-27,27.7-27.5,40.1-.7,17.9,16.9,34.7,32.5,49.5,3.2,3,6.2,5.9,9.1,8.8,5.8,5.8,16.8,9,31,9,26.5,0,61.6-10.6,98.7-30,43.3-22.6,87.9-56.1,128.9-97.1,53-53,93.4-111.9,113.7-165.7,19.6-52.1,14.6-82.6,4.3-92.8-2.9-2.9-5.8-5.9-8.8-9.1C458.5,42.3,442.1,25,424.6,25c-12.7,0-26.5,9.3-41.2,27.5-20.2,25.1-29,44-27.1,57.8,1.7,12.2,11.6,21.9,24.2,34.3,1.7,1.6,3.3,3.3,5,5,13.2,13.2,10.7,34.1-7.6,62.2-12.2,18.8-32,41.9-58.9,68.8-51,51-86,74.8-110,74.8a29.21,29.21,0,0,1-21-8.3l-5-5C167.8,326.3,158.4,317.5,144.9,317.5Z" transform="translate(-0.08 -3.6)"/><path class="cls-1" d="M10.6,508.2a12.57,12.57,0,0,1-3.3-.5A10.57,10.57,0,0,1,.6,494.4c16.6-49.9,67.5-74.7,69.6-75.8a10.56,10.56,0,0,1,14.1,5,10.66,10.66,0,0,1-4.9,14.1h0c-.4.2-45,22.1-58.7,63.4A10.87,10.87,0,0,1,10.6,508.2Z" transform="translate(-0.08 -3.6)"/></svg>