<svg id="Layer_2" data-name="Layer 2" xmlns="http://www.w3.org/2000/svg" xmlns:xlink="http://www.w3.org/1999/xlink" viewBox="0 0 195.23 191.31"><defs><style>.cls-1,.cls-2,.cls-20,.cls-26,.cls-32{fill:none;}.cls-2,.cls-4,.cls-6,.cls-8{opacity:0.56;}.cls-3,.cls-4{fill:#eeecc8;}.cls-5,.cls-6{fill:#5ebbc2;}.cls-7{fill:#fcfae3;}.cls-9{fill:#eae6d5;}.cls-10{fill:#8bb1a9;}.cls-11{clip-path:url(#clip-path);}.cls-12{fill:#465578;}.cls-13{fill:#de4a63;}.cls-14{fill:#691d4a;}.cls-15{fill:#e5745a;}.cls-16{fill:#dd8c68;}.cls-17{fill:#e5a980;}.cls-18{fill:#ad471f;}.cls-19{fill:#29437c;}.cls-20{stroke:#000;}.cls-20,.cls-26,.cls-32{stroke-miterlimit:10;}.cls-21{fill:#4e4f4e;}.cls-22{fill:#99544d;}.cls-23{fill:#4267ba;}.cls-24{fill:#56361d;}.cls-25{fill:#efb297;}.cls-26{stroke:#e5745a;stroke-linecap:round;stroke-width:4px;}.cls-27{fill:#ad5634;}.cls-28{clip-path:url(#clip-path-2);}.cls-29{fill:#c96353;}.cls-30{clip-path:url(#clip-path-3);}.cls-31{fill:#f4f3dc;}.cls-32{stroke:#fff;stroke-width:13px;}.cls-33{fill:#b76349;}.cls-34{fill:#630;}.cls-35{fill:#f9f9f9;}.cls-36{fill:#e2e2e2;}</style><clipPath id="clip-path" transform="translate(0.41 0.05)"><rect class="cls-1" x="4.63" y="6.53" width="152.25" height="177.95" rx="12" ry="12"/></clipPath><clipPath id="clip-path-2" transform="translate(0.41 0.05)"><path class="cls-1" d="M78.31,65.56c3,.08,4.25,5.16,4.45,7.47s.23,5.73-1.59,8.4-6.63,5.42-9.59,4.24-5.76-5.4-1.54-8.42S75,71.9,75.85,69C77,65.11,78.31,65.56,78.31,65.56Z"/></clipPath><clipPath id="clip-path-3" transform="translate(0.41 0.05)"><path class="cls-1" d="M67.54,90.45c2.36,1.9,21.39.31,21.49.27s-1.49,5.82-11.37,6.46c-3.8.25-8-1.67-9.78-4.43C67.44,92,67,90,67.54,90.45Z"/></clipPath></defs><title>base_ball</title><polyline class="cls-2" points="157.29 73.26 119.36 53.63 81.42 73.26 43.48 53.63 5.54 73.26 5.54 73.31 43.48 53.68 81.42 73.31 119.36 53.68 157.29 73.31"/><polyline class="cls-2" points="157.29 62.14 119.36 42.51 81.42 62.14 43.48 42.51 5.54 62.14 5.54 62.19 43.48 42.55 81.42 62.19 119.36 42.55 157.29 62.19"/><polyline class="cls-2" points="157.29 51.02 119.36 31.39 81.42 51.02 43.48 31.39 5.54 51.02 5.54 51.07 43.48 31.43 81.42 51.07 119.36 31.43 157.29 51.07"/><polyline class="cls-2" points="157.29 39.9 119.36 20.27 81.42 39.9 43.48 20.27 5.54 39.9 5.54 39.94 43.48 20.31 81.42 39.94 119.36 20.31 157.29 39.94"/><polyline class="cls-2" points="157.29 162.24 119.36 142.61 81.42 162.24 43.48 142.61 5.54 162.24 5.54 162.28 43.48 142.65 81.42 162.28 119.36 142.65 157.29 162.28"/><polyline class="cls-2" points="157.29 28.78 119.36 9.14 81.42 28.78 43.48 9.14 5.54 28.78 5.54 28.82 43.48 9.19 81.42 28.82 119.36 9.19 157.29 28.82"/><polyline class="cls-2" points="157.29 128.87 119.36 109.24 81.42 128.87 43.48 109.24 5.54 128.87 5.54 128.92 43.48 109.29 81.42 128.92 119.36 109.29 157.29 128.92"/><polyline class="cls-2" points="157.29 84.39 119.36 64.75 81.42 84.39 43.48 64.75 5.54 84.39 5.54 84.43 43.48 64.8 81.42 84.43 119.36 64.8 157.29 84.43"/><polyline class="cls-2" points="157.29 106.63 119.36 87 81.42 106.63 43.48 87 5.54 106.63 5.54 106.67 43.48 87.04 81.42 106.67 119.36 87.04 157.29 106.67"/><polyline class="cls-2" points="157.29 95.51 119.36 75.88 81.42 95.51 43.48 75.88 5.54 95.51 5.54 95.55 43.48 75.92 81.42 95.55 119.36 75.92 157.29 95.55"/><polygon class="cls-2" points="26.95 6.58 5.54 17.66 5.54 17.7 27.04 6.58 26.95 6.58"/><polyline class="cls-2" points="157.29 140 119.36 120.36 81.42 140 43.48 120.36 5.54 140 5.54 140.04 43.48 120.41 81.42 140.04 119.36 120.41 157.29 140.04"/><polygon class="cls-2" points="26.95 184.53 27.04 184.53 43.48 176.02 59.93 184.53 60.02 184.53 43.48 175.97 26.95 184.53"/><polygon class="cls-1" points="102.82 184.53 102.91 184.53 119.36 176.02 135.8 184.53 135.89 184.53 119.36 175.97 102.82 184.53"/><polyline class="cls-1" points="157.29 17.66 135.89 6.58 135.8 6.58 157.29 17.7"/><polygon class="cls-1" points="102.91 6.58 102.82 6.58 81.42 17.66 60.02 6.58 59.93 6.58 81.42 17.7 102.91 6.58"/><polyline class="cls-2" points="157.29 117.75 119.36 98.12 81.42 117.75 43.48 98.12 5.54 117.75 5.54 117.8 43.48 98.16 81.42 117.8 119.36 98.16 157.29 117.8"/><polyline class="cls-2" points="157.29 151.12 119.36 131.48 81.42 151.12 43.48 131.48 5.54 151.12 5.54 151.16 43.48 131.53 81.42 151.16 119.36 131.53 157.29 151.16"/><polyline class="cls-2" points="157.29 184.48 119.36 164.85 81.42 184.48 43.48 164.85 5.54 184.48 5.54 184.53 43.48 164.9 81.42 184.53 119.36 164.9 157.29 184.53"/><polyline class="cls-2" points="157.29 173.36 119.36 153.73 81.42 173.36 43.48 153.73 5.54 173.36 5.54 173.41 43.48 153.77 81.42 173.41 119.36 153.77 157.29 173.41"/><polygon class="cls-3" points="102.82 6.58 60.02 6.58 81.42 17.66 102.82 6.58"/><polygon class="cls-4" points="5.54 6.58 5.54 17.66 26.95 6.58 5.54 6.58"/><polygon class="cls-4" points="5.54 184.53 26.95 184.53 43.48 175.97 60.02 184.53 81.42 184.53 43.48 164.9 5.54 184.53"/><polygon class="cls-3" points="81.42 184.53 102.82 184.53 119.36 175.97 135.89 184.53 157.29 184.53 119.36 164.9 81.42 184.53"/><polygon class="cls-5" points="102.91 184.53 135.8 184.53 119.36 176.02 102.91 184.53"/><polygon class="cls-6" points="27.04 184.53 59.93 184.53 43.48 176.02 27.04 184.53"/><rect class="cls-2" x="5.54" y="6.58" width="151.75" height="177.95"/><rect class="cls-7" x="62.25" y="91.26" width="2.6" height="6.8" rx="1.3" ry="1.3"/><g class="cls-8"><polygon class="cls-1" points="106.8 184.53 106.83 184.53 106.81 184.52 106.8 184.53"/><polygon class="cls-1" points="56.31 184.53 56.33 184.53 56.32 184.52 56.31 184.53"/><polygon class="cls-1" points="157.29 184.53 157.29 184.53 157.29 184.53 157.29 184.53"/><polygon class="cls-1" points="56.32 66.17 81.57 91.27 106.81 66.17 132.06 91.27 157.29 66.19 157.29 66.17 132.06 91.26 106.81 66.16 81.57 91.26 56.32 66.16 31.07 91.26 5.83 66.16 5.83 66.17 31.07 91.27 56.32 66.17"/><polygon class="cls-1" points="56.32 36.58 81.57 61.68 106.81 36.58 132.06 61.68 157.29 36.6 157.29 36.58 132.06 61.67 106.81 36.57 81.57 61.67 56.32 36.57 31.07 61.67 5.83 36.57 5.83 36.58 31.07 61.68 56.32 36.58"/><polygon class="cls-1" points="56.32 95.76 81.57 120.86 106.81 95.76 132.06 120.86 157.29 95.77 157.29 95.76 132.06 120.84 106.81 95.75 81.57 120.84 56.32 95.75 31.07 120.84 5.83 95.75 5.83 95.76 31.07 120.86 56.32 95.76"/><polygon class="cls-1" points="56.32 7 81.57 32.09 106.81 7 132.06 32.09 157.29 7.01 157.29 7 132.06 32.08 106.81 6.98 81.57 32.08 56.32 6.98 31.07 32.08 5.83 6.98 5.83 7 31.07 32.09 56.32 7"/><polygon class="cls-1" points="56.32 125.35 81.57 150.45 106.81 125.35 132.06 150.45 157.29 125.36 157.29 125.35 132.06 150.43 106.81 125.34 81.57 150.43 56.32 125.34 31.07 150.43 5.83 125.34 5.83 125.35 31.07 150.45 56.32 125.35"/><polygon class="cls-1" points="5.83 184.52 5.83 184.53 5.84 184.53 5.83 184.52"/><polygon class="cls-1" points="56.32 154.94 81.57 180.03 106.81 154.94 132.06 180.03 157.29 154.95 157.29 154.94 132.06 180.02 106.81 154.93 81.57 180.02 56.32 154.93 31.07 180.02 5.83 154.93 5.83 154.94 31.07 180.03 56.32 154.94"/><polygon class="cls-9" points="31.07 6.85 5.83 6.85 5.83 6.98 31.07 32.08 31.07 6.85"/><polygon class="cls-10" points="56.32 6.98 56.32 6.85 31.07 6.85 31.07 32.08 56.32 6.98"/><polygon class="cls-9" points="81.57 32.08 81.57 6.85 56.32 6.85 56.32 6.98 81.57 32.08"/><polygon class="cls-10" points="106.81 6.98 106.81 6.85 81.57 6.85 81.57 32.08 106.81 6.98"/><polygon class="cls-9" points="132.06 32.08 132.06 6.85 106.81 6.85 106.81 6.98 132.06 32.08"/><polygon class="cls-10" points="157.29 7 157.29 6.85 132.06 6.85 132.06 32.08 157.29 7"/><polygon class="cls-10" points="31.07 32.09 5.83 7 5.83 36.57 31.07 61.67 31.07 32.09"/><polygon class="cls-9" points="31.07 32.09 31.07 61.67 56.32 36.57 56.32 7 31.07 32.09"/><polygon class="cls-10" points="56.32 7 56.32 36.57 81.57 61.67 81.57 32.09 56.32 7"/><polygon class="cls-9" points="81.57 32.09 81.57 61.67 106.81 36.57 106.81 7 81.57 32.09"/><polygon class="cls-10" points="106.81 7 106.81 36.57 132.06 61.67 132.06 32.09 106.81 7"/><polygon class="cls-9" points="132.06 61.67 157.29 36.58 157.29 7.01 132.06 32.09 132.06 61.67"/><polygon class="cls-9" points="31.07 61.68 5.83 36.58 5.83 66.16 31.07 91.26 31.07 61.68"/><polygon class="cls-10" points="31.07 61.68 31.07 91.26 56.32 66.16 56.32 36.58 31.07 61.68"/><polygon class="cls-9" points="56.32 36.58 56.32 66.16 81.57 91.26 81.57 61.68 56.32 36.58"/><polygon class="cls-10" points="81.57 61.68 81.57 91.26 106.81 66.16 106.81 36.58 81.57 61.68"/><polygon class="cls-9" points="106.81 36.58 106.81 66.16 132.06 91.26 132.06 61.68 106.81 36.58"/><polygon class="cls-10" points="132.06 91.26 157.29 66.17 157.29 36.6 132.06 61.68 132.06 91.26"/><polygon class="cls-10" points="31.07 91.27 5.83 66.17 5.83 95.75 31.07 120.84 31.07 91.27"/><polygon class="cls-9" points="31.07 91.27 31.07 120.84 56.32 95.75 56.32 66.17 31.07 91.27"/><polygon class="cls-10" points="56.32 66.17 56.32 95.75 81.57 120.84 81.57 91.27 56.32 66.17"/><polygon class="cls-9" points="81.57 91.27 81.57 120.84 106.81 95.75 106.81 66.17 81.57 91.27"/><polygon class="cls-10" points="106.81 66.17 106.81 95.75 132.06 120.84 132.06 91.27 106.81 66.17"/><polygon class="cls-9" points="132.06 120.84 157.29 95.76 157.29 66.19 132.06 91.27 132.06 120.84"/><polygon class="cls-9" points="31.07 120.86 5.83 95.76 5.83 125.34 31.07 150.43 31.07 120.86"/><polygon class="cls-10" points="31.07 120.86 31.07 150.43 56.32 125.34 56.32 95.76 31.07 120.86"/><polygon class="cls-9" points="56.32 95.76 56.32 125.34 81.57 150.43 81.57 120.86 56.32 95.76"/><polygon class="cls-10" points="81.57 120.86 81.57 150.43 106.81 125.34 106.81 95.76 81.57 120.86"/><polygon class="cls-9" points="106.81 95.76 106.81 125.34 132.06 150.43 132.06 120.86 106.81 95.76"/><polygon class="cls-10" points="132.06 150.43 157.29 125.35 157.29 95.77 132.06 120.86 132.06 150.43"/><polygon class="cls-10" points="31.07 150.45 5.83 125.35 5.83 154.93 31.07 180.02 31.07 150.45"/><polygon class="cls-9" points="31.07 150.45 31.07 180.02 56.32 154.93 56.32 125.35 31.07 150.45"/><polygon class="cls-10" points="56.32 125.35 56.32 154.93 81.57 180.02 81.57 150.45 56.32 125.35"/><polygon class="cls-9" points="81.57 150.45 81.57 180.02 106.81 154.93 106.81 125.35 81.57 150.45"/><polygon class="cls-10" points="106.81 125.35 106.81 154.93 132.06 180.02 132.06 150.45 106.81 125.35"/><polygon class="cls-9" points="132.06 180.02 157.29 154.94 157.29 125.36 132.06 150.45 132.06 180.02"/><polygon class="cls-9" points="31.07 184.53 31.07 180.03 5.83 154.94 5.83 184.52 5.84 184.53 31.07 184.53"/><polygon class="cls-10" points="56.32 154.94 31.07 180.03 31.07 184.53 56.31 184.53 56.32 184.52 56.32 154.94"/><polygon class="cls-9" points="56.32 154.94 56.32 184.52 56.33 184.53 81.57 184.53 81.57 180.03 56.32 154.94"/><polygon class="cls-10" points="106.81 154.94 81.57 180.03 81.57 184.53 106.8 184.53 106.81 184.52 106.81 154.94"/><polygon class="cls-9" points="106.81 154.94 106.81 184.52 106.83 184.53 132.06 184.53 132.06 180.03 106.81 154.94"/><polygon class="cls-10" points="132.06 184.53 157.29 184.53 157.29 184.53 157.29 154.95 132.06 180.03 132.06 184.53"/></g><g class="cls-8"><g class="cls-11"><polyline class="cls-12" points="157 62.31 157.29 62.19 119.36 42.55 81.42 62.19 43.48 42.55 5.54 62.19 5.54 73.26 43.48 53.63 81.42 73.26 119.36 53.63 157.29 73.26 157 73.31"/><polyline class="cls-13" points="157 84.31 157.29 84.43 119.36 64.8 81.42 84.43 43.48 64.8 5.54 84.43 5.54 95.51 43.48 75.88 81.42 95.51 119.36 75.88 157.29 95.51 157 95.31"/><polyline class="cls-5" points="157 106.31 157.29 106.67 119.36 87.04 81.42 106.67 43.48 87.04 5.54 106.67 5.54 117.75 43.48 98.12 81.42 117.75 119.36 98.12 157.29 117.75 157 117.31"/><polyline class="cls-13" points="157 173.31 157.29 173.41 119.36 153.77 81.42 173.41 43.48 153.77 5.54 173.41 5.54 184.48 43.48 164.85 81.42 184.48 119.36 164.85 157.29 184.48 157 184.31"/><polyline class="cls-5" points="157 17.31 157.29 17.7 135.8 6.58 102.91 6.58 81.42 17.7 59.93 6.58 27.04 6.58 5.54 17.7 5.54 28.78 43.48 9.14 81.42 28.78 119.36 9.14 157.29 28.78 157 28.31"/><polyline class="cls-3" points="157 29.31 157.29 28.82 119.36 9.19 81.42 28.82 43.48 9.19 5.54 28.82 5.54 39.9 43.48 20.27 81.42 39.9 119.36 20.27 157.29 39.9 157 40.31"/><polyline class="cls-14" points="157 40.31 157.29 39.94 119.36 20.31 81.42 39.94 43.48 20.31 5.54 39.94 5.54 51.02 43.48 31.39 81.42 51.02 119.36 31.39 157.29 51.02 157 51.31"/><polyline class="cls-3" points="157 51.31 157.29 51.07 119.36 31.43 81.42 51.07 43.48 31.43 5.54 51.07 5.54 62.14 43.48 42.51 81.42 62.14 119.36 42.51 157.29 62.14"/><polyline class="cls-3" points="157 84.31 157.29 84.39 119.36 64.75 81.42 84.39 43.48 64.75 5.54 84.39 5.54 73.31 43.48 53.68 81.42 73.31 119.36 53.68 157.29 73.31 157 73.31"/><polyline class="cls-3" points="157 95.31 157.29 95.55 119.36 75.92 81.42 95.55 43.48 75.92 5.54 95.55 5.54 106.63 43.48 87 81.42 106.63 119.36 87 157.29 106.63 157 106.31"/><polyline class="cls-3" points="157 117.31 157.29 117.8 119.36 98.16 81.42 117.8 43.48 98.16 5.54 117.8 5.54 128.87 43.48 109.24 81.42 128.87 119.36 109.24 157.29 128.87 157 129.31"/><polyline class="cls-14" points="157 129.31 157.29 128.92 119.36 109.29 81.42 128.92 43.48 109.29 5.54 128.92 5.54 140 43.48 120.36 81.42 140 119.36 120.36 157.29 140 157 140.31"/><polyline class="cls-3" points="157 140.31 157.29 140.04 119.36 120.41 81.42 140.04 43.48 120.41 5.54 140.04 5.54 151.12 43.48 131.48 81.42 151.12 119.36 131.48 157.29 151.12 157 151.31"/><polyline class="cls-12" points="157 151.31 157.29 151.16 119.36 131.53 81.42 151.16 43.48 131.53 5.54 151.16 5.54 162.24 43.48 142.61 81.42 162.24 119.36 142.61 157.29 162.24 157 162.31"/><polyline class="cls-3" points="157 162.31 157.29 162.28 119.36 142.65 81.42 162.28 43.48 142.65 5.54 162.28 5.54 173.36 43.48 153.73 81.42 173.36 119.36 153.73 157.29 173.36 157 173.31"/><polyline class="cls-3" points="195.23 164.9 157.29 184.53 178.69 184.53"/></g></g><path class="cls-15" d="M53.38,63.09C50,59.33,44.8,56.58,44.15,67c-.59,9.37,9.49,10.34,9.49,10.34" transform="translate(0.41 0.05)"/><path class="cls-16" d="M82.37,131.17l.8-.15a8.47,8.47,0,0,0,6.4-10l-3.2-17.94A8.23,8.23,0,0,0,77,96.19l-.8.15a8.47,8.47,0,0,0-6.4,10L73,124.24A8.23,8.23,0,0,0,82.37,131.17Z" transform="translate(0.41 0.05)"/><path class="cls-17" d="M64.7,108.85l29.66,1.31c7,.31,12.77-5.45,13-12.86l1-35.62c.21-7.41-5.26-13.67-12.22-14L66.48,46.39c-7-.31-12.77,5.45-13,12.86l-1,35.62C52.27,102.29,57.74,108.54,64.7,108.85Z" transform="translate(0.41 0.05)"/><path class="cls-16" d="M99.33,49.65S86,57.41,80,58.87s-26.53.38-26.53.38l.27-8.46L96.15,47.7Z" transform="translate(0.41 0.05)"/><path class="cls-18" d="M112.69,62.55c2.67-4,.19-10.7.19-10.7L98.35,48.61s11,10,9.83,19.61Z" transform="translate(0.41 0.05)"/><path class="cls-19" d="M89,10.61c14.94,1.58,22.81,16.68,23.36,25.07s.58,16.45.58,16.45L55,42.08s4-12,5.18-17.85S74,9,89,10.61" transform="translate(0.41 0.05)"/><path class="cls-20" d="M70.91,79.65c.28.32,1.06,0,1.75-.65s1-1.49.75-1.81-1.06,0-1.75.65S70.64,79.33,70.91,79.65Z" transform="translate(0.41 0.05)"/><path class="cls-20" d="M110.33,74.87c-.35,2,0-5.71,2-7.08s3.45-.3,3.69.52C116,68.31,111.47,68.52,110.33,74.87Z" transform="translate(0.41 0.05)"/><path class="cls-21" d="M138.8,170.92l-19.85,5-14.58-18.63s2.94-28.93,10.64-27C115,130.35,122.45,141,138.8,170.92Z" transform="translate(0.41 0.05)"/><path class="cls-15" d="M78.31,65.56c3,.08,4.25,5.16,4.45,7.47s.23,5.73-1.59,8.4-6.63,5.42-9.59,4.24-5.76-5.4-1.54-8.42S75,71.9,75.85,69C77,65.11,78.31,65.56,78.31,65.56Z" transform="translate(0.41 0.05)"/><path class="cls-20" d="M107,85" transform="translate(0.41 0.05)"/><path class="cls-20" d="M120.91,68.84" transform="translate(0.41 0.05)"/><path class="cls-15" d="M108.21,66.9c2.39-4.52,10.28-6.64,13.49,3.31,2.88,8.92-14.2,12.62-14.2,12.62" transform="translate(0.41 0.05)"/><path class="cls-22" d="M52.76,70.75c.89,1.85-1.2-5.61-4.22-6.54l-.49-.14c-1.49-.36-2.38,1.38-.93,1.82A9,9,0,0,1,52.76,70.75Z" transform="translate(0.41 0.05)"/><path class="cls-22" d="M108.28,74.93c-.73,2,.38-5.74,3.87-7.24l.57-.23c1.74-.64,3.15.91,1.48,1.61A10.25,10.25,0,0,0,108.28,74.93Z" transform="translate(0.41 0.05)"/><path class="cls-18" d="M99.33,49.65c2.83,2.44,6.43,5.14,4.91,9.74Z" transform="translate(0.41 0.05)"/><path class="cls-18" d="M98.28,60.75c-2.57-2.61-5.36-5.93-10.94-4.46Z" transform="translate(0.41 0.05)"/><path class="cls-18" d="M100,59.7C97.4,57.09,94.61,53.77,89,55.24Z" transform="translate(0.41 0.05)"/><path class="cls-18" d="M48.56,57.6c1.54-2.47,3.12-5.51,7.68-5.35Z" transform="translate(0.41 0.05)"/><path class="cls-18" d="M52,60.28c.25-3,.28-6.46,4.34-8.62Z" transform="translate(0.41 0.05)"/><path class="cls-23" d="M95.2,48.88C91.93,43,76,27.1,55.32,39.72A35.16,35.16,0,0,0,41.67,55.05s-1.38,4.16,4.12.92,17.74-5.6,28.3.42a7,7,0,0,0,6.85-.59C84.77,53.49,95.2,48.88,95.2,48.88Z" transform="translate(0.41 0.05)"/><path class="cls-24" d="M90,66.35c-.07,2.55.57,4.65,1.44,4.69s1.63-2,1.71-4.55-.57-4.65-1.44-4.69S90.07,63.8,90,66.35Z" transform="translate(0.41 0.05)"/><path class="cls-24" d="M63.45,66.35C63.37,68.9,64,71,64.89,71s1.63-2,1.71-4.55S66,61.84,65.15,61.8,63.52,63.8,63.45,66.35Z" transform="translate(0.41 0.05)"/><ellipse class="cls-25" cx="72.13" cy="79.47" rx="1.43" ry="1.04" transform="translate(-6.17 6.56) rotate(-4.95)"/><path class="cls-26" d="M135.6,178.44" transform="translate(0.41 0.05)"/><path class="cls-27" d="M87.57,109.87l-17.34-.77c.69,3.7,3.8,3.94,6.23,3.79C81.14,112.6,87.57,109.87,87.57,109.87Z" transform="translate(0.41 0.05)"/><g class="cls-28"><path class="cls-29" d="M84.48,73.06c4,0,5.51,4.62,5.69,6.75a9.41,9.41,0,0,1-2.44,7.83c-2.54,2.54-9.09,5.25-13,4.27S67.19,87.13,73,84.18s6.8-5.13,8.1-7.87C82.78,72.69,84.48,73.06,84.48,73.06Z" transform="translate(0.41 0.05)"/></g><path class="cls-18" d="M58.16,60.78c2.48-2.65,5.16-6,10.79-4.61Z" transform="translate(0.41 0.05)"/><path class="cls-18" d="M56.44,59.76c2.48-2.65,5.16-6,10.79-4.61Z" transform="translate(0.41 0.05)"/><circle class="cls-15" cx="59.18" cy="75.19" r="0.61"/><circle class="cls-15" cx="62.25" cy="76.46" r="0.61"/><circle class="cls-15" cx="61.64" cy="80.71" r="0.61"/><circle class="cls-15" cx="57.46" cy="81.83" r="0.61"/><circle class="cls-15" cx="68.78" cy="75.85" r="0.61"/><circle class="cls-15" cx="89.86" cy="75.79" r="0.61"/><circle class="cls-15" cx="89.86" cy="80.1" r="0.61"/><circle class="cls-15" cx="97.92" cy="78.32" r="0.61"/><circle class="cls-15" cx="97.92" cy="73.81" r="0.61"/><circle class="cls-15" cx="94.92" cy="75.3" r="0.61"/><circle class="cls-15" cx="86.42" cy="77.72" r="0.61"/><circle class="cls-15" cx="102.92" cy="81.83" r="0.61"/><circle class="cls-15" cx="102.92" cy="76.4" r="0.61"/><path class="cls-24" d="M66.18,90.05c5,1.7,18.3,2.66,22.72.8a.32.32,0,0,1,.4.48C87,94.53,82.76,97.15,77,97.19s-9.76-4.66-11.15-6.65A.32.32,0,0,1,66.18,90.05Z" transform="translate(0.41 0.05)"/><g class="cls-30"><rect class="cls-31" x="79.08" y="92.09" width="3.16" height="5.83" rx="1.58" ry="1.58"/><rect class="cls-31" x="74.82" y="91.74" width="3.16" height="5.83" rx="1.58" ry="1.58"/><rect class="cls-31" x="72.06" y="91.74" width="2.37" height="4.37" rx="1.19" ry="1.19" transform="translate(16.95 -10.77) rotate(9.51)"/><path class="cls-31" d="M70.55,95.69h0a1.19,1.19,0,0,1-1-1.37l.33-2a1.19,1.19,0,0,1,1.37-1h0c.64.11,1.08,1.72,1,2.37l-.33,1A1.19,1.19,0,0,1,70.55,95.69Z" transform="translate(0.41 0.05)"/><rect class="cls-31" x="83.66" y="92.36" width="2.37" height="4.37" rx="1.19" ry="1.19" transform="translate(-16.14 18.07) rotate(-11.05)"/><rect class="cls-31" x="81.32" y="92.72" width="2.37" height="4.37" rx="1.19" ry="1.19" transform="translate(-13.34 14.03) rotate(-8.95)"/></g><path class="cls-15" d="M68.66,90.66C71,90.87,83,92.4,86,91.46c-1.5.66-5.52,2.33-8.76,1.91A35.1,35.1,0,0,1,68.66,90.66Z" transform="translate(0.41 0.05)"/><path class="cls-29" d="M71.59,98c1,1.24,10,2.5,11.94,1.06a9,9,0,0,1-6.05,2.75C73.9,101.82,71.59,98,71.59,98Z" transform="translate(0.41 0.05)"/><rect class="cls-32" x="6.96" y="6.5" width="152.25" height="177.95" rx="12" ry="12"/><path class="cls-21" d="M138.8,170.92l-19.85,5-14.58-18.63s2.94-28.93,10.64-27C115,130.35,122.45,141,138.8,170.92Z" transform="translate(0.41 0.05)"/><path class="cls-17" d="M44.12,157.37c-9,16-7.33,27.11-7.33,27.11h7.33c1-14.78,4.76-19.45,4.76-19.45Z" transform="translate(0.41 0.05)"/><path class="cls-33" d="M45.44,173.78c-.61,3.41-.71,4.76-.71,4.76l-6.54-6.88,1.13-2Z" transform="translate(0.41 0.05)"/><polyline class="cls-34" points="37.09 170.19 49.03 132.67 58.92 168.96 51.24 181.38"/><path class="cls-17" d="M127.39,157.37c9,16,7.33,27.11,7.33,27.11h-7.33c-1-14.78-4.76-19.45-4.76-19.45Z" transform="translate(0.41 0.05)"/><polygon class="cls-33" points="126.03 173.37 133.89 172.26 127.05 177.46 126.03 173.37"/><path class="cls-34" d="M138.8,170.92l-19.85,5-14.58-18.63s2.94-28.93,10.64-27C115,130.35,122.45,141,138.8,170.92Z" transform="translate(0.41 0.05)"/><polygon class="cls-35" points="49.03 132.67 73.37 124.28 90.63 123.07 115.42 130.4 120.1 184.53 55.55 184.53 49.03 132.67"/><ellipse class="cls-34" cx="81.66" cy="129.23" rx="13.34" ry="9.06" transform="matrix(1, -0.09, 0.09, 1, -10.42, 7.57)"/><path class="cls-16" d="M83,132.87h0A8.59,8.59,0,0,0,90.22,123l-.1-.52a8.83,8.83,0,0,0-10.37-6.7h0a8.59,8.59,0,0,0-7.22,9.84l.1.52A8.83,8.83,0,0,0,83,132.87Z" transform="translate(0.41 0.05)"/><path class="cls-36" d="M51,152.08C66.69,144.38,96,183.63,114,184.47H54.29Z" transform="translate(0.41 0.05)"/><rect class="cls-1" y="0.31" width="166" height="191"/></svg>