<svg id="baseball" xmlns="http://www.w3.org/2000/svg" xmlns:xlink="http://www.w3.org/1999/xlink" viewBox="0 0 162.49 187.73"><defs><style>.cls-1,.cls-11,.cls-17,.cls-2,.cls-25{fill:none;}.cls-2,.cls-4,.cls-6,.cls-8{opacity:0.56;}.cls-3,.cls-4{fill:#eeecc8;}.cls-5,.cls-6{fill:#5ebbc2;}.cls-7{fill:#fcfae3;}.cls-9{fill:#eae6d5;}.cls-10{fill:#8bb1a9;}.cls-11{stroke:#fff;stroke-width:13px;}.cls-11,.cls-17,.cls-25{stroke-miterlimit:10;}.cls-12{fill:#e5a980;}.cls-13{fill:#e5745a;}.cls-14{fill:#dd8c68;}.cls-15{fill:#ad471f;}.cls-16{fill:#29437c;}.cls-17{stroke:#000;}.cls-18{fill:#b76349;}.cls-19{fill:#630;}.cls-20{fill:#99544d;}.cls-21{fill:#f9f9f9;}.cls-22{fill:#4267ba;}.cls-23{fill:#56361d;}.cls-24{fill:#efb297;}.cls-25{stroke:#e5745a;stroke-linecap:round;stroke-width:4px;}.cls-26{fill:#ad5634;}.cls-27{clip-path:url(#clip-path);}.cls-28{fill:#c96353;}.cls-29{clip-path:url(#clip-path-2);}.cls-30{fill:#f4f3dc;}.cls-31{fill:#e2e2e2;}</style><clipPath id="clip-path" transform="translate(-1.01 -1.95)"><path class="cls-1" d="M78,66.49c2.91.08,4.17,5.07,4.37,7.34s.22,5.63-1.56,8.25-6.51,5.32-9.42,4.16S65.7,80.94,69.85,78s4.83-5.25,5.71-8.13C76.72,66,78,66.49,78,66.49Z"/></clipPath><clipPath id="clip-path-2" transform="translate(-1.01 -1.95)"><path class="cls-1" d="M67.4,90.93c2.32,1.86,21,.3,21.1.26S87,96.91,77.34,97.53c-3.73.24-7.9-1.64-9.6-4.35C67.3,92.49,66.89,90.52,67.4,90.93Z"/></clipPath></defs><title>baseball</title><polyline class="cls-2" points="154.12 72.06 116.87 52.78 79.62 72.06 42.37 52.78 5.12 72.06 5.12 72.1 42.37 52.82 79.62 72.1 116.87 52.82 154.12 72.1"/><polyline class="cls-2" points="154.12 61.14 116.87 41.86 79.62 61.14 42.37 41.86 5.12 61.14 5.12 61.18 42.37 41.9 79.62 61.18 116.87 41.9 154.12 61.18"/><polyline class="cls-2" points="154.12 50.22 116.87 30.94 79.62 50.22 42.37 30.94 5.12 50.22 5.12 50.26 42.37 30.98 79.62 50.26 116.87 30.98 154.12 50.26"/><polyline class="cls-2" points="154.12 39.29 116.87 20.02 79.62 39.29 42.37 20.02 5.12 39.29 5.12 39.34 42.37 20.06 79.62 39.34 116.87 20.06 154.12 39.34"/><polyline class="cls-2" points="154.12 159.42 116.87 140.14 79.62 159.42 42.37 140.14 5.12 159.42 5.12 159.47 42.37 140.19 79.62 159.47 116.87 140.19 154.12 159.47"/><polyline class="cls-2" points="154.12 28.37 116.87 9.1 79.62 28.37 42.37 9.1 5.12 28.37 5.12 28.42 42.37 9.14 79.62 28.42 116.87 9.14 154.12 28.42"/><polyline class="cls-2" points="154.12 126.66 116.87 107.38 79.62 126.66 42.37 107.38 5.12 126.66 5.12 126.7 42.37 107.43 79.62 126.7 116.87 107.43 154.12 126.7"/><polyline class="cls-2" points="154.12 82.98 116.87 63.7 79.62 82.98 42.37 63.7 5.12 82.98 5.12 83.02 42.37 63.74 79.62 83.02 116.87 63.74 154.12 83.02"/><polyline class="cls-2" points="154.12 104.82 116.87 85.54 79.62 104.82 42.37 85.54 5.12 104.82 5.12 104.86 42.37 85.59 79.62 104.86 116.87 85.59 154.12 104.86"/><polyline class="cls-2" points="154.12 93.9 116.87 74.62 79.62 93.9 42.37 74.62 5.12 93.9 5.12 93.94 42.37 74.67 79.62 93.94 116.87 74.67 154.12 93.94"/><polygon class="cls-2" points="26.13 6.58 5.12 17.45 5.12 17.5 26.22 6.58 26.13 6.58"/><polyline class="cls-2" points="154.12 137.58 116.87 118.3 79.62 137.58 42.37 118.3 5.12 137.58 5.12 137.63 42.37 118.35 79.62 137.63 116.87 118.35 154.12 137.63"/><polygon class="cls-2" points="26.13 181.31 26.22 181.31 42.37 172.95 58.52 181.31 58.6 181.31 42.37 172.91 26.13 181.31"/><polygon class="cls-1" points="100.64 181.31 100.72 181.31 116.87 172.95 133.02 181.31 133.1 181.31 116.87 172.91 100.64 181.31"/><polyline class="cls-1" points="154.12 17.45 133.1 6.58 133.02 6.58 154.12 17.5"/><polygon class="cls-1" points="100.72 6.58 100.64 6.58 79.62 17.45 58.6 6.58 58.52 6.58 79.62 17.5 100.72 6.58"/><polyline class="cls-2" points="154.12 115.74 116.87 96.46 79.62 115.74 42.37 96.46 5.12 115.74 5.12 115.78 42.37 96.51 79.62 115.78 116.87 96.51 154.12 115.78"/><polyline class="cls-2" points="154.12 148.5 116.87 129.22 79.62 148.5 42.37 129.22 5.12 148.5 5.12 148.55 42.37 129.27 79.62 148.55 116.87 129.27 154.12 148.55"/><polyline class="cls-2" points="154.12 181.26 116.87 161.99 79.62 181.26 42.37 161.99 5.12 181.26 5.12 181.31 42.37 162.03 79.62 181.31 116.87 162.03 154.12 181.31"/><polyline class="cls-2" points="154.12 170.34 116.87 151.06 79.62 170.34 42.37 151.06 5.12 170.34 5.12 170.39 42.37 151.11 79.62 170.39 116.87 151.11 154.12 170.39"/><polygon class="cls-3" points="100.64 6.58 58.6 6.58 79.62 17.45 100.64 6.58"/><polygon class="cls-4" points="5.12 6.58 5.12 17.45 26.13 6.58 5.12 6.58"/><polygon class="cls-4" points="5.12 181.31 26.13 181.31 42.37 172.91 58.6 181.31 79.62 181.31 42.37 162.03 5.12 181.31"/><polygon class="cls-3" points="79.62 181.31 100.64 181.31 116.87 172.91 133.1 181.31 154.12 181.31 116.87 162.03 79.62 181.31"/><polygon class="cls-5" points="100.72 181.31 133.02 181.31 116.87 172.95 100.72 181.31"/><polygon class="cls-6" points="26.22 181.31 58.52 181.31 42.37 172.95 26.22 181.31"/><rect class="cls-2" x="5.12" y="6.58" width="149" height="174.73"/><rect class="cls-7" x="60.79" y="89.73" width="2.56" height="6.67" rx="1.28" ry="1.28"/><g class="cls-8"><polygon class="cls-1" points="104.54 181.31 104.56 181.31 104.55 181.3 104.54 181.31"/><polygon class="cls-1" points="54.96 181.31 54.98 181.31 54.97 181.3 54.96 181.31"/><polygon class="cls-1" points="154.12 181.31 154.12 181.31 154.12 181.31 154.12 181.31"/><polygon class="cls-1" points="54.97 65.09 79.76 89.73 104.55 65.09 129.34 89.73 154.12 65.11 154.12 65.09 129.34 89.72 104.55 65.08 79.76 89.72 54.97 65.08 30.18 89.72 5.39 65.08 5.39 65.09 30.18 89.73 54.97 65.09"/><polygon class="cls-1" points="54.97 36.04 79.76 60.68 104.55 36.04 129.34 60.68 154.12 36.05 154.12 36.04 129.34 60.67 104.55 36.03 79.76 60.67 54.97 36.03 30.18 60.67 5.39 36.03 5.39 36.04 30.18 60.68 54.97 36.04"/><polygon class="cls-1" points="54.97 94.15 79.76 118.79 104.55 94.15 129.34 118.79 154.12 94.16 154.12 94.15 129.34 118.78 104.55 94.14 79.76 118.78 54.97 94.14 30.18 118.78 5.39 94.14 5.39 94.15 30.18 118.79 54.97 94.15"/><polygon class="cls-1" points="54.97 6.99 79.76 31.63 104.55 6.99 129.34 31.63 154.12 7 154.12 6.99 129.34 31.61 104.55 6.97 79.76 31.61 54.97 6.97 30.18 31.61 5.39 6.97 5.39 6.99 30.18 31.63 54.97 6.99"/><polygon class="cls-1" points="54.97 123.2 79.76 147.84 104.55 123.2 129.34 147.84 154.12 123.21 154.12 123.2 129.34 147.83 104.55 123.19 79.76 147.83 54.97 123.19 30.18 147.83 5.39 123.19 5.39 123.2 30.18 147.84 54.97 123.2"/><polygon class="cls-1" points="5.39 181.3 5.39 181.31 5.41 181.31 5.39 181.3"/><polygon class="cls-1" points="54.97 152.25 79.76 176.9 104.55 152.25 129.34 176.9 154.12 152.27 154.12 152.25 129.34 176.88 104.55 152.24 79.76 176.88 54.97 152.24 30.18 176.88 5.39 152.24 5.39 152.25 30.18 176.9 54.97 152.25"/><polygon class="cls-9" points="30.18 6.84 5.39 6.84 5.39 6.97 30.18 31.61 30.18 6.84"/><polygon class="cls-10" points="54.97 6.97 54.97 6.84 30.18 6.84 30.18 31.61 54.97 6.97"/><polygon class="cls-9" points="79.76 31.61 79.76 6.84 54.97 6.84 54.97 6.97 79.76 31.61"/><polygon class="cls-10" points="104.55 6.97 104.55 6.84 79.76 6.84 79.76 31.61 104.55 6.97"/><polygon class="cls-9" points="129.34 31.61 129.34 6.84 104.55 6.84 104.55 6.97 129.34 31.61"/><polygon class="cls-10" points="154.12 6.99 154.12 6.84 129.34 6.84 129.34 31.61 154.12 6.99"/><polygon class="cls-10" points="30.18 31.63 5.39 6.99 5.39 36.03 30.18 60.67 30.18 31.63"/><polygon class="cls-9" points="30.18 31.63 30.18 60.67 54.97 36.03 54.97 6.99 30.18 31.63"/><polygon class="cls-10" points="54.97 6.99 54.97 36.03 79.76 60.67 79.76 31.63 54.97 6.99"/><polygon class="cls-9" points="79.76 31.63 79.76 60.67 104.55 36.03 104.55 6.99 79.76 31.63"/><polygon class="cls-10" points="104.55 6.99 104.55 36.03 129.34 60.67 129.34 31.63 104.55 6.99"/><polygon class="cls-9" points="129.34 60.67 154.12 36.04 154.12 7 129.34 31.63 129.34 60.67"/><polygon class="cls-9" points="30.18 60.68 5.39 36.04 5.39 65.08 30.18 89.72 30.18 60.68"/><polygon class="cls-10" points="30.18 60.68 30.18 89.72 54.97 65.08 54.97 36.04 30.18 60.68"/><polygon class="cls-9" points="54.97 36.04 54.97 65.08 79.76 89.72 79.76 60.68 54.97 36.04"/><polygon class="cls-10" points="79.76 60.68 79.76 89.72 104.55 65.08 104.55 36.04 79.76 60.68"/><polygon class="cls-9" points="104.55 36.04 104.55 65.08 129.34 89.72 129.34 60.68 104.55 36.04"/><polygon class="cls-10" points="129.34 89.72 154.12 65.09 154.12 36.05 129.34 60.68 129.34 89.72"/><polygon class="cls-10" points="30.18 89.73 5.39 65.09 5.39 94.14 30.18 118.78 30.18 89.73"/><polygon class="cls-9" points="30.18 89.73 30.18 118.78 54.97 94.14 54.97 65.09 30.18 89.73"/><polygon class="cls-10" points="54.97 65.09 54.97 94.14 79.76 118.78 79.76 89.73 54.97 65.09"/><polygon class="cls-9" points="79.76 89.73 79.76 118.78 104.55 94.14 104.55 65.09 79.76 89.73"/><polygon class="cls-10" points="104.55 65.09 104.55 94.14 129.34 118.78 129.34 89.73 104.55 65.09"/><polygon class="cls-9" points="129.34 118.78 154.12 94.15 154.12 65.11 129.34 89.73 129.34 118.78"/><polygon class="cls-9" points="30.18 118.79 5.39 94.15 5.39 123.19 30.18 147.83 30.18 118.79"/><polygon class="cls-10" points="30.18 118.79 30.18 147.83 54.97 123.19 54.97 94.15 30.18 118.79"/><polygon class="cls-9" points="54.97 94.15 54.97 123.19 79.76 147.83 79.76 118.79 54.97 94.15"/><polygon class="cls-10" points="79.76 118.79 79.76 147.83 104.55 123.19 104.55 94.15 79.76 118.79"/><polygon class="cls-9" points="104.55 94.15 104.55 123.19 129.34 147.83 129.34 118.79 104.55 94.15"/><polygon class="cls-10" points="129.34 147.83 154.12 123.2 154.12 94.16 129.34 118.79 129.34 147.83"/><polygon class="cls-10" points="30.18 147.84 5.39 123.2 5.39 152.24 30.18 176.88 30.18 147.84"/><polygon class="cls-9" points="30.18 147.84 30.18 176.88 54.97 152.24 54.97 123.2 30.18 147.84"/><polygon class="cls-10" points="54.97 123.2 54.97 152.24 79.76 176.88 79.76 147.84 54.97 123.2"/><polygon class="cls-9" points="79.76 147.84 79.76 176.88 104.55 152.24 104.55 123.2 79.76 147.84"/><polygon class="cls-10" points="104.55 123.2 104.55 152.24 129.34 176.88 129.34 147.84 104.55 123.2"/><polygon class="cls-9" points="129.34 176.88 154.12 152.25 154.12 123.21 129.34 147.84 129.34 176.88"/><polygon class="cls-9" points="30.18 181.31 30.18 176.9 5.39 152.25 5.39 181.3 5.41 181.31 30.18 181.31"/><polygon class="cls-10" points="54.97 152.25 30.18 176.9 30.18 181.31 54.96 181.31 54.97 181.3 54.97 152.25"/><polygon class="cls-9" points="54.97 152.25 54.97 181.3 54.98 181.31 79.76 181.31 79.76 176.9 54.97 152.25"/><polygon class="cls-10" points="104.55 152.25 79.76 176.9 79.76 181.31 104.54 181.31 104.55 181.3 104.55 152.25"/><polygon class="cls-9" points="104.55 152.25 104.55 181.3 104.56 181.31 129.34 181.31 129.34 176.9 104.55 152.25"/><polygon class="cls-10" points="129.34 181.31 154.12 181.31 154.12 181.31 154.12 152.27 129.34 176.9 129.34 181.31"/></g><rect class="cls-11" x="6.5" y="6.5" width="149.49" height="174.73" rx="12" ry="12"/><path class="cls-12" d="M44.41,156.64c-8.83,15.71-7.2,26.62-7.2,26.62h7.2c1-14.51,4.67-19.09,4.67-19.09Z" transform="translate(-1.01 -1.95)"/><path class="cls-13" d="M53.5,64.07c-3.37-3.69-8.43-6.4-9.07,3.87-.57,9.2,9.32,10.15,9.32,10.15" transform="translate(-1.01 -1.95)"/><path class="cls-14" d="M82,130.91l.79-.15A8.32,8.32,0,0,0,89,121l-3.14-17.61a8.08,8.08,0,0,0-9.24-6.81l-.79.15a8.32,8.32,0,0,0-6.29,9.77l3.14,17.61A8.08,8.08,0,0,0,82,130.91Z" transform="translate(-1.01 -1.95)"/><path class="cls-12" d="M64.61,109l29.13,1.29c6.83.3,12.54-5.35,12.75-12.63l1-35c.21-7.28-5.16-13.42-12-13.73L66.37,47.67C59.53,47.36,53.82,53,53.62,60.3l-1,35C52.41,102.55,57.78,108.7,64.61,109Z" transform="translate(-1.01 -1.95)"/><path class="cls-14" d="M98.62,50.86s-13.13,7.62-19,9.06-26,.37-26,.37l.26-8.3,41.61-3Z" transform="translate(-1.01 -1.95)"/><path class="cls-15" d="M111.74,63.54c2.62-3.93.19-10.5.19-10.5L97.65,49.85s10.77,9.84,9.65,19.26Z" transform="translate(-1.01 -1.95)"/><path class="cls-16" d="M88.44,12.54c14.67,1.55,22.39,16.38,22.94,24.61s.57,16.16.57,16.16L55.11,43.43S59,31.64,60.19,25.9,73.77,11,88.44,12.54" transform="translate(-1.01 -1.95)"/><path class="cls-17" d="M70.72,80.32c.27.31,1,0,1.72-.64s1-1.46.74-1.77-1,0-1.72.64S70.44,80,70.72,80.32Z" transform="translate(-1.01 -1.95)"/><path class="cls-17" d="M109.42,75.63c-.34,1.92,0-5.61,1.93-6.95s3.39-.29,3.62.51C115,69.19,110.54,69.4,109.42,75.63Z" transform="translate(-1.01 -1.95)"/><path class="cls-12" d="M126.17,156.64c8.83,15.71,7.2,26.62,7.2,26.62h-7.2c-1-14.51-4.67-19.09-4.67-19.09Z" transform="translate(-1.01 -1.95)"/><polygon class="cls-18" points="123.42 170.36 131.14 169.26 124.42 174.36 123.42 170.36"/><path class="cls-19" d="M137.37,169.95l-19.49,5-14.32-18.29s2.89-28.4,10.45-26.5C114,130.11,121.32,140.6,137.37,169.95Z" transform="translate(-1.01 -1.95)"/><path class="cls-13" d="M78,66.49c2.91.08,4.17,5.07,4.37,7.34s.22,5.63-1.56,8.25-6.51,5.32-9.42,4.16S65.7,80.94,69.85,78s4.83-5.25,5.71-8.13C76.72,66,78,66.49,78,66.49Z" transform="translate(-1.01 -1.95)"/><path class="cls-17" d="M106.18,85.61" transform="translate(-1.01 -1.95)"/><path class="cls-17" d="M119.81,69.71" transform="translate(-1.01 -1.95)"/><path class="cls-13" d="M107.34,67.81c2.34-4.44,10.09-6.52,13.25,3.25,2.83,8.76-13.94,12.4-13.94,12.4" transform="translate(-1.01 -1.95)"/><path class="cls-20" d="M52.89,71.59c.88,1.82-1.18-5.51-4.14-6.42L48.27,65c-1.46-.35-2.33,1.36-.91,1.79A8.79,8.79,0,0,1,52.89,71.59Z" transform="translate(-1.01 -1.95)"/><path class="cls-20" d="M107.41,75.69c-.72,2,.38-5.64,3.8-7.11l.56-.22c1.71-.62,3.1.89,1.45,1.58A10.06,10.06,0,0,0,107.41,75.69Z" transform="translate(-1.01 -1.95)"/><path class="cls-15" d="M98.62,50.86c2.78,2.4,6.31,5,4.82,9.56Z" transform="translate(-1.01 -1.95)"/><path class="cls-15" d="M97.59,61.76c-2.52-2.57-5.26-5.83-10.74-4.38Z" transform="translate(-1.01 -1.95)"/><path class="cls-15" d="M99.25,60.74c-2.52-2.57-5.26-5.83-10.74-4.38Z" transform="translate(-1.01 -1.95)"/><path class="cls-15" d="M48.77,58.67c1.51-2.42,3.07-5.41,7.54-5.25Z" transform="translate(-1.01 -1.95)"/><path class="cls-18" d="M45.7,172.76c-.59,3.35-.7,4.67-.7,4.67l-6.42-6.76,1.1-2Z" transform="translate(-1.01 -1.95)"/><path class="cls-15" d="M52.19,61.31c.25-2.91.28-6.34,4.27-8.46Z" transform="translate(-1.01 -1.95)"/><polyline class="cls-19" points="36.09 167.23 47.82 130.39 57.52 166.02 49.98 178.22"/><polygon class="cls-21" points="47.82 130.39 71.71 122.15 88.66 120.96 113 128.16 117.6 181.31 54.21 181.31 47.82 130.39"/><ellipse class="cls-19" cx="81.27" cy="129.01" rx="13.1" ry="8.9" transform="translate(-11.83 5.54) rotate(-4.95)"/><path class="cls-14" d="M82.59,132.58h0a8.44,8.44,0,0,0,7.09-9.66l-.1-.51a8.67,8.67,0,0,0-10.18-6.58h0a8.44,8.44,0,0,0-7.09,9.66l.1.51A8.67,8.67,0,0,0,82.59,132.58Z" transform="translate(-1.01 -1.95)"/><path class="cls-22" d="M94.57,50.11c-3.21-5.77-18.82-21.38-39.17-9A34.53,34.53,0,0,0,42,56.17s-1.35,4.08,4,.9,17.42-5.5,27.78.41a6.87,6.87,0,0,0,6.72-.58C84.32,54.64,94.57,50.11,94.57,50.11Z" transform="translate(-1.01 -1.95)"/><path class="cls-23" d="M89.46,67.26c-.07,2.5.56,4.57,1.42,4.6s1.6-2,1.68-4.47-.56-4.57-1.42-4.6S89.53,64.76,89.46,67.26Z" transform="translate(-1.01 -1.95)"/><path class="cls-23" d="M63.38,67.26c-.07,2.5.56,4.57,1.42,4.6s1.6-2,1.68-4.47-.56-4.57-1.42-4.6S63.45,64.76,63.38,67.26Z" transform="translate(-1.01 -1.95)"/><ellipse class="cls-24" cx="71.91" cy="80.15" rx="1.4" ry="1.02" transform="translate(-7.65 4.55) rotate(-4.95)"/><path class="cls-25" d="M134.24,177.33" transform="translate(-1.01 -1.95)"/><path class="cls-26" d="M87.07,110l-17-.75c.67,3.63,3.73,3.87,6.11,3.72C80.75,112.68,87.07,110,87.07,110Z" transform="translate(-1.01 -1.95)"/><g class="cls-27"><path class="cls-28" d="M84,73.85c3.9,0,5.41,4.54,5.59,6.63a9.24,9.24,0,0,1-2.4,7.69c-2.49,2.49-8.92,5.16-12.78,4.19s-7.39-4.7-1.73-7.59,6.67-5,8-7.73C82.37,73.49,84,73.85,84,73.85Z" transform="translate(-1.01 -1.95)"/></g><path class="cls-15" d="M58.19,61.8c2.44-2.6,5.07-5.9,10.59-4.53Z" transform="translate(-1.01 -1.95)"/><path class="cls-15" d="M56.5,60.8c2.44-2.6,5.07-5.9,10.59-4.53Z" transform="translate(-1.01 -1.95)"/><circle class="cls-13" cx="57.78" cy="73.95" r="0.59"/><circle class="cls-13" cx="60.79" cy="75.19" r="0.59"/><circle class="cls-13" cx="60.2" cy="79.37" r="0.59"/><circle class="cls-13" cx="56.09" cy="80.47" r="0.59"/><circle class="cls-13" cx="67.2" cy="74.6" r="0.59"/><circle class="cls-13" cx="87.9" cy="74.54" r="0.59"/><circle class="cls-13" cx="87.9" cy="78.77" r="0.59"/><circle class="cls-13" cx="95.82" cy="77.03" r="0.59"/><circle class="cls-13" cx="95.82" cy="72.59" r="0.59"/><circle class="cls-13" cx="92.87" cy="74.06" r="0.59"/><circle class="cls-13" cx="84.53" cy="76.43" r="0.59"/><circle class="cls-13" cx="100.73" cy="80.47" r="0.59"/><circle class="cls-13" cx="100.73" cy="75.14" r="0.59"/><path class="cls-23" d="M66.07,90.54c4.86,1.67,18,2.61,22.31.79a.32.32,0,0,1,.39.47c-2.21,3.14-6.42,5.71-12.11,5.75S67.07,93,65.71,91A.32.32,0,0,1,66.07,90.54Z" transform="translate(-1.01 -1.95)"/><g class="cls-29"><rect class="cls-30" x="76.34" y="90.54" width="3.11" height="5.72" rx="1.55" ry="1.55"/><rect class="cls-30" x="73.14" y="90.2" width="3.11" height="5.72" rx="1.55" ry="1.55"/><rect class="cls-30" x="71.84" y="91.21" width="2.33" height="4.29" rx="1.16" ry="1.16" transform="translate(15.43 -12.73) rotate(9.51)"/><path class="cls-30" d="M70.35,96.07h0a1.17,1.17,0,0,1-1-1.34l.32-1.94a1.17,1.17,0,0,1,1.34-1h0c.63.11,1.06,1.69,1,2.32l-.32,1A1.17,1.17,0,0,1,70.35,96.07Z" transform="translate(-1.01 -1.95)"/><rect class="cls-30" x="83.23" y="92.8" width="2.33" height="4.29" rx="1.16" ry="1.16" transform="translate(-14.75 12.33) rotate(-8.95)"/><rect class="cls-30" x="80.93" y="93.16" width="2.33" height="4.29" rx="1.16" ry="1.16" transform="translate(-14.83 11.98) rotate(-8.95)"/></g><path class="cls-13" d="M68.5,91.14c2.28.21,14.06,1.7,17,.79-1.47.65-5.42,2.29-8.6,1.87A34.47,34.47,0,0,1,68.5,91.14Z" transform="translate(-1.01 -1.95)"/><path class="cls-28" d="M71.38,98.35c.94,1.22,9.82,2.45,11.72,1a8.81,8.81,0,0,1-5.94,2.7C73.65,102.09,71.38,98.35,71.38,98.35Z" transform="translate(-1.01 -1.95)"/><path class="cls-31" d="M51.2,151.44c15.36-7.55,44.09,31,61.78,31.81H54.39Z" transform="translate(-1.01 -1.95)"/></svg>