<svg id="Layer_2" data-name="Layer 2" xmlns="http://www.w3.org/2000/svg" xmlns:xlink="http://www.w3.org/1999/xlink" viewBox="0 0 194.78 190.95"><defs><style>.cls-1,.cls-2,.cls-20,.cls-26,.cls-32{fill:none;}.cls-2,.cls-4,.cls-6,.cls-8{opacity:0.56;}.cls-3,.cls-4{fill:#eeecc8;}.cls-5,.cls-6{fill:#5ebbc2;}.cls-7{fill:#fcfae3;}.cls-9{fill:#eae6d5;}.cls-10{fill:#8bb1a9;}.cls-11{clip-path:url(#clip-path);}.cls-12{fill:#465578;}.cls-13{fill:#de4a63;}.cls-14{fill:#691d4a;}.cls-15{fill:#e5745a;}.cls-16{fill:#dd8c68;}.cls-17{fill:#e5a980;}.cls-18{fill:#ad471f;}.cls-19{fill:#29437c;}.cls-20{stroke:#000;}.cls-20,.cls-26,.cls-32{stroke-miterlimit:10;}.cls-21{fill:#4e4f4e;}.cls-22{fill:#99544d;}.cls-23{fill:#4267ba;}.cls-24{fill:#56361d;}.cls-25{fill:#efb297;}.cls-26{stroke:#e5745a;stroke-linecap:round;stroke-width:4px;}.cls-27{fill:#ad5634;}.cls-28{clip-path:url(#clip-path-2);}.cls-29{fill:#c96353;}.cls-30{clip-path:url(#clip-path-3);}.cls-31{fill:#f4f3dc;}.cls-32{stroke:#fff;stroke-width:13px;}.cls-33{fill:#b76349;}.cls-34{fill:#630;}.cls-35{fill:#f9f9f9;}.cls-36{fill:#e2e2e2;}</style><clipPath id="clip-path" transform="translate(-0.04 0.05)"><rect class="cls-1" x="4.63" y="6.53" width="152.25" height="177.95" rx="12" ry="12"/></clipPath><clipPath id="clip-path-2" transform="translate(-0.04 0.05)"><path class="cls-1" d="M78.31,65.56c3,.08,4.25,5.16,4.45,7.47s.23,5.73-1.59,8.4-6.63,5.42-9.59,4.24-5.76-5.4-1.54-8.42S75,71.9,75.85,69C77,65.11,78.31,65.56,78.31,65.56Z"/></clipPath><clipPath id="clip-path-3" transform="translate(-0.04 0.05)"><path class="cls-1" d="M67.54,90.45c2.36,1.9,21.39.31,21.49.27s-1.49,5.82-11.37,6.46c-3.8.25-8-1.67-9.78-4.43C67.44,92,67,90,67.54,90.45Z"/></clipPath></defs><title>baseball</title><polyline class="cls-2" points="156.84 73.26 118.9 53.63 80.97 73.26 43.03 53.63 5.09 73.26 5.09 73.31 43.03 53.68 80.97 73.31 118.9 53.68 156.84 73.31"/><polyline class="cls-2" points="156.84 62.14 118.9 42.51 80.97 62.14 43.03 42.51 5.09 62.14 5.09 62.19 43.03 42.55 80.97 62.19 118.9 42.55 156.84 62.19"/><polyline class="cls-2" points="156.84 51.02 118.9 31.39 80.97 51.02 43.03 31.39 5.09 51.02 5.09 51.07 43.03 31.43 80.97 51.07 118.9 31.43 156.84 51.07"/><polyline class="cls-2" points="156.84 39.9 118.9 20.27 80.97 39.9 43.03 20.27 5.09 39.9 5.09 39.94 43.03 20.31 80.97 39.94 118.9 20.31 156.84 39.94"/><polyline class="cls-2" points="156.84 162.24 118.9 142.61 80.97 162.24 43.03 142.61 5.09 162.24 5.09 162.28 43.03 142.65 80.97 162.28 118.9 142.65 156.84 162.28"/><polyline class="cls-2" points="156.84 28.78 118.9 9.14 80.97 28.78 43.03 9.14 5.09 28.78 5.09 28.82 43.03 9.19 80.97 28.82 118.9 9.19 156.84 28.82"/><polyline class="cls-2" points="156.84 128.87 118.9 109.24 80.97 128.87 43.03 109.24 5.09 128.87 5.09 128.92 43.03 109.29 80.97 128.92 118.9 109.29 156.84 128.92"/><polyline class="cls-2" points="156.84 84.39 118.9 64.75 80.97 84.39 43.03 64.75 5.09 84.39 5.09 84.43 43.03 64.8 80.97 84.43 118.9 64.8 156.84 84.43"/><polyline class="cls-2" points="156.84 106.63 118.9 87 80.97 106.63 43.03 87 5.09 106.63 5.09 106.67 43.03 87.04 80.97 106.67 118.9 87.04 156.84 106.67"/><polyline class="cls-2" points="156.84 95.51 118.9 75.88 80.97 95.51 43.03 75.88 5.09 95.51 5.09 95.55 43.03 75.92 80.97 95.55 118.9 75.92 156.84 95.55"/><polygon class="cls-2" points="26.49 6.58 5.09 17.66 5.09 17.7 26.58 6.58 26.49 6.58"/><polyline class="cls-2" points="156.84 140 118.9 120.36 80.97 140 43.03 120.36 5.09 140 5.09 140.04 43.03 120.41 80.97 140.04 118.9 120.41 156.84 140.04"/><polygon class="cls-2" points="26.49 184.53 26.58 184.53 43.03 176.02 59.47 184.53 59.56 184.53 43.03 175.97 26.49 184.53"/><polygon class="cls-1" points="102.37 184.53 102.46 184.53 118.9 176.02 135.35 184.53 135.44 184.53 118.9 175.97 102.37 184.53"/><polyline class="cls-1" points="156.84 17.66 135.44 6.58 135.35 6.58 156.84 17.7"/><polygon class="cls-1" points="102.46 6.58 102.37 6.58 80.97 17.66 59.56 6.58 59.47 6.58 80.97 17.7 102.46 6.58"/><polyline class="cls-2" points="156.84 117.75 118.9 98.12 80.97 117.75 43.03 98.12 5.09 117.75 5.09 117.8 43.03 98.16 80.97 117.8 118.9 98.16 156.84 117.8"/><polyline class="cls-2" points="156.84 151.12 118.9 131.48 80.97 151.12 43.03 131.48 5.09 151.12 5.09 151.16 43.03 131.53 80.97 151.16 118.9 131.53 156.84 151.16"/><polyline class="cls-2" points="156.84 184.48 118.9 164.85 80.97 184.48 43.03 164.85 5.09 184.48 5.09 184.53 43.03 164.9 80.97 184.53 118.9 164.9 156.84 184.53"/><polyline class="cls-2" points="156.84 173.36 118.9 153.73 80.97 173.36 43.03 153.73 5.09 173.36 5.09 173.41 43.03 153.77 80.97 173.41 118.9 153.77 156.84 173.41"/><polygon class="cls-3" points="102.37 6.58 59.56 6.58 80.97 17.66 102.37 6.58"/><polygon class="cls-4" points="5.09 6.58 5.09 17.66 26.49 6.58 5.09 6.58"/><polygon class="cls-4" points="5.09 184.53 26.49 184.53 43.03 175.97 59.56 184.53 80.97 184.53 43.03 164.9 5.09 184.53"/><polygon class="cls-3" points="80.97 184.53 102.37 184.53 118.9 175.97 135.44 184.53 156.84 184.53 118.9 164.9 80.97 184.53"/><polygon class="cls-5" points="102.46 184.53 135.35 184.53 118.9 176.02 102.46 184.53"/><polygon class="cls-6" points="26.58 184.53 59.47 184.53 43.03 176.02 26.58 184.53"/><rect class="cls-2" x="5.09" y="6.58" width="151.75" height="177.95"/><rect class="cls-7" x="61.79" y="91.26" width="2.6" height="6.8" rx="1.3" ry="1.3"/><g class="cls-8"><polygon class="cls-1" points="106.34 184.53 106.37 184.53 106.36 184.52 106.34 184.53"/><polygon class="cls-1" points="55.85 184.53 55.88 184.53 55.87 184.52 55.85 184.53"/><polygon class="cls-1" points="156.84 184.53 156.84 184.53 156.84 184.53 156.84 184.53"/><polygon class="cls-1" points="55.87 66.17 81.11 91.27 106.36 66.17 131.6 91.27 156.84 66.19 156.84 66.17 131.6 91.26 106.36 66.16 81.11 91.26 55.87 66.16 30.62 91.26 5.37 66.16 5.37 66.17 30.62 91.27 55.87 66.17"/><polygon class="cls-1" points="55.87 36.58 81.11 61.68 106.36 36.58 131.6 61.68 156.84 36.6 156.84 36.58 131.6 61.67 106.36 36.57 81.11 61.67 55.87 36.57 30.62 61.67 5.37 36.57 5.37 36.58 30.62 61.68 55.87 36.58"/><polygon class="cls-1" points="55.87 95.76 81.11 120.86 106.36 95.76 131.6 120.86 156.84 95.77 156.84 95.76 131.6 120.84 106.36 95.75 81.11 120.84 55.87 95.75 30.62 120.84 5.37 95.75 5.37 95.76 30.62 120.86 55.87 95.76"/><polygon class="cls-1" points="55.87 7 81.11 32.09 106.36 7 131.6 32.09 156.84 7.01 156.84 7 131.6 32.08 106.36 6.98 81.11 32.08 55.87 6.98 30.62 32.08 5.37 6.98 5.37 7 30.62 32.09 55.87 7"/><polygon class="cls-1" points="55.87 125.35 81.11 150.45 106.36 125.35 131.6 150.45 156.84 125.36 156.84 125.35 131.6 150.43 106.36 125.34 81.11 150.43 55.87 125.34 30.62 150.43 5.37 125.34 5.37 125.35 30.62 150.45 55.87 125.35"/><polygon class="cls-1" points="5.37 184.52 5.37 184.53 5.39 184.53 5.37 184.52"/><polygon class="cls-1" points="55.87 154.94 81.11 180.03 106.36 154.94 131.6 180.03 156.84 154.95 156.84 154.94 131.6 180.02 106.36 154.93 81.11 180.02 55.87 154.93 30.62 180.02 5.37 154.93 5.37 154.94 30.62 180.03 55.87 154.94"/><polygon class="cls-9" points="30.62 6.85 5.37 6.85 5.37 6.98 30.62 32.08 30.62 6.85"/><polygon class="cls-10" points="55.87 6.98 55.87 6.85 30.62 6.85 30.62 32.08 55.87 6.98"/><polygon class="cls-9" points="81.11 32.08 81.11 6.85 55.87 6.85 55.87 6.98 81.11 32.08"/><polygon class="cls-10" points="106.36 6.98 106.36 6.85 81.11 6.85 81.11 32.08 106.36 6.98"/><polygon class="cls-9" points="131.6 32.08 131.6 6.85 106.36 6.85 106.36 6.98 131.6 32.08"/><polygon class="cls-10" points="156.84 7 156.84 6.85 131.6 6.85 131.6 32.08 156.84 7"/><polygon class="cls-10" points="30.62 32.09 5.37 7 5.37 36.57 30.62 61.67 30.62 32.09"/><polygon class="cls-9" points="30.62 32.09 30.62 61.67 55.87 36.57 55.87 7 30.62 32.09"/><polygon class="cls-10" points="55.87 7 55.87 36.57 81.11 61.67 81.11 32.09 55.87 7"/><polygon class="cls-9" points="81.11 32.09 81.11 61.67 106.36 36.57 106.36 7 81.11 32.09"/><polygon class="cls-10" points="106.36 7 106.36 36.57 131.6 61.67 131.6 32.09 106.36 7"/><polygon class="cls-9" points="131.6 61.67 156.84 36.58 156.84 7.01 131.6 32.09 131.6 61.67"/><polygon class="cls-9" points="30.62 61.68 5.37 36.58 5.37 66.16 30.62 91.26 30.62 61.68"/><polygon class="cls-10" points="30.62 61.68 30.62 91.26 55.87 66.16 55.87 36.58 30.62 61.68"/><polygon class="cls-9" points="55.87 36.58 55.87 66.16 81.11 91.26 81.11 61.68 55.87 36.58"/><polygon class="cls-10" points="81.11 61.68 81.11 91.26 106.36 66.16 106.36 36.58 81.11 61.68"/><polygon class="cls-9" points="106.36 36.58 106.36 66.16 131.6 91.26 131.6 61.68 106.36 36.58"/><polygon class="cls-10" points="131.6 91.26 156.84 66.17 156.84 36.6 131.6 61.68 131.6 91.26"/><polygon class="cls-10" points="30.62 91.27 5.37 66.17 5.37 95.75 30.62 120.84 30.62 91.27"/><polygon class="cls-9" points="30.62 91.27 30.62 120.84 55.87 95.75 55.87 66.17 30.62 91.27"/><polygon class="cls-10" points="55.87 66.17 55.87 95.75 81.11 120.84 81.11 91.27 55.87 66.17"/><polygon class="cls-9" points="81.11 91.27 81.11 120.84 106.36 95.75 106.36 66.17 81.11 91.27"/><polygon class="cls-10" points="106.36 66.17 106.36 95.75 131.6 120.84 131.6 91.27 106.36 66.17"/><polygon class="cls-9" points="131.6 120.84 156.84 95.76 156.84 66.19 131.6 91.27 131.6 120.84"/><polygon class="cls-9" points="30.62 120.86 5.37 95.76 5.37 125.34 30.62 150.43 30.62 120.86"/><polygon class="cls-10" points="30.62 120.86 30.62 150.43 55.87 125.34 55.87 95.76 30.62 120.86"/><polygon class="cls-9" points="55.87 95.76 55.87 125.34 81.11 150.43 81.11 120.86 55.87 95.76"/><polygon class="cls-10" points="81.11 120.86 81.11 150.43 106.36 125.34 106.36 95.76 81.11 120.86"/><polygon class="cls-9" points="106.36 95.76 106.36 125.34 131.6 150.43 131.6 120.86 106.36 95.76"/><polygon class="cls-10" points="131.6 150.43 156.84 125.35 156.84 95.77 131.6 120.86 131.6 150.43"/><polygon class="cls-10" points="30.62 150.45 5.37 125.35 5.37 154.93 30.62 180.02 30.62 150.45"/><polygon class="cls-9" points="30.62 150.45 30.62 180.02 55.87 154.93 55.87 125.35 30.62 150.45"/><polygon class="cls-10" points="55.87 125.35 55.87 154.93 81.11 180.02 81.11 150.45 55.87 125.35"/><polygon class="cls-9" points="81.11 150.45 81.11 180.02 106.36 154.93 106.36 125.35 81.11 150.45"/><polygon class="cls-10" points="106.36 125.35 106.36 154.93 131.6 180.02 131.6 150.45 106.36 125.35"/><polygon class="cls-9" points="131.6 180.02 156.84 154.94 156.84 125.36 131.6 150.45 131.6 180.02"/><polygon class="cls-9" points="30.62 184.53 30.62 180.03 5.37 154.94 5.37 184.52 5.39 184.53 30.62 184.53"/><polygon class="cls-10" points="55.87 154.94 30.62 180.03 30.62 184.53 55.85 184.53 55.87 184.52 55.87 154.94"/><polygon class="cls-9" points="55.87 154.94 55.87 184.52 55.88 184.53 81.11 184.53 81.11 180.03 55.87 154.94"/><polygon class="cls-10" points="106.36 154.94 81.11 180.03 81.11 184.53 106.34 184.53 106.36 184.52 106.36 154.94"/><polygon class="cls-9" points="106.36 154.94 106.36 184.52 106.37 184.53 131.6 184.53 131.6 180.03 106.36 154.94"/><polygon class="cls-10" points="131.6 184.53 156.84 184.53 156.84 184.53 156.84 154.95 131.6 180.03 131.6 184.53"/></g><g class="cls-8"><g class="cls-11"><polyline class="cls-12" points="156.54 62.31 156.84 62.19 118.9 42.55 80.97 62.19 43.03 42.55 5.09 62.19 5.09 73.26 43.03 53.63 80.97 73.26 118.9 53.63 156.84 73.26 156.54 73.31"/><polyline class="cls-13" points="156.54 84.31 156.84 84.43 118.9 64.8 80.97 84.43 43.03 64.8 5.09 84.43 5.09 95.51 43.03 75.88 80.97 95.51 118.9 75.88 156.84 95.51 156.54 95.31"/><polyline class="cls-5" points="156.54 106.31 156.84 106.67 118.9 87.04 80.97 106.67 43.03 87.04 5.09 106.67 5.09 117.75 43.03 98.12 80.97 117.75 118.9 98.12 156.84 117.75 156.54 117.31"/><polyline class="cls-13" points="156.54 173.31 156.84 173.41 118.9 153.77 80.97 173.41 43.03 153.77 5.09 173.41 5.09 184.48 43.03 164.85 80.97 184.48 118.9 164.85 156.84 184.48 156.54 184.31"/><polyline class="cls-5" points="156.54 17.31 156.84 17.7 135.35 6.58 102.46 6.58 80.97 17.7 59.47 6.58 26.58 6.58 5.09 17.7 5.09 28.78 43.03 9.14 80.97 28.78 118.9 9.14 156.84 28.78 156.54 28.31"/><polyline class="cls-3" points="156.54 29.31 156.84 28.82 118.9 9.19 80.97 28.82 43.03 9.19 5.09 28.82 5.09 39.9 43.03 20.27 80.97 39.9 118.9 20.27 156.84 39.9 156.54 40.31"/><polyline class="cls-14" points="156.54 40.31 156.84 39.94 118.9 20.31 80.97 39.94 43.03 20.31 5.09 39.94 5.09 51.02 43.03 31.39 80.97 51.02 118.9 31.39 156.84 51.02 156.54 51.31"/><polyline class="cls-3" points="156.54 51.31 156.84 51.07 118.9 31.43 80.97 51.07 43.03 31.43 5.09 51.07 5.09 62.14 43.03 42.51 80.97 62.14 118.9 42.51 156.84 62.14"/><polyline class="cls-3" points="156.54 84.31 156.84 84.39 118.9 64.75 80.97 84.39 43.03 64.75 5.09 84.39 5.09 73.31 43.03 53.68 80.97 73.31 118.9 53.68 156.84 73.31 156.54 73.31"/><polyline class="cls-3" points="156.54 95.31 156.84 95.55 118.9 75.92 80.97 95.55 43.03 75.92 5.09 95.55 5.09 106.63 43.03 87 80.97 106.63 118.9 87 156.84 106.63 156.54 106.31"/><polyline class="cls-3" points="156.54 117.31 156.84 117.8 118.9 98.16 80.97 117.8 43.03 98.16 5.09 117.8 5.09 128.87 43.03 109.24 80.97 128.87 118.9 109.24 156.84 128.87 156.54 129.31"/><polyline class="cls-14" points="156.54 129.31 156.84 128.92 118.9 109.29 80.97 128.92 43.03 109.29 5.09 128.92 5.09 140 43.03 120.36 80.97 140 118.9 120.36 156.84 140 156.54 140.31"/><polyline class="cls-3" points="156.54 140.31 156.84 140.04 118.9 120.41 80.97 140.04 43.03 120.41 5.09 140.04 5.09 151.12 43.03 131.48 80.97 151.12 118.9 131.48 156.84 151.12 156.54 151.31"/><polyline class="cls-12" points="156.54 151.31 156.84 151.16 118.9 131.53 80.97 151.16 43.03 131.53 5.09 151.16 5.09 162.24 43.03 142.61 80.97 162.24 118.9 142.61 156.84 162.24 156.54 162.31"/><polyline class="cls-3" points="156.54 162.31 156.84 162.28 118.9 142.65 80.97 162.28 43.03 142.65 5.09 162.28 5.09 173.36 43.03 153.73 80.97 173.36 118.9 153.73 156.84 173.36 156.54 173.31"/><polyline class="cls-3" points="194.78 164.9 156.84 184.53 178.24 184.53"/></g></g><path class="cls-15" d="M53.38,63.09C50,59.33,44.8,56.58,44.15,67c-.59,9.37,9.49,10.34,9.49,10.34" transform="translate(-0.04 0.05)"/><path class="cls-16" d="M82.37,131.17l.8-.15a8.47,8.47,0,0,0,6.4-10l-3.2-17.94A8.23,8.23,0,0,0,77,96.19l-.8.15a8.47,8.47,0,0,0-6.4,10L73,124.24A8.23,8.23,0,0,0,82.37,131.17Z" transform="translate(-0.04 0.05)"/><path class="cls-17" d="M64.7,108.85l29.66,1.31c7,.31,12.77-5.45,13-12.86l1-35.62c.21-7.41-5.26-13.67-12.22-14L66.48,46.39c-7-.31-12.77,5.45-13,12.86l-1,35.62C52.27,102.29,57.74,108.54,64.7,108.85Z" transform="translate(-0.04 0.05)"/><path class="cls-16" d="M99.33,49.65S86,57.41,80,58.87s-26.53.38-26.53.38l.27-8.46L96.15,47.7Z" transform="translate(-0.04 0.05)"/><path class="cls-18" d="M112.69,62.55c2.67-4,.19-10.7.19-10.7L98.35,48.61s11,10,9.83,19.61Z" transform="translate(-0.04 0.05)"/><path class="cls-19" d="M89,10.61c14.94,1.58,22.81,16.68,23.36,25.07s.58,16.45.58,16.45L55,42.08s4-12,5.18-17.85S74,9,89,10.61" transform="translate(-0.04 0.05)"/><path class="cls-20" d="M70.91,79.65c.28.32,1.06,0,1.75-.65s1-1.49.75-1.81-1.06,0-1.75.65S70.64,79.33,70.91,79.65Z" transform="translate(-0.04 0.05)"/><path class="cls-20" d="M110.33,74.87c-.35,2,0-5.71,2-7.08s3.45-.3,3.69.52C116,68.31,111.47,68.52,110.33,74.87Z" transform="translate(-0.04 0.05)"/><path class="cls-21" d="M138.8,170.92l-19.85,5-14.58-18.63s2.94-28.93,10.64-27C115,130.35,122.45,141,138.8,170.92Z" transform="translate(-0.04 0.05)"/><path class="cls-15" d="M78.31,65.56c3,.08,4.25,5.16,4.45,7.47s.23,5.73-1.59,8.4-6.63,5.42-9.59,4.24-5.76-5.4-1.54-8.42S75,71.9,75.85,69C77,65.11,78.31,65.56,78.31,65.56Z" transform="translate(-0.04 0.05)"/><path class="cls-20" d="M107,85" transform="translate(-0.04 0.05)"/><path class="cls-20" d="M120.91,68.84" transform="translate(-0.04 0.05)"/><path class="cls-15" d="M108.21,66.9c2.39-4.52,10.28-6.64,13.49,3.31,2.88,8.92-14.2,12.62-14.2,12.62" transform="translate(-0.04 0.05)"/><path class="cls-22" d="M52.76,70.75c.89,1.85-1.2-5.61-4.22-6.54l-.49-.14c-1.49-.36-2.38,1.38-.93,1.82A9,9,0,0,1,52.76,70.75Z" transform="translate(-0.04 0.05)"/><path class="cls-22" d="M108.28,74.93c-.73,2,.38-5.74,3.87-7.24l.57-.23c1.74-.64,3.15.91,1.48,1.61A10.25,10.25,0,0,0,108.28,74.93Z" transform="translate(-0.04 0.05)"/><path class="cls-18" d="M99.33,49.65c2.83,2.44,6.43,5.14,4.91,9.74Z" transform="translate(-0.04 0.05)"/><path class="cls-18" d="M98.28,60.75c-2.57-2.61-5.36-5.93-10.94-4.46Z" transform="translate(-0.04 0.05)"/><path class="cls-18" d="M100,59.7C97.4,57.09,94.61,53.77,89,55.24Z" transform="translate(-0.04 0.05)"/><path class="cls-18" d="M48.56,57.6c1.54-2.47,3.12-5.51,7.68-5.35Z" transform="translate(-0.04 0.05)"/><path class="cls-18" d="M52,60.28c.25-3,.28-6.46,4.34-8.62Z" transform="translate(-0.04 0.05)"/><path class="cls-23" d="M95.2,48.88C91.93,43,76,27.1,55.32,39.72A35.16,35.16,0,0,0,41.67,55.05s-1.38,4.16,4.12.92,17.74-5.6,28.3.42a7,7,0,0,0,6.85-.59C84.77,53.49,95.2,48.88,95.2,48.88Z" transform="translate(-0.04 0.05)"/><path class="cls-24" d="M90,66.35c-.07,2.55.57,4.65,1.44,4.69s1.63-2,1.71-4.55-.57-4.65-1.44-4.69S90.07,63.8,90,66.35Z" transform="translate(-0.04 0.05)"/><path class="cls-24" d="M63.45,66.35C63.37,68.9,64,71,64.89,71s1.63-2,1.71-4.55S66,61.84,65.15,61.8,63.52,63.8,63.45,66.35Z" transform="translate(-0.04 0.05)"/><ellipse class="cls-25" cx="72.13" cy="79.47" rx="1.43" ry="1.04" transform="translate(-6.62 6.56) rotate(-4.95)"/><path class="cls-26" d="M135.6,178.44" transform="translate(-0.04 0.05)"/><path class="cls-27" d="M87.57,109.87l-17.34-.77c.69,3.7,3.8,3.94,6.23,3.79C81.14,112.6,87.57,109.87,87.57,109.87Z" transform="translate(-0.04 0.05)"/><g class="cls-28"><path class="cls-29" d="M84.48,73.06c4,0,5.51,4.62,5.69,6.75a9.41,9.41,0,0,1-2.44,7.83c-2.54,2.54-9.09,5.25-13,4.27S67.19,87.13,73,84.18s6.8-5.13,8.1-7.87C82.78,72.69,84.48,73.06,84.48,73.06Z" transform="translate(-0.04 0.05)"/></g><path class="cls-18" d="M58.16,60.78c2.48-2.65,5.16-6,10.79-4.61Z" transform="translate(-0.04 0.05)"/><path class="cls-18" d="M56.44,59.76c2.48-2.65,5.16-6,10.79-4.61Z" transform="translate(-0.04 0.05)"/><circle class="cls-15" cx="58.73" cy="75.19" r="0.61"/><circle class="cls-15" cx="61.79" cy="76.46" r="0.61"/><circle class="cls-15" cx="61.19" cy="80.71" r="0.61"/><circle class="cls-15" cx="57.01" cy="81.83" r="0.61"/><circle class="cls-15" cx="68.32" cy="75.85" r="0.61"/><circle class="cls-15" cx="89.4" cy="75.79" r="0.61"/><circle class="cls-15" cx="89.4" cy="80.1" r="0.61"/><circle class="cls-15" cx="97.46" cy="78.32" r="0.61"/><circle class="cls-15" cx="97.46" cy="73.81" r="0.61"/><circle class="cls-15" cx="94.46" cy="75.3" r="0.61"/><circle class="cls-15" cx="85.96" cy="77.72" r="0.61"/><circle class="cls-15" cx="102.46" cy="81.83" r="0.61"/><circle class="cls-15" cx="102.46" cy="76.4" r="0.61"/><path class="cls-24" d="M66.18,90.05c5,1.7,18.3,2.66,22.72.8a.32.32,0,0,1,.4.48C87,94.53,82.76,97.15,77,97.19s-9.76-4.66-11.15-6.65A.32.32,0,0,1,66.18,90.05Z" transform="translate(-0.04 0.05)"/><g class="cls-30"><rect class="cls-31" x="77.62" y="92.09" width="3.16" height="5.83" rx="1.58" ry="1.58"/><rect class="cls-31" x="74.37" y="91.74" width="3.16" height="5.83" rx="1.58" ry="1.58"/><rect class="cls-31" x="72.06" y="90.74" width="2.37" height="4.37" rx="1.19" ry="1.19" transform="translate(16.33 -10.78) rotate(9.51)"/><path class="cls-31" d="M70.55,95.69h0a1.19,1.19,0,0,1-1-1.37l.33-2a1.19,1.19,0,0,1,1.37-1h0c.64.11,1.08,1.72,1,2.37l-.33,1A1.19,1.19,0,0,1,70.55,95.69Z" transform="translate(-0.04 0.05)"/><rect class="cls-31" x="83.66" y="92.36" width="2.37" height="4.37" rx="1.19" ry="1.19" transform="translate(-13.71 14.39) rotate(-8.95)"/><rect class="cls-31" x="81.32" y="92.72" width="2.37" height="4.37" rx="1.19" ry="1.19" transform="translate(-13.8 14.03) rotate(-8.95)"/></g><path class="cls-15" d="M68.66,90.66C71,90.87,83,92.4,86,91.46c-1.5.66-5.52,2.33-8.76,1.91A35.1,35.1,0,0,1,68.66,90.66Z" transform="translate(-0.04 0.05)"/><path class="cls-29" d="M71.59,98c1,1.24,10,2.5,11.94,1.06a9,9,0,0,1-6.05,2.75C73.9,101.82,71.59,98,71.59,98Z" transform="translate(-0.04 0.05)"/><rect class="cls-32" x="6.5" y="6.5" width="152.25" height="177.95" rx="12" ry="12"/><path class="cls-21" d="M138.8,170.92l-19.85,5-14.58-18.63s2.94-28.93,10.64-27C115,130.35,122.45,141,138.8,170.92Z" transform="translate(-0.04 0.05)"/><path class="cls-17" d="M44.12,157.37c-9,16-7.33,27.11-7.33,27.11h7.33c1-14.78,4.76-19.45,4.76-19.45Z" transform="translate(-0.04 0.05)"/><path class="cls-33" d="M45.44,173.78c-.61,3.41-.71,4.76-.71,4.76l-6.54-6.88,1.13-2Z" transform="translate(-0.04 0.05)"/><polyline class="cls-34" points="36.63 170.19 48.58 132.67 58.46 168.96 50.78 181.38"/><path class="cls-17" d="M127.39,157.37c9,16,7.33,27.11,7.33,27.11h-7.33c-1-14.78-4.76-19.45-4.76-19.45Z" transform="translate(-0.04 0.05)"/><polygon class="cls-33" points="125.58 173.37 133.43 172.26 126.59 177.46 125.58 173.37"/><path class="cls-34" d="M138.8,170.92l-19.85,5-14.58-18.63s2.94-28.93,10.64-27C115,130.35,122.45,141,138.8,170.92Z" transform="translate(-0.04 0.05)"/><polygon class="cls-35" points="48.58 132.67 72.91 124.28 90.18 123.07 114.96 130.4 119.65 184.53 55.09 184.53 48.58 132.67"/><ellipse class="cls-34" cx="81.66" cy="129.23" rx="13.34" ry="9.06" transform="matrix(1, -0.09, 0.09, 1, -10.88, 7.57)"/><path class="cls-16" d="M83,132.87h0A8.59,8.59,0,0,0,90.22,123l-.1-.52a8.83,8.83,0,0,0-10.37-6.7h0a8.59,8.59,0,0,0-7.22,9.84l.1.52A8.83,8.83,0,0,0,83,132.87Z" transform="translate(-0.04 0.05)"/><path class="cls-36" d="M51,152.08C66.69,144.38,96,183.63,114,184.47H54.29Z" transform="translate(-0.04 0.05)"/></svg>