<svg id="Layer_3" data-name="Layer 3" xmlns="http://www.w3.org/2000/svg" xmlns:xlink="http://www.w3.org/1999/xlink" viewBox="0 0 165.25 190.95"><defs><style>.cls-1,.cls-5{fill:none;}.cls-2{fill:#5b4211;}.cls-3{fill:#61c7c7;}.cls-4{fill:#f5f5eb;}.cls-5{stroke:#fff;stroke-miterlimit:10;stroke-width:13px;}.cls-6{fill:#b77e1a;}.cls-7{fill:#efd862;}.cls-8{fill:#5259dd;}.cls-9{fill:#dd8c68;}.cls-10{fill:#a85f42;}.cls-11{fill:#e8ab74;}.cls-12{fill:#824115;}.cls-13{fill:#c17816;}.cls-14{fill:#e29a33;}.cls-15{fill:#3a4ba3;}.cls-16{fill:#4156af;}.cls-17{fill:#f7e38d;}.cls-18{fill:#c6634f;}.cls-19{clip-path:url(#clip-path);}.cls-20{fill:#f4f3dc;}.cls-21{fill:#838de5;}</style><clipPath id="clip-path"><path class="cls-1" d="M70.31,93.79C80,97,96.64,93.42,96.75,93.38S89,98.51,83.68,98.11c-3.65-.27-7.14-.42-11-2.74C71.88,94.9,69.6,93.56,70.31,93.79Z"/></clipPath></defs><title>blonde</title><path class="cls-2" d="M56.79,104h54C105,116.7,84.87,115.95,84.87,115.95S58.88,116.12,56.79,104Z"/><path class="cls-3" d="M17.9,13.32c0,4.62-3.33,8.37-7.45,8.37v39c4.11,0,7.45,3.75,7.45,8.37h9.9c0-4.62,3.33-8.37,7.45-8.37s7.45,3.75,7.45,8.37h9.9c0-4.62,3.33-8.37,7.45-8.37s7.45,3.75,7.45,8.37h9.9c0-4.62,3.33-8.37,7.45-8.37v-39c-4.11,0-7.45-3.75-7.45-8.37"/><path class="cls-3" d="M42.69,13.32c0,4.62-3.33,8.37-7.45,8.37s-7.45-3.75-7.45-8.37"/><path class="cls-3" d="M67.49,13.32c0,4.62-3.33,8.37-7.45,8.37s-7.45-3.75-7.45-8.37"/><ellipse class="cls-3" cx="72.44" cy="41.19" rx="7.45" ry="8.37"/><ellipse class="cls-3" cx="47.64" cy="41.19" rx="7.45" ry="8.37"/><ellipse class="cls-3" cx="22.85" cy="41.19" rx="7.45" ry="8.37"/><path class="cls-4" d="M10.45,13.32v8.37c4.11,0,7.45-3.75,7.45-8.37"/><path class="cls-4" d="M27.8,13.32c0,4.62,3.33,8.37,7.45,8.37s7.45-3.75,7.45-8.37"/><path class="cls-4" d="M52.59,13.32c0,4.62,3.33,8.37,7.45,8.37s7.45-3.75,7.45-8.37"/><path class="cls-4" d="M77.39,13.32c0,4.62,3.33,8.37,7.45,8.37V13.32"/><ellipse class="cls-4" cx="22.85" cy="41.19" rx="7.45" ry="8.37"/><ellipse class="cls-4" cx="47.64" cy="41.19" rx="7.45" ry="8.37"/><ellipse class="cls-4" cx="72.44" cy="41.19" rx="7.45" ry="8.37"/><path class="cls-4" d="M10.45,60.69v8.37H17.9C17.9,64.44,14.56,60.69,10.45,60.69Z"/><path class="cls-4" d="M35.24,60.69c-4.11,0-7.45,3.75-7.45,8.37H42.69C42.69,64.44,39.36,60.69,35.24,60.69Z"/><path class="cls-4" d="M60,60.69c-4.11,0-7.45,3.75-7.45,8.37H67.49C67.49,64.44,64.15,60.69,60,60.69Z"/><path class="cls-4" d="M77.39,69.06h7.45V60.69C80.72,60.69,77.39,64.44,77.39,69.06Z"/><path class="cls-3" d="M10.48,76.95v39c4.11,0,7.45,3.75,7.45,8.37h9.9c0-4.62,3.33-8.37,7.45-8.37s7.45,3.75,7.45,8.37h9.9c0-4.62,3.33-8.37,7.45-8.37s7.45,3.75,7.45,8.37h9.9c0-4.62,3.33-8.37,7.45-8.37v-39c-4.11,0-7.45-3.75-7.45-8.37h-9.9c0,4.62-3.33,8.37-7.45,8.37s-7.45-3.75-7.45-8.37h-9.9c0,4.62-3.33,8.37-7.45,8.37s-7.45-3.75-7.45-8.37h-9.9C17.93,73.2,14.6,76.95,10.48,76.95Zm62,11.13c4.11,0,7.45,3.75,7.45,8.37s-3.33,8.37-7.45,8.37S65,101.07,65,96.45,68.36,88.08,72.47,88.08Zm-24.79,0c4.11,0,7.45,3.75,7.45,8.37s-3.33,8.37-7.45,8.37-7.45-3.75-7.45-8.37S43.56,88.08,47.68,88.08ZM30.33,96.45c0,4.62-3.33,8.37-7.45,8.37s-7.45-3.75-7.45-8.37,3.33-8.37,7.45-8.37S30.33,91.83,30.33,96.45Z"/><path class="cls-4" d="M17.93,68.58H10.48v8.37C14.6,76.95,17.93,73.2,17.93,68.58Z"/><path class="cls-4" d="M35.28,76.95c4.11,0,7.45-3.75,7.45-8.37H27.83C27.83,73.2,31.17,76.95,35.28,76.95Z"/><path class="cls-4" d="M60.07,76.95c4.11,0,7.45-3.75,7.45-8.37H52.63C52.63,73.2,56,76.95,60.07,76.95Z"/><path class="cls-4" d="M84.87,76.95V68.58H77.42C77.42,73.2,80.75,76.95,84.87,76.95Z"/><ellipse class="cls-4" cx="22.88" cy="96.45" rx="7.45" ry="8.37"/><ellipse class="cls-4" cx="47.68" cy="96.45" rx="7.45" ry="8.37"/><ellipse class="cls-4" cx="72.47" cy="96.45" rx="7.45" ry="8.37"/><path class="cls-4" d="M10.48,115.95v8.37h7.45C17.93,119.69,14.6,115.95,10.48,115.95Z"/><path class="cls-4" d="M35.28,115.95c-4.11,0-7.45,3.75-7.45,8.37H42.72C42.72,119.69,39.39,115.95,35.28,115.95Z"/><path class="cls-4" d="M60.07,115.95c-4.11,0-7.45,3.75-7.45,8.37H67.52C67.52,119.69,64.18,115.95,60.07,115.95Z"/><path class="cls-4" d="M77.42,124.32h7.45v-8.37C80.75,115.95,77.42,119.69,77.42,124.32Z"/><path class="cls-3" d="M10.45,132.14v39c4.11,0,7.45,3.75,7.45,8.37h9.9c0-4.62,3.33-8.37,7.45-8.37s7.45,3.75,7.45,8.37h9.9c0-4.62,3.33-8.37,7.45-8.37s7.45,3.75,7.45,8.37h9.9c0-4.62,3.33-8.37,7.45-8.37v-39c-4.11,0-7.45-3.75-7.45-8.37h-9.9c0,4.62-3.33,8.37-7.45,8.37s-7.45-3.75-7.45-8.37h-9.9c0,4.62-3.33,8.37-7.45,8.37s-7.45-3.75-7.45-8.37H17.9C17.9,128.4,14.56,132.14,10.45,132.14Zm62,11.13c4.11,0,7.45,3.75,7.45,8.37S76.55,160,72.44,160,65,156.26,65,151.64,68.32,143.27,72.44,143.27Zm-24.79,0c4.11,0,7.45,3.75,7.45,8.37S51.75,160,47.64,160s-7.45-3.75-7.45-8.37S43.53,143.27,47.64,143.27Zm-17.35,8.37c0,4.62-3.33,8.37-7.45,8.37s-7.45-3.75-7.45-8.37,3.33-8.37,7.45-8.37S30.29,147,30.29,151.64Z"/><path class="cls-4" d="M17.9,123.77H10.45v8.37C14.56,132.14,17.9,128.4,17.9,123.77Z"/><path class="cls-4" d="M35.24,132.14c4.11,0,7.45-3.75,7.45-8.37H27.8C27.8,128.4,31.13,132.14,35.24,132.14Z"/><path class="cls-4" d="M60,132.14c4.11,0,7.45-3.75,7.45-8.37H52.59C52.59,128.4,55.93,132.14,60,132.14Z"/><path class="cls-4" d="M84.83,132.14v-8.37H77.39C77.39,128.4,80.72,132.14,84.83,132.14Z"/><ellipse class="cls-4" cx="22.85" cy="151.64" rx="7.45" ry="8.37"/><ellipse class="cls-4" cx="47.64" cy="151.64" rx="7.45" ry="8.37"/><ellipse class="cls-4" cx="72.44" cy="151.64" rx="7.45" ry="8.37"/><path class="cls-4" d="M10.45,171.14v8.37H17.9C17.9,174.89,14.56,171.14,10.45,171.14Z"/><path class="cls-4" d="M35.24,171.14c-4.11,0-7.45,3.75-7.45,8.37H42.69C42.69,174.89,39.36,171.14,35.24,171.14Z"/><path class="cls-4" d="M60,171.14c-4.11,0-7.45,3.75-7.45,8.37H67.49C67.49,174.89,64.15,171.14,60,171.14Z"/><path class="cls-4" d="M77.39,179.51h7.45v-8.37C80.72,171.14,77.39,174.89,77.39,179.51Z"/><path class="cls-3" d="M91.42,13.55c0,4.62-3.33,8.37-7.45,8.37v39c4.11,0,7.45,3.75,7.45,8.37h9.9c0-4.62,3.33-8.37,7.45-8.37s7.45,3.75,7.45,8.37h9.9c0-4.62,3.33-8.37,7.45-8.37S141,64.67,141,69.29h9.9c0-4.62,3.33-8.37,7.45-8.37v-39c-4.11,0-7.45-3.75-7.45-8.37"/><path class="cls-3" d="M116.21,13.55c0,4.62-3.33,8.37-7.45,8.37s-7.45-3.75-7.45-8.37"/><path class="cls-3" d="M141,13.55c0,4.62-3.33,8.37-7.45,8.37s-7.45-3.75-7.45-8.37"/><ellipse class="cls-3" cx="145.96" cy="41.42" rx="7.45" ry="8.37"/><ellipse class="cls-3" cx="121.16" cy="41.42" rx="7.45" ry="8.37"/><ellipse class="cls-3" cx="96.37" cy="41.42" rx="7.45" ry="8.37"/><path class="cls-4" d="M84,13.55v8.37c4.11,0,7.45-3.75,7.45-8.37"/><path class="cls-4" d="M101.32,13.55c0,4.62,3.33,8.37,7.45,8.37s7.45-3.75,7.45-8.37"/><path class="cls-4" d="M126.11,13.55c0,4.62,3.33,8.37,7.45,8.37S141,18.17,141,13.55"/><path class="cls-4" d="M150.91,13.55c0,4.62,3.33,8.37,7.45,8.37V13.55"/><ellipse class="cls-4" cx="96.37" cy="41.42" rx="7.45" ry="8.37"/><ellipse class="cls-4" cx="121.16" cy="41.42" rx="7.45" ry="8.37"/><ellipse class="cls-4" cx="145.96" cy="41.42" rx="7.45" ry="8.37"/><path class="cls-4" d="M84,60.92v8.37h7.45C91.42,64.67,88.09,60.92,84,60.92Z"/><path class="cls-4" d="M108.77,60.92c-4.11,0-7.45,3.75-7.45,8.37h14.89C116.21,64.67,112.88,60.92,108.77,60.92Z"/><path class="cls-4" d="M133.56,60.92c-4.11,0-7.45,3.75-7.45,8.37H141C141,64.67,137.67,60.92,133.56,60.92Z"/><path class="cls-4" d="M150.91,69.29h7.45V60.92C154.24,60.92,150.91,64.67,150.91,69.29Z"/><path class="cls-3" d="M84.29,76.87v39c4.11,0,7.45,3.75,7.45,8.37h9.9c0-4.62,3.33-8.37,7.45-8.37s7.45,3.75,7.45,8.37h9.9c0-4.62,3.33-8.37,7.45-8.37s7.45,3.75,7.45,8.37h9.9c0-4.62,3.33-8.37,7.45-8.37v-39c-4.11,0-7.45-3.75-7.45-8.37h-9.9c0,4.62-3.33,8.37-7.45,8.37s-7.45-3.75-7.45-8.37h-9.9c0,4.62-3.33,8.37-7.45,8.37s-7.45-3.75-7.45-8.37h-9.9C91.73,73.13,88.4,76.87,84.29,76.87Zm62,11.13c4.11,0,7.45,3.75,7.45,8.37s-3.33,8.37-7.45,8.37-7.45-3.75-7.45-8.37S142.16,88,146.27,88Zm-24.79,0c4.11,0,7.45,3.75,7.45,8.37s-3.33,8.37-7.45,8.37S114,101,114,96.37,117.37,88,121.48,88Zm-17.35,8.37c0,4.62-3.33,8.37-7.45,8.37s-7.45-3.75-7.45-8.37S92.57,88,96.68,88,104.13,91.75,104.13,96.37Z"/><path class="cls-4" d="M91.73,68.5H84.29v8.37C88.4,76.87,91.73,73.13,91.73,68.5Z"/><path class="cls-4" d="M109.08,76.87c4.11,0,7.45-3.75,7.45-8.37H101.63C101.63,73.13,105,76.87,109.08,76.87Z"/><path class="cls-4" d="M133.87,76.87c4.11,0,7.45-3.75,7.45-8.37H126.43C126.43,73.13,129.76,76.87,133.87,76.87Z"/><ellipse class="cls-4" cx="96.68" cy="96.37" rx="7.45" ry="8.37"/><ellipse class="cls-4" cx="121.48" cy="96.37" rx="7.45" ry="8.37"/><ellipse class="cls-4" cx="146.27" cy="96.37" rx="7.45" ry="8.37"/><path class="cls-4" d="M84.29,115.87v8.37h7.45C91.73,119.62,88.4,115.87,84.29,115.87Z"/><path class="cls-4" d="M109.08,115.87c-4.11,0-7.45,3.75-7.45,8.37h14.89C116.53,119.62,113.19,115.87,109.08,115.87Z"/><path class="cls-4" d="M133.87,115.87c-4.11,0-7.45,3.75-7.45,8.37h14.89C141.32,119.62,138,115.87,133.87,115.87Z"/><path class="cls-4" d="M151.22,124.24h7.45v-8.37C154.56,115.87,151.22,119.62,151.22,124.24Z"/><path class="cls-3" d="M84.45,132v39c4.11,0,7.45,3.75,7.45,8.37h9.9c0-4.62,3.33-8.37,7.45-8.37s7.45,3.75,7.45,8.37h9.9c0-4.62,3.33-8.37,7.45-8.37s7.45,3.75,7.45,8.37h9.9c0-4.62,3.33-8.37,7.45-8.37V132c-4.11,0-7.45-3.75-7.45-8.37h-9.9c0,4.62-3.33,8.37-7.45,8.37s-7.45-3.75-7.45-8.37h-9.9c0,4.62-3.33,8.37-7.45,8.37s-7.45-3.75-7.45-8.37h-9.9C91.89,128.26,88.56,132,84.45,132Zm62,11.13c4.11,0,7.45,3.75,7.45,8.37s-3.33,8.37-7.45,8.37S139,156.12,139,151.5,142.32,143.13,146.43,143.13Zm-24.79,0c4.11,0,7.45,3.75,7.45,8.37s-3.33,8.37-7.45,8.37-7.45-3.75-7.45-8.37S117.53,143.13,121.64,143.13Zm-17.35,8.37c0,4.62-3.33,8.37-7.45,8.37s-7.45-3.75-7.45-8.37,3.33-8.37,7.45-8.37S104.29,146.88,104.29,151.5Z"/><path class="cls-4" d="M91.89,123.63H84.45V132C88.56,132,91.89,128.26,91.89,123.63Z"/><path class="cls-4" d="M109.24,132c4.11,0,7.45-3.75,7.45-8.37H101.8C101.8,128.26,105.13,132,109.24,132Z"/><path class="cls-4" d="M134,132c4.11,0,7.45-3.75,7.45-8.37H126.59C126.59,128.26,129.92,132,134,132Z"/><path class="cls-4" d="M158.83,132v-8.37h-7.45C151.38,128.26,154.72,132,158.83,132Z"/><path class="cls-4" d="M158.59,77.63V69.26h-7.45C151.14,73.88,154.47,77.63,158.59,77.63Z"/><ellipse class="cls-4" cx="96.84" cy="151.5" rx="7.45" ry="8.37"/><ellipse class="cls-4" cx="121.64" cy="151.5" rx="7.45" ry="8.37"/><ellipse class="cls-4" cx="146.43" cy="151.5" rx="7.45" ry="8.37"/><path class="cls-4" d="M84.45,171v8.37h7.45C91.89,174.75,88.56,171,84.45,171Z"/><path class="cls-4" d="M109.24,171c-4.11,0-7.45,3.75-7.45,8.37h14.89C116.69,174.75,113.35,171,109.24,171Z"/><path class="cls-4" d="M134,171c-4.11,0-7.45,3.75-7.45,8.37h14.89C141.48,174.75,138.15,171,134,171Z"/><path class="cls-4" d="M151.38,179.37h7.45V171C154.72,171,151.38,174.75,151.38,179.37Z"/><rect class="cls-5" x="6.5" y="6.5" width="152.25" height="177.95" rx="12" ry="12"/><path class="cls-6" d="M53.06,104h63.11s6.61,13.24,0,17.13-59.82,8.75-62.41,5.5S53.06,104,53.06,104Z"/><path class="cls-7" d="M52.09,71.22c-4.25,13.47-1.51,49.47-1,55.54a2.14,2.14,0,0,0,1.05,1.7c2.14,1.22,6.72,2,9.7,2.39,1.42.19,4.8-1.46,4.63-2.89l-9-57.75a2.2,2.2,0,0,0-3.94-1.06l-1.06,1.43A2.18,2.18,0,0,0,52.09,71.22Z"/><path class="cls-8" d="M94.85,121.79c12.81,2.6,14.36,3.58,16.56,6.17s13.84,55.12,13.84,55.12l-8.78.68L113.09,168l-3.85-17.8,3.22,33.61H73.71s.15-30.5-.61-29.36c-.5.74-.62,14.86-.63,15.75,0,5.16-.15,14.09-.15,14.09l-7.69-.21s-1.39-15.22-.69-21.12.63-22.83,1.75-29c1.3-7.18,12.93-10.27,12.93-10.27"/><path class="cls-9" d="M89,137.18l.76-.14a8,8,0,0,0,6-9.4l-3-17a7.77,7.77,0,0,0-8.89-6.55l-.76.14a8,8,0,0,0-6,9.4l3,17A7.77,7.77,0,0,0,89,137.18Z"/><polygon class="cls-10" points="76.18 109.38 92.94 110.58 77.25 114.1 76.18 109.38"/><path class="cls-11" d="M69.1,110.16l29.12.57c6.83.13,12.39-6.62,12.43-15.08L110.8,55c0-8.46-5.48-15.43-12.31-15.56l-29.12-.57C62.54,38.7,57,45.46,56.94,53.92l-.15,40.67C56.76,103.05,62.27,110,69.1,110.16Z"/><ellipse class="cls-12" cx="70.39" cy="72.69" rx="6.06" ry="2.05" transform="translate(-5.19 139.97) rotate(-87.59)"/><path class="cls-9" d="M80.25,74.31c1.47,5.07-4.42,10.77-4.42,10.77-1.16,1.61,10.3,3.59,11.21,0,1.14-4.47-1.32-10.74-2.64-12.74C83.58,71.1,79.64,72.18,80.25,74.31Z"/><path class="cls-10" d="M75.75,85.37c0,1.36,2.49,2.46,5.57,2.46s5.57-1.1,5.57-2.46-2.49-1-5.57-1S75.75,84,75.75,85.37Z"/><ellipse class="cls-9" cx="66.47" cy="82.84" rx="3.85" ry="2.44"/><ellipse class="cls-9" cx="97.5" cy="83.79" rx="3.85" ry="2.44"/><ellipse class="cls-11" cx="83.37" cy="82.1" rx="1.11" ry="0.75"/><path class="cls-13" d="M88.31,64.77c2.84-3.7,9.71-2.62,12.31,2.11a19.28,19.28,0,0,0-10-1.56C86.82,65.71,88.31,64.77,88.31,64.77Z"/><path class="cls-13" d="M75,65.84c-2.77-4.43-9.68-3.92-12.38,1.87a16.92,16.92,0,0,1,10.06-2.1Z"/><path class="cls-9" d="M79.63,50.34c.9,1.36,13.89,8.55,17.31,9.62,1,.31,1.65-1.94.83-2.56L83.37,45.6c-.44-.33-2,.89-2.27,1.36l-1.47,2.41A.91.91,0,0,0,79.63,50.34Z"/><path class="cls-9" d="M90.48,51.63s12.68,11.69,13,13.34,2.2,35.14,2.2,35.14l.78-37.81L90.68,44.77Z"/><path class="cls-14" d="M50,87a33.18,33.18,0,0,1,1.25-12.19c2.45-8.28,4.67-6.66,5.41-2.65a36.67,36.67,0,0,1,0,9.48Z"/><path class="cls-7" d="M83.69,43.66c-.51-15.49-14.81-14.6-24.59-5.94C44,51.07,44.91,76.33,38.44,86.43a1.24,1.24,0,0,0,1.43,1.85C56.1,82.55,83.9,50.25,83.69,43.66Z"/><path class="cls-15" d="M78.62,123.67c-6.06,2.47-8.68,3.73-9.43,5.15-1.67,3.18,12,4.48,12,4.48C79.92,131.58,78.62,123.67,78.62,123.67Z"/><path class="cls-15" d="M94.85,121.79c6.53.39,13.61,3.27,14.77,4.37,2.6,2.47-13.68,4-13.68,4C96.34,128,94.85,121.79,94.85,121.79Z"/><path class="cls-7" d="M99.51,55.5l-.09-.12c-.71-.86-5.4-6.82-3.15-2.83C106.9,71.35,70.42,34.16,71.46,31.4c.09-.24,18.22-13.52,32.36.14,12.3,11.89,11.24,13.56,13.37,23.72s-4,53.59,6.75,68.84a.76.76,0,0,1,.15.45c0,1-1.56,4.1-20.72,2.32a.85.85,0,0,1-.77-.9l3.8-60.12a2.06,2.06,0,0,0-.39-1.34Z"/><path class="cls-15" d="M73.3,147.24c-.2,7.17.41,36.53.41,36.53s14.62-1.38,13.66-7.48C85.84,166.6,73.3,147.24,73.3,147.24Z"/><path class="cls-15" d="M109.24,134.77c-2.1,9.57,0,15.39,0,15.39Z"/><path class="cls-16" d="M113.09,168c2.8,5.32,6.12,14.89,7.64,15.35l-4.25.44Z"/><path class="cls-16" d="M63.74,167.32c2.35,5.53,5.27,16.31,6.74,16.9l-5.86-.16Z"/><path class="cls-12" d="M66.47,71.82c.6,1.64,1.88.79,1.88.79"/><path class="cls-12" d="M66.58,70.12c.6,1.64,1.88.79,1.88.79"/><ellipse class="cls-12" cx="93.67" cy="72.82" rx="2.05" ry="6.06" transform="translate(-2.98 4) rotate(-2.41)"/><path class="cls-12" d="M97.59,72c-.6,1.64-1.88.79-1.88.79"/><path class="cls-12" d="M97.48,70.25c-.6,1.64-1.88.79-1.88.79"/><path class="cls-17" d="M110.8,47.72c-1.59,1.42-6.87,2.32-15.7-4C86.63,37.75,81.93,31,85.47,28c4.19-3.6,13.29-1.68,18.34,3.53C111.36,39.31,116.42,42.73,110.8,47.72Z"/><path class="cls-7" d="M71.46,31.4c2.85,8.77,11.92,14.2,11.92,14.2-1.43-5.41-6-17.59-6-17.59Z"/><path class="cls-18" d="M69.22,93.66c4.48,6.41,18.21,12.21,29.14-.69"/><g class="cls-19"><rect class="cls-20" x="83.23" y="93.33" width="3.53" height="6.5" rx="1.58" ry="1.58"/><rect class="cls-20" x="79.6" y="92.94" width="3.53" height="6.5" rx="1.58" ry="1.58"/><rect class="cls-20" x="76.84" y="92.95" width="2.64" height="4.87" rx="1.19" ry="1.19" transform="translate(-3.94 3.37) rotate(-2.41)"/><path class="cls-20" d="M75.26,97.73h0a1.33,1.33,0,0,1-1.36-1.28l-.07-2.23a1.33,1.33,0,0,1,1.28-1.36h0c.73,0,1.56,1.65,1.58,2.38l-.15,1.13A1.33,1.33,0,0,1,75.26,97.73Z"/><rect class="cls-20" x="89.73" y="92.65" width="2.64" height="4.87" rx="1.19" ry="1.19" transform="translate(-3.91 3.91) rotate(-2.41)"/><rect class="cls-20" x="86.93" y="92.95" width="2.64" height="4.87" rx="1.19" ry="1.19"/></g><circle class="cls-21" cx="90.17" cy="140.67" r="1.05" transform="translate(-73.06 104.96) rotate(-45)"/><circle class="cls-21" cx="90.17" cy="143.87" r="1.05" transform="translate(-75.32 105.9) rotate(-45)"/><circle class="cls-21" cx="90.34" cy="147.24" r="1.05" transform="translate(-77.66 107.01) rotate(-45)"/></svg>