<svg id="Layer_1" data-name="Layer 1" xmlns="http://www.w3.org/2000/svg" viewBox="0 0 165.25 190.95"><defs><style>.cls-1{fill:#d6abb9;}.cls-2{fill:#5966a7;}.cls-3,.cls-4{fill:#ececec;}.cls-3{opacity:0.33;}.cls-5{fill:#3c4253;}.cls-6{fill:#9375a0;}.cls-14,.cls-15,.cls-20,.cls-22,.cls-23,.cls-24,.cls-7,.cls-8{fill:none;}.cls-8{stroke:#fff;stroke-width:13px;}.cls-14,.cls-15,.cls-16,.cls-17,.cls-20,.cls-22,.cls-23,.cls-24,.cls-25,.cls-26,.cls-8{stroke-miterlimit:10;}.cls-9{fill:#e05166;}.cls-10{fill:#dd8c68;}.cls-11{fill:#a85f42;}.cls-12{fill:#5ebbc2;}.cls-13{fill:#e5a980;}.cls-14{stroke:#000;}.cls-15{stroke:#e5745a;stroke-width:4px;}.cls-15,.cls-22{stroke-linecap:round;}.cls-16,.cls-17,.cls-18{fill:#f2f2e4;}.cls-16,.cls-25,.cls-26{stroke:#630;}.cls-16,.cls-17{stroke-width:0.75px;}.cls-17{stroke:#633;}.cls-19{fill:#999;}.cls-20{stroke:#999;stroke-width:0.5px;}.cls-21,.cls-25{fill:#630;}.cls-22{stroke:#850fed;}.cls-22,.cls-23{stroke-width:2px;}.cls-23{stroke:#5d09b5;}.cls-24{stroke:#e5e0dc;}.cls-26{fill:#512702;}.cls-27{fill:#c94c64;}.cls-28{fill:#933;}.cls-29{fill:#f93;}</style></defs><title>braces</title><polygon class="cls-1" points="145.34 67.47 160.15 75.88 160.15 42.24 145.34 50.65 145.34 67.47"/><polygon class="cls-2" points="145.34 106.1 145.34 122.92 160.15 131.32 160.15 97.69 145.34 106.1"/><polyline class="cls-3" points="157.84 13.69 148.88 19.19 139.93 13.69 133.6 13.69 147.3 22.1 147.3 38.92 133.6 47.33 119.9 38.92 119.9 22.1 133.6 13.69 127.28 13.69 118.32 19.19 109.37 13.69 103.04 13.69 116.74 22.1 116.74 38.92 103.04 47.33 89.34 38.92 89.34 22.1 103.04 13.69 96.71 13.69 87.76 19.19 78.8 13.69 72.47 13.69 86.17 22.1 86.17 38.92 72.47 47.33 58.77 38.92 58.77 22.1 72.47 13.69 66.14 13.69 57.19 19.19 48.24 13.69 41.91 13.69 55.61 22.1 55.61 38.92 41.91 47.33 28.21 38.92 28.21 22.1 41.91 13.69 35.58 13.69 26.63 19.19 17.67 13.69 11.34 13.69 25.04 22.1 25.04 38.92 11.34 47.33 11.34 69.97 25.04 78.38 25.04 95.19 11.34 103.6 11.34 126.24 25.04 134.65 25.04 151.47 11.34 159.88 11.34 182.52 17.67 182.52 12.93 179.61 12.93 162.79 26.63 154.38 40.33 162.79 40.33 179.61 35.58 182.52 48.24 182.52 43.49 179.61 43.49 162.79 57.19 154.38 70.89 162.79 70.89 179.61 66.14 182.52 78.8 182.52 74.06 179.61 74.06 162.79 87.76 154.38 101.46 162.79 101.46 179.61 96.71 182.52 109.37 182.52 104.62 179.61 104.62 162.79 118.32 154.38 132.02 162.79 132.02 179.61 127.28 182.52 139.93 182.52 135.19 179.61 135.19 162.79 148.88 154.38 162.59 162.79"/><polygon class="cls-4" points="13.05 123.33 13.05 106.51 27.86 98.11 42.66 106.51 42.66 123.33 27.86 131.74 13.05 123.33"/><polygon class="cls-4" points="59.17 151.47 44.37 159.88 29.57 151.47 29.57 134.65 44.37 126.24 59.17 134.65 59.17 151.47"/><polygon class="cls-4" points="46.08 123.33 46.08 106.51 60.88 98.11 75.68 106.51 75.68 123.33 60.88 131.74 46.08 123.33"/><polygon class="cls-4" points="92.19 151.47 77.39 159.88 62.59 151.47 62.59 134.65 77.39 126.24 92.19 134.65 92.19 151.47"/><polygon class="cls-4" points="79.1 123.33 79.1 106.51 93.91 98.11 108.71 106.51 108.71 123.33 93.91 131.74 79.1 123.33"/><polygon class="cls-4" points="125.22 151.47 110.42 159.88 95.61 151.47 95.61 134.65 110.42 126.24 125.22 134.65 125.22 151.47"/><polygon class="cls-4" points="112.13 123.33 112.13 106.51 126.93 98.11 141.73 106.51 141.73 123.33 126.93 131.74 112.13 123.33"/><polygon class="cls-4" points="158.24 151.47 143.44 159.88 128.64 151.47 128.64 134.65 143.44 126.24 158.24 134.65 158.24 151.47"/><polygon class="cls-4" points="158.24 78.38 158.24 95.19 143.44 103.6 128.64 95.19 128.64 78.38 143.44 69.97 158.24 78.38"/><polygon class="cls-4" points="112.13 50.24 126.93 41.83 141.73 50.24 141.73 67.06 126.93 75.46 112.13 67.06 112.13 50.24"/><polygon class="cls-4" points="125.22 78.38 125.22 95.19 110.42 103.6 95.61 95.19 95.61 78.38 110.42 69.97 125.22 78.38"/><polygon class="cls-4" points="79.1 50.24 93.91 41.83 108.71 50.24 108.71 67.06 93.91 75.46 79.1 67.06 79.1 50.24"/><polygon class="cls-4" points="92.19 78.38 92.19 95.19 77.39 103.6 62.59 95.19 62.59 78.38 77.39 69.97 92.19 78.38"/><polygon class="cls-4" points="46.08 50.24 60.88 41.83 75.68 50.24 75.68 67.06 60.88 75.46 46.08 67.06 46.08 50.24"/><polygon class="cls-4" points="59.17 78.38 59.17 95.19 44.37 103.6 29.57 95.19 29.57 78.38 44.37 69.97 59.17 78.38"/><polygon class="cls-4" points="42.66 50.24 42.66 67.06 27.86 75.46 13.05 67.06 13.05 50.24 27.86 41.83 42.66 50.24"/><polygon class="cls-1" points="37.53 13.69 18.18 13.69 27.86 19.19 37.53 13.69"/><polygon class="cls-5" points="70.56 13.69 51.2 13.69 60.88 19.19 70.56 13.69"/><polygon class="cls-6" points="103.58 13.69 84.23 13.69 93.91 19.19 103.58 13.69"/><polygon class="cls-2" points="136.6 13.69 117.25 13.69 126.93 19.19 136.6 13.69"/><polygon class="cls-2" points="26.15 38.92 26.15 22.1 11.34 13.69 11.34 47.33 26.15 38.92"/><polygon class="cls-1" points="29.57 38.92 44.37 47.33 59.17 38.92 59.17 22.1 44.37 13.69 29.57 22.1 29.57 38.92"/><polygon class="cls-2" points="62.59 38.92 77.39 47.33 92.19 38.92 92.19 22.1 77.39 13.69 62.59 22.1 62.59 38.92"/><polygon class="cls-5" points="95.61 38.92 110.42 47.33 125.22 38.92 125.22 22.1 110.42 13.69 95.61 22.1 95.61 38.92"/><polygon class="cls-2" points="128.64 38.92 143.44 47.33 158.24 38.92 158.24 22.1 143.44 13.69 128.64 22.1 128.64 38.92"/><polygon class="cls-6" points="13.05 67.06 27.86 75.46 42.66 67.06 42.66 50.24 27.86 41.83 13.05 50.24 13.05 67.06"/><polygon class="cls-5" points="75.68 67.06 75.68 50.24 60.88 41.83 46.08 50.24 46.08 67.06 60.88 75.46 75.68 67.06"/><polygon class="cls-2" points="108.71 67.06 108.71 50.24 93.91 41.83 79.1 50.24 79.1 67.06 93.91 75.46 108.71 67.06"/><polygon class="cls-6" points="141.73 67.06 141.73 50.24 126.93 41.83 112.13 50.24 112.13 67.06 126.93 75.46 141.73 67.06"/><polygon class="cls-2" points="26.15 78.38 11.34 69.97 11.34 103.6 26.15 95.19 26.15 78.38"/><polygon class="cls-6" points="29.57 95.19 44.37 103.6 59.17 95.19 59.17 78.38 44.37 69.97 29.57 78.38 29.57 95.19"/><polygon class="cls-2" points="62.59 95.19 77.39 103.6 92.19 95.19 92.19 78.38 77.39 69.97 62.59 78.38 62.59 95.19"/><polygon class="cls-2" points="95.61 95.19 110.42 103.6 125.22 95.19 125.22 78.38 110.42 69.97 95.61 78.38 95.61 95.19"/><polygon class="cls-5" points="128.64 95.19 143.44 103.6 158.24 95.19 158.24 78.38 143.44 69.97 128.64 78.38 128.64 95.19"/><polygon class="cls-1" points="42.66 106.51 27.86 98.11 13.05 106.51 13.05 123.33 27.86 131.74 42.66 123.33 42.66 106.51"/><polygon class="cls-5" points="75.68 106.51 60.88 98.11 46.08 106.51 46.08 123.33 60.88 131.74 75.68 123.33 75.68 106.51"/><polygon class="cls-6" points="108.71 106.51 93.91 98.11 79.1 106.51 79.1 123.33 93.91 131.74 108.71 123.33 108.71 106.51"/><polygon class="cls-1" points="141.73 106.51 126.93 98.11 112.13 106.51 112.13 123.33 126.93 131.74 141.73 123.33 141.73 106.51"/><polygon class="cls-1" points="26.15 134.65 11.34 126.24 11.34 159.88 26.15 151.47 26.15 134.65"/><polygon class="cls-2" points="29.57 134.65 29.57 151.47 44.37 159.88 59.17 151.47 59.17 134.65 44.37 126.24 29.57 134.65"/><polygon class="cls-1" points="62.59 134.65 62.59 151.47 77.39 159.88 92.19 151.47 92.19 134.65 77.39 126.24 62.59 134.65"/><polygon class="cls-6" points="95.61 134.65 95.61 151.47 110.42 159.88 125.22 151.47 125.22 134.65 110.42 126.24 95.61 134.65"/><polygon class="cls-1" points="128.64 134.65 128.64 151.47 143.44 159.88 158.24 151.47 158.24 134.65 143.44 126.24 128.64 134.65"/><polygon class="cls-1" points="42.66 162.79 27.86 154.38 13.05 162.79 13.05 179.61 18.18 182.52 37.53 182.52 42.66 179.61 42.66 162.79"/><polygon class="cls-5" points="75.68 162.79 60.88 154.38 46.08 162.79 46.08 179.61 51.2 182.52 70.56 182.52 75.68 179.61 75.68 162.79"/><polygon class="cls-6" points="108.71 162.79 93.91 154.38 79.1 162.79 79.1 179.61 84.23 182.52 103.58 182.52 108.71 179.61 108.71 162.79"/><polygon class="cls-2" points="141.73 162.79 126.93 154.38 112.13 162.79 112.13 179.61 117.25 182.52 136.6 182.52 141.73 179.61 141.73 162.79"/><polyline class="cls-7" points="44.21 172.01 60.66 180.52 60.75 180.52 44.21 171.96"/><polygon class="cls-7" points="103.56 180.52 103.64 180.52 120.09 172.01 136.53 180.52 136.62 180.52 120.09 171.96 103.56 180.52"/><rect class="cls-8" x="6.5" y="6.5" width="152.25" height="177.95" rx="12" ry="12"/><polygon class="cls-7" points="103.64 2.57 103.56 2.57 82.15 13.65 60.75 2.57 60.66 2.57 82.15 13.69 103.64 2.57"/><path class="cls-9" d="M92.77,117.62c13.56,2.75,20.88,7.24,23.21,10s20.19,54.59,20.19,54.59h-7.85l-5.51-14.7-10.85-21.15,2.92,35.88H70.39s3.5-18,2.21-23.88c-.81-3.65-2-8.4-2.85-7.2a6.58,6.58,0,0,0-1,2.63c-.8,4.89-5.14,28.33-5.14,28.33l-10.12.19S59.3,166.42,60,160.17s-2.64-20.82-1.4-27.32,16.94-14.22,16.94-14.22"/><path class="cls-10" d="M86.57,132.92l.8-.15a8.47,8.47,0,0,0,6.4-10l-3.2-17.94a8.23,8.23,0,0,0-9.41-6.93l-.8.15A8.47,8.47,0,0,0,74,108L77.16,126A8.23,8.23,0,0,0,86.57,132.92Z"/><path class="cls-10" d="M71.64,125.06c-2.93,4.88,6.73,8.52,14.07,7.88s15.82-6.42,12.51-10.18S91.33,120.56,84,121.2,74.85,119.71,71.64,125.06Z"/><polygon class="cls-11" points="72.84 103.8 90.58 105.06 73.97 108.8 72.84 103.8"/><line class="cls-12" x1="60.66" y1="180.52" x2="44.21" y2="172.01"/><path class="cls-13" d="M59.42,104.16l36.63.61c8.6.14,15.57-5.75,15.57-13.17l0-35.64c0-7.42-7-13.54-15.55-13.69l-36.63-.61c-8.6-.14-15.57,5.75-15.57,13.17l0,35.64C43.86,97.89,50.83,104,59.42,104.16Z"/><path class="cls-14" d="M108.17,81.07"/><path class="cls-14" d="M122.06,64.88"/><path class="cls-15" d="M136.75,174.48"/><path class="cls-16" d="M49,69.8c-2.45-6,10.88-7.25,11.25-.87"/><path class="cls-10" d="M67.25,67c1.55,5.36-4.68,11.4-4.68,11.4-1.23,1.71,10.9,3.8,11.86,0,1.2-4.73-1.4-11.37-2.8-13.49C70.77,63.57,66.6,64.72,67.25,67Z"/><path class="cls-17" d="M92.35,68.08C90.4,62,79.08,64.77,80.82,69.89"/><path class="cls-11" d="M62.55,78.6c0,1.44,2.64,2.6,5.89,2.6s5.89-1.17,5.89-2.6-2.64-1-5.89-1S62.55,77.16,62.55,78.6Z"/><path class="cls-18" d="M84.37,84.55c5.25-1.37,6.31,6.36.56,9.05s-22.9,2.2-25.59.32c-3.12-2.18-3.56-7.25-.71-8.37a4.82,4.82,0,0,1,1.17-.28c3.3-.41,9.18,1.16,13,.94A80.44,80.44,0,0,0,84.37,84.55Z"/><path class="cls-19" d="M33.22,78.55"/><line class="cls-20" x1="67.02" y1="89.63" x2="63.66" y2="89.92"/><line class="cls-20" x1="65.47" y1="88.05" x2="65.59" y2="91.3"/><line class="cls-20" x1="62.58" y1="88.65" x2="59.22" y2="88.94"/><line class="cls-20" x1="61.02" y1="87.06" x2="61.15" y2="90.31"/><line class="cls-20" x1="71.33" y1="89.8" x2="67.97" y2="90.09"/><line class="cls-20" x1="69.77" y1="88.21" x2="69.9" y2="91.46"/><line class="cls-20" x1="76.03" y1="89.8" x2="72.67" y2="90.09"/><line class="cls-20" x1="74.48" y1="88.21" x2="74.6" y2="91.46"/><line class="cls-20" x1="80.58" y1="89.54" x2="77.22" y2="89.83"/><line class="cls-20" x1="79.02" y1="87.95" x2="79.15" y2="91.2"/><line class="cls-20" x1="85.3" y1="88.42" x2="81.94" y2="88.71"/><line class="cls-20" x1="83.74" y1="86.83" x2="83.87" y2="90.08"/><ellipse class="cls-10" cx="53.34" cy="75.3" rx="8.56" ry="5.75"/><ellipse class="cls-10" cx="88.8" cy="75.3" rx="8.56" ry="5.75"/><path class="cls-10" d="M111.66,67.87c6.55-11.6,24.22-4.57,0,11.73"/><circle cx="57.13" cy="67.57" r="2.64" transform="translate(-11.39 11.59) rotate(-10.54)"/><circle cx="89.13" cy="67.68" r="2.64" transform="translate(-10.87 17.44) rotate(-10.54)"/><path class="cls-10" d="M43.89,63.55C56.22,63.3,89.84,50.67,93.72,45S55.09,57.3,55.09,57.3L43.87,58.42Z"/><path class="cls-10" d="M93.72,45c.38,3.13-1.67,2.17-.86,7.5.14.94,2.6,4.75,5.67,5.5s6.32.91,5.57,4.08,2.25,6.52,7,7.59,1.13-4.05,1.13-4.05l-12.5-23-6.86-1.49Z"/><path class="cls-11" d="M111.66,73.61c1.55-5.06,12.63-13.28,10-5.57C119.2,66.64,111.66,73.61,111.66,73.61Z"/><path class="cls-21" d="M84.32,56.47c4-3.81,10.7-.5,12,6.15,0,0-4.35-6.39-9.76-4.81C82.63,59,84.32,56.47,84.32,56.47Z"/><polyline class="cls-22" points="96.84 67.97 110.55 66.46 96.41 66.42"/><path class="cls-22" d="M63.55,70.55c0-4.55,9.87-4.23,10.09,0"/><rect class="cls-23" x="40.77" y="61.67" width="22.77" height="16.29" rx="8.15" ry="8.15"/><ellipse class="cls-24" cx="58.36" cy="67" rx="0.46" ry="0.57"/><ellipse class="cls-24" cx="90.82" cy="67.2" rx="0.46" ry="0.57"/><rect class="cls-23" x="73.64" y="61.65" width="22.77" height="16.29" rx="8.15" ry="8.15"/><path class="cls-25" d="M41.76,59C34.25,59.17,34.07,44,34.07,44c-5-3-2.13-12.08.44-13s3.11,3.91,3.11,3.91c-3.77-13-2.19-13.1-.13-12.15s2.74,3.62,2.74,3.62c.17-9.34,2.05-13.53,3.42-13.34s5.48,4.76,6.16,7.81c0,0-.26-5.35,1.93-7.82S55,20.49,55,20.49C57.69,9.06,60.27,8.11,60.27,8.11s2.7-2,4.56-.25c1.31,1.24,4.43,5.2,4.43,5.2s1.44-3.62,3.15-5,4.21,3,4.16,5.15c0,0-.12-1,2.19-2.67s6.19,1.15,6.19,1.15c.86-6.67,5.26-1.91,5.26-1.91S95.69,12.49,95,20.69c0,0,.8-6.67,2.88-7.81s6.38,4,5.26,12.58c0,0,2.13-6.1,3.67-6.48s5.19,2.61,4.57,14.46c0,0,8.27-.35,5.36,12.13,0,0,.68-2.87,3.08-3.49s1.3,8-2.09,14.44c0,0,3.14-2.86,4.32-2.48s-10.39,12.83-10.39,12.83-4.85,1.27-5.36-5.21c0,0,.86-4.57-1.2-5.53s-10.5-3-10.1-8.2-1-7.05-1-7.05S66.46,58.42,41.76,59Z"/><path class="cls-26" d="M101.82,32.3c0,1.38,2.63,9.85-29,20.74s-33.67,7.22-33.38,2.36c4.41,5.73,28.71-3.37,33.3-5A83.93,83.93,0,0,0,101.82,32.3Z"/><path class="cls-27" d="M69.85,149.86c.8-8.82,38,30.65,41,31.81H70.56C75.88,157.46,69.6,152.63,69.85,149.86Z"/><path class="cls-27" d="M60.4,158.73c-.89,4-6.75,23-6.75,23l3-.09A148.13,148.13,0,0,0,60.4,158.73Z"/><path class="cls-28" d="M58,92.64S82.62,96,88.8,89.79c-2.71,5.68-9.72,5.35-16,5.68C58.36,96.23,58,92.64,58,92.64Z"/><path class="cls-28" d="M71.47,84.86c3.31-.12,12.91-.31,12.91-.31-4.28,1.44-8.18,1.56-12.1,1.68-3.68.11-12.49-1-12.49-1Z"/><path class="cls-27" d="M112.11,145.79c-2.23-6.17-.45-14.64-.45-14.64,3.22,12.31,3.53,19.91,5.07,22.9S112.11,145.79,112.11,145.79Z"/><path class="cls-27" d="M76.05,119.75c-4.89,3-5.79,5.84-4.87,7.75a6.26,6.26,0,0,1,5.16-6.14Z"/><path class="cls-27" d="M93.25,118.95c2.77.22,5.65,2.56,5.5,4.67a7,7,0,0,0-5.42-3.31Z"/><polygon class="cls-29" points="93.41 162.99 88.87 159.89 83.66 162.93 85.31 156.44 81.87 151.81 87.42 150.9 90.51 145.01 92.3 150.93 97.64 151.92 93.19 156.49 93.41 162.99"/><polygon class="cls-2" points="145.84 176.01 153.11 158.07 144.38 164.98 145.84 176.01"/></svg>