<?xml version="1.0" encoding="iso-8859-1"?>
<!-- Generator: Adobe Illustrator 19.0.0, SVG Export Plug-In . SVG Version: 6.00 Build 0)  -->
<svg version="1.1" id="Layer_1" xmlns="http://www.w3.org/2000/svg" xmlns:xlink="http://www.w3.org/1999/xlink" x="0px" y="0px"
	 viewBox="0 0 512 512" style="enable-background:new 0 0 512 512;" xml:space="preserve">
<g>
	<g>
		<g>
			<path d="M202.105,80.842c4.466,0,8.084-3.618,8.084-8.084c0-4.466-3.618-8.084-8.084-8.084h-1.078
				c-4.466,0-8.084,3.618-8.084,8.084c0,4.466,3.618,8.084,8.084,8.084H202.105z"/>
			<path d="M61.979,145.516h280.253c4.466,0,8.084-3.618,8.084-8.084c0-4.466-3.618-8.084-8.084-8.084H61.979
				c-4.466,0-8.084,3.619-8.084,8.084C53.895,141.897,57.513,145.516,61.979,145.516z"/>
			<path d="M192.943,363.789c0,4.466,3.618,8.084,8.084,8.084h1.078c4.466,0,8.084-3.618,8.084-8.084
				c0-4.466-3.618-8.084-8.084-8.084h-1.078C196.562,355.705,192.943,359.324,192.943,363.789z"/>
			<path d="M180.547,226.358H72.758c-10.401,0-18.863,8.463-18.863,18.863v32.337c0,10.401,8.463,18.863,18.863,18.863h107.789
				c10.401,0,18.863-8.463,18.863-18.863v-32.337C199.411,234.82,190.948,226.358,180.547,226.358z M183.242,277.558
				c0,1.486-1.208,2.695-2.695,2.695H72.758c-1.486,0-2.695-1.208-2.695-2.695v-32.337c0-1.486,1.208-2.695,2.695-2.695h107.789
				c1.486,0,2.695,1.208,2.695,2.695V277.558z"/>
			<path d="M177.853,363.789c0-4.466-3.619-8.084-8.084-8.084H61.979c-4.466,0-8.084,3.618-8.084,8.084
				c0,4.466,3.618,8.084,8.084,8.084h107.789C174.234,371.874,177.853,368.255,177.853,363.789z"/>
			<path d="M223.663,463.495H29.642c-7.43,0-13.474-6.044-13.474-13.474V29.642c0-7.43,6.044-13.474,13.474-13.474h355.705
				c7.43,0,13.474,6.044,13.474,13.474v150.905c0,4.466,3.618,8.084,8.084,8.084c4.466,0,8.084-3.618,8.084-8.084V29.642
				C414.989,13.298,401.691,0,385.347,0H29.642C13.298,0,0,13.298,0,29.642v420.379c0,16.344,13.298,29.642,29.642,29.642h194.021
				c4.466,0,8.084-3.618,8.084-8.084C231.747,467.113,228.129,463.495,223.663,463.495z"/>
			<path d="M61.979,80.842h107.789c4.466,0,8.084-3.618,8.084-8.084c0-4.466-3.619-8.084-8.084-8.084H61.979
				c-4.466,0-8.084,3.618-8.084,8.084C53.895,77.224,57.513,80.842,61.979,80.842z"/>
			<path d="M460.8,334.147h-21.558c-10.401,0-18.863,8.463-18.863,18.863v21.558c0,10.401,8.463,18.863,18.863,18.863H460.8
				c10.401,0,18.863-8.463,18.863-18.863V353.01C479.663,342.61,471.201,334.147,460.8,334.147z M463.495,374.568
				c0,1.486-1.208,2.695-2.695,2.695h-21.558c-1.486,0-2.695-1.208-2.695-2.695V353.01c0-1.486,1.208-2.695,2.695-2.695H460.8
				c1.486,0,2.695,1.208,2.695,2.695V374.568z"/>
			<path d="M460.8,409.6h-86.232c-10.401,0-18.863,8.463-18.863,18.863v21.558c0,10.401,8.463,18.863,18.863,18.863H460.8
				c10.401,0,18.863-8.463,18.863-18.863v-21.558C479.663,418.063,471.201,409.6,460.8,409.6z M463.495,450.021
				c0,1.486-1.208,2.695-2.695,2.695h-86.232c-1.486,0-2.695-1.208-2.695-2.695v-21.558c0-1.486,1.208-2.695,2.695-2.695H460.8
				c1.486,0,2.695,1.208,2.695,2.695V450.021z"/>
			<path d="M450.021,247.916H309.895c-16.344,0-29.642,13.298-29.642,29.642s13.298,29.642,29.642,29.642h140.126
				c16.344,0,29.642-13.298,29.642-29.642S466.365,247.916,450.021,247.916z M450.021,291.032H309.895
				c-7.43,0-13.474-6.044-13.474-13.474s6.044-13.474,13.474-13.474h140.126c7.43,0,13.474,6.044,13.474,13.474
				S457.451,291.032,450.021,291.032z"/>
			<path d="M460.8,204.8H299.116c-28.231,0-51.2,22.969-51.2,51.2v204.8c0,28.231,22.969,51.2,51.2,51.2H460.8
				c28.231,0,51.2-22.969,51.2-51.2V256C512,227.769,489.031,204.8,460.8,204.8z M495.832,460.8
				c0,19.317-15.715,35.032-35.032,35.032H299.116c-19.317,0-35.032-15.715-35.032-35.032V256c0-19.317,15.715-35.032,35.032-35.032
				H460.8c19.317,0,35.032,15.715,35.032,35.032V460.8z"/>
			<path d="M234.442,172.463H61.979c-4.466,0-8.084,3.619-8.084,8.084c0,4.466,3.618,8.084,8.084,8.084h172.463
				c4.466,0,8.084-3.618,8.084-8.084C242.526,176.082,238.908,172.463,234.442,172.463z"/>
			<path d="M61.979,398.821c-4.466,0-8.084,3.618-8.084,8.084c0,4.466,3.618,8.084,8.084,8.084h64.674
				c4.466,0,8.084-3.618,8.084-8.084c0-4.466-3.619-8.084-8.084-8.084H61.979z"/>
			<path d="M299.116,393.432h86.232c10.401,0,18.863-8.463,18.863-18.863V353.01c0-10.401-8.463-18.863-18.863-18.863h-86.232
				c-10.401,0-18.863,8.463-18.863,18.863v21.558C280.253,384.969,288.715,393.432,299.116,393.432z M296.421,353.01
				c0-1.486,1.208-2.695,2.695-2.695h86.232c1.486,0,2.695,1.208,2.695,2.695v21.558c0,1.486-1.208,2.695-2.695,2.695h-86.232
				c-1.486,0-2.695-1.208-2.695-2.695V353.01z"/>
			<path d="M320.674,409.6h-21.558c-10.401,0-18.863,8.463-18.863,18.863v21.558c0,10.401,8.463,18.863,18.863,18.863h21.558
				c10.401,0,18.863-8.463,18.863-18.863v-21.558C339.537,418.063,331.074,409.6,320.674,409.6z M323.368,450.021
				c0,1.486-1.208,2.695-2.695,2.695h-21.558c-1.486,0-2.695-1.208-2.695-2.695v-21.558c0-1.486,1.208-2.695,2.695-2.695h21.558
				c1.486,0,2.695,1.208,2.695,2.695V450.021z"/>
		</g>
	</g>
</g>
<g>
</g>
<g>
</g>
<g>
</g>
<g>
</g>
<g>
</g>
<g>
</g>
<g>
</g>
<g>
</g>
<g>
</g>
<g>
</g>
<g>
</g>
<g>
</g>
<g>
</g>
<g>
</g>
<g>
</g>
</svg>
