<svg id="Capa_1" data-name="Capa 1" xmlns="http://www.w3.org/2000/svg" viewBox="0 0 1096 710.39"><defs><style>.cls-1{fill:#ded6c6;}.cls-2{fill:#666;opacity:0.65;}.cls-3,.cls-4{fill:#09f;}.cls-4{isolation:isolate;font-size:145.45px;font-family:BonbonOrnamentsBold, Bonbon Ornaments Bold;}</style></defs><title>Artboard 1</title><rect class="cls-1" width="1096" height="710.39"/><path class="cls-2" d="M267.14,171.42q0-6.15-4.23-6.15a6.83,6.83,0,0,0-1.75.17,12.53,12.53,0,0,1-2.24.25,2.38,2.38,0,0,1-1.83-.79,2.72,2.72,0,0,1-.75-2q0-2.91,3.48-2.91l1.24.08q12.42.79,11.59.79h.79l20-.58q.58,0,4.31-.25Q299,160,300.1,160q4.31,0,4.31,3.82,0,.67-.24,4.23-.18,2.66-.17,4.9a39.67,39.67,0,0,0,.14,4.07,34.69,34.69,0,0,1,.28,3.57q0,3.18-2.95,3.18t-2.95-4.4V175q0-7-2.91-8.22-2.16-.91-11.12-.91a51.13,51.13,0,0,0-7,.25q-3.57.91-3.57,5v8.33q0,3.32,1.48,3.82a7.94,7.94,0,0,0,2,.17h3.36q5.16,0,5.16-3.57a20.79,20.79,0,0,0-.21-2.57,21.8,21.8,0,0,1-.21-2.83q0-3.32,2.95-3.32t2.95,3.57q0,.67-.54,5.15a57.19,57.19,0,0,0-.46,6.73q0,1.66.33,5.9.08.67.41,2.91a22.72,22.72,0,0,1,.25,2.91,2.65,2.65,0,0,1-3,3q-3,0-2.91-3.49a24.28,24.28,0,0,1,.21-2.66,24.63,24.63,0,0,0,.21-2.66q0-3.57-4.77-3.57h-3.65q-2.38,0-2.95.79t-.54,3.57v5.15q0,1.33.08,3.57.08,2.74.08,3.65.08,3.32,1.33,4.15.91.58,4.32.58h11.3q4.9,0,6.73-1.45t1.83-5.44q0-1.25-.13-3.69t-.13-3.69q0-3.74,2.95-3.74,3.11,0,3.11,3.82,0,1.49-.13,4.57t-.13,4.57q0,1.17.13,3.45t.13,3.45q0,3.91-3.82,3.91-.91,0-2.91-.17-1-.09-3.65-.08l-6.48-.17q-7.06-.17-12.21-.17-7.81,0-15.28.5a3.81,3.81,0,0,0-.75.08h-.5q-3.49,0-3.49-3,0-2.66,2.57-2.66.41,0,2.24.17a6.63,6.63,0,0,0,1.75.25q4.23,0,4.23-6.23Z"/><path class="cls-2" d="M326.56,176.64v2.66a14.82,14.82,0,0,1,12.71-6.48q8.31,0,13.21,5.74t4.9,15.54q0,10.55-5.2,16.83a17.14,17.14,0,0,1-13.92,6.28,14.9,14.9,0,0,1-11.72-5.07V219a29.72,29.72,0,0,0,.17,4.07q.5,2.57,2.38,2.57a9.19,9.19,0,0,0,1.75-.25,9.18,9.18,0,0,1,1.75-.25q2.66,0,2.66,2.74t-3.48,2.74a31,31,0,0,1-3.73-.33,43.87,43.87,0,0,0-5.47-.25,27.17,27.17,0,0,0-3.31.17q-3.31.41-4.38.41a3.55,3.55,0,0,1-2.38-.86,2.59,2.59,0,0,1-1-2q0-2.62,2.8-2.62a9,9,0,0,1,1.59.21,11.57,11.57,0,0,0,2.06.29,1.84,1.84,0,0,0,1.93-1.59,62.37,62.37,0,0,0,.45-9V183q-.08-3.82-2.14-3.82a8.37,8.37,0,0,0-1.77.29,8.37,8.37,0,0,1-1.85.29q-3,0-3-2.74t3.65-2.66q.91,0,2,.08,2.07.17,3.07.17.75,0,2.16-.13t2.07-.13Q326.56,174.32,326.56,176.64Zm1.25,10.14a38.7,38.7,0,0,0-.79,7.9,9,9,0,0,1-.08,1.25v1.16a26,26,0,0,0,.91,8.1,9.86,9.86,0,0,0,3.61,4.53,12.09,12.09,0,0,0,16-2.37q3.28-4.36,3.28-12.42,0-16.62-11.8-16.62a11.3,11.3,0,0,0-7.1,2.38A10.41,10.41,0,0,0,327.81,186.78Z"/><path class="cls-2" d="M376.41,176.64v2.66a14.82,14.82,0,0,1,12.71-6.48q8.31,0,13.21,5.74t4.9,15.54q0,10.55-5.2,16.83a17.14,17.14,0,0,1-13.92,6.28,14.9,14.9,0,0,1-11.72-5.07V219a29.72,29.72,0,0,0,.17,4.07q.5,2.57,2.38,2.57a9.19,9.19,0,0,0,1.75-.25,9.18,9.18,0,0,1,1.75-.25q2.66,0,2.66,2.74t-3.48,2.74a31,31,0,0,1-3.73-.33,43.87,43.87,0,0,0-5.47-.25,27.18,27.18,0,0,0-3.31.17q-3.31.41-4.38.41a3.55,3.55,0,0,1-2.38-.86,2.59,2.59,0,0,1-1-2q0-2.62,2.8-2.62a9,9,0,0,1,1.59.21,11.57,11.57,0,0,0,2.06.29,1.84,1.84,0,0,0,1.94-1.59,62.37,62.37,0,0,0,.45-9V183q-.1-3.81-2.17-3.81a8.37,8.37,0,0,0-1.77.29,8.37,8.37,0,0,1-1.85.29q-3,0-3-2.74t3.65-2.66q.91,0,2,.08,2.07.17,3.07.17.75,0,2.16-.13t2.07-.13Q376.4,174.32,376.41,176.64Zm1.25,10.14a38.68,38.68,0,0,0-.79,7.9,9,9,0,0,1-.08,1.25v1.16a26,26,0,0,0,.91,8.1,9.86,9.86,0,0,0,3.61,4.53,12.09,12.09,0,0,0,16-2.37q3.28-4.36,3.28-12.42,0-16.62-11.8-16.62a11.3,11.3,0,0,0-7.1,2.38A10.41,10.41,0,0,0,377.66,186.78Z"/><path class="cls-2" d="M451.26,191.35a10.15,10.15,0,0,1-.41,3.86q-.41.68-2.38.71H422a2.32,2.32,0,0,0-1.41.29,1.21,1.21,0,0,0-.33,1A14.94,14.94,0,0,0,424,207.55a12.38,12.38,0,0,0,16,2.16,9.12,9.12,0,0,0,4-5.07l.75-2.38a2.57,2.57,0,0,1,2.74-2q3.07,0,3.07,3.18,0,5.4-5.48,9.6a20,20,0,0,1-12.46,4.19q-8.74,0-13.88-5.85t-5.15-15.74q0-10.14,5.48-16.45a18,18,0,0,1,14.3-6.32,17.16,17.16,0,0,1,12.88,5.23A18.3,18.3,0,0,1,451.26,191.35Zm-30.19-2.16q0,1.17,1.83,1.16h19.86q1.75,0,1.75-1.16a10.33,10.33,0,0,0-3.32-7.64,10.83,10.83,0,0,0-7.81-3.24,12.53,12.53,0,0,0-8.48,3.37q-3.8,3.36-3.8,7.51Z"/><path class="cls-2" d="M470,176.6v2.28a14.47,14.47,0,0,1,21-2.8,10.88,10.88,0,0,1,3.61,8.44,9.22,9.22,0,0,1-1.83,5.94,5.87,5.87,0,0,1-4.82,2.29,4.77,4.77,0,0,1-3.24-1.16,3.61,3.61,0,0,1-1.33-2.83,3.33,3.33,0,0,1,1-2.38,3.13,3.13,0,0,1,2.33-1,5.07,5.07,0,0,1,1.08.25,4.13,4.13,0,0,0,.5-1.83,5,5,0,0,0-2.12-4.07,8.29,8.29,0,0,0-5.27-1.66q-6.48,0-8.64,5.81-1.33,3.57-1.33,10.8v5.48q0,5.56.08,6.23.41,4.77,2.57,4.77a9.45,9.45,0,0,0,2.24-.29,7.05,7.05,0,0,1,1.59-.21,2.33,2.33,0,0,1,2.66,2.62q0,2.87-3.39,2.87h-.33a36.43,36.43,0,0,1-3.77-.29,36.36,36.36,0,0,0-3.77-.29q-3.31,0-5.22.17l-4.64.41q-3.39,0-3.39-2.91,0-2.57,3.18-2.57a7.15,7.15,0,0,1,1.26.08l1.26.25a7,7,0,0,0,1.18.17q2.1,0,2.26-3.82v-4.23l-.25-18.86q-.25-4.9-2.49-4.9a9.3,9.3,0,0,0-1.83.25,9.31,9.31,0,0,1-1.83.25q-2.74,0-2.74-2.66,0-2.91,3.57-2.91a22.24,22.24,0,0,1,2.49.21,21.91,21.91,0,0,0,2.49.21,17.72,17.72,0,0,0,2.16-.21,5.34,5.34,0,0,1,1.59-.21Q470,174.24,470,176.6Z"/><path class="cls-2" d="M515.68,172.8a14.62,14.62,0,0,1,9.27,2.91v-.33q0-3.07,2.66-3.07a2.43,2.43,0,0,1,2.74,2.66q0,.5-.14,2.49a20.23,20.23,0,0,0-.28,3.32,29,29,0,0,0,.21,2.91q.21,1.91.21,2.91,0,3.18-2.7,3.18a2.37,2.37,0,0,1-2.7-2.66v-2.74q-.09-2.49-2.87-4.28a11.81,11.81,0,0,0-6.52-1.79,10.33,10.33,0,0,0-6.39,2,5.89,5.89,0,0,0-2.57,4.86q0,5.31,7.31,6.32l4.82.67q14.12,1.91,14.12,11.72a11.87,11.87,0,0,1-4.56,9.68q-4.56,3.69-11.92,3.69a19,19,0,0,1-11.92-3.91v1.59q0,3-2.83,3-3.07,0-3.07-3.41a42.45,42.45,0,0,0,.5-4.32,16.46,16.46,0,0,0,.17-2.33,20,20,0,0,0-.33-3.74,15.57,15.57,0,0,1-.33-2.74q0-2.91,2.66-2.91,1.75,0,2.2.79t.54,4.4q.08,3.57,3.74,5.81a17.94,17.94,0,0,0,9.29,2.3,10.61,10.61,0,0,0,6.73-2.07,6.36,6.36,0,0,0,2.66-5.23q0-5.65-9-6.56-8.56-.91-13-3.37t-4.45-8.62a11.64,11.64,0,0,1,4.39-9.43Q508.64,172.8,515.68,172.8Z"/><path class="cls-2" d="M558.18,217.19q-8.74,0-14-6T539,195q0-10.14,5.27-16.16t14.16-6.08q9.06,0,14.3,5.9t5.24,16q0,10.14-5.4,16.28T558.18,217.19Zm.41-38.88a11.15,11.15,0,0,0-9.14,4.07q-3.32,4.07-3.65,11.55V195q0,7.81,3.28,12.26a10.76,10.76,0,0,0,9.18,4.45,11.38,11.38,0,0,0,9.53-4.45q3.45-4.44,3.45-12.34Q571.23,178.31,558.6,178.31Z"/><path class="cls-2" d="M597.15,176.77v2.38a16.08,16.08,0,0,1,13.29-6.36,16.79,16.79,0,0,1,8.48,2.29,11.92,11.92,0,0,1,5.4,5.69,19.7,19.7,0,0,1,1.16,7.4V204q0,3.57.08,4.23Q626,211,627.79,211a12,12,0,0,0,2-.21,11.79,11.79,0,0,1,1.7-.21,2.63,2.63,0,0,1,1.87.75,2.42,2.42,0,0,1,.79,1.83,2.59,2.59,0,0,1-1,2.07,3.65,3.65,0,0,1-2.38.79,35.32,35.32,0,0,1-3.82-.33,40.52,40.52,0,0,0-5-.33,31.66,31.66,0,0,0-3.57.17q-4.15.5-4.4.5-3.32,0-3.32-2.91,0-2.57,2.88-2.57a8,8,0,0,1,1.53.17,14.09,14.09,0,0,0,2,.33q2,0,2.2-4.57V190.93a29.44,29.44,0,0,0-.41-6.06,8,8,0,0,0-3.23-4.9,10.57,10.57,0,0,0-6.2-1.91q-6.63,0-9.53,4.77-2,3.24-2,11v11a16.46,16.46,0,0,0,.5,5,1.83,1.83,0,0,0,1.83,1.33,8,8,0,0,0,1.83-.29,8.24,8.24,0,0,1,1.91-.29q2.57,0,2.57,2.78t-3.32,2.7q-.67,0-4.32-.5a30.3,30.3,0,0,0-4.07-.25,43.3,43.3,0,0,0-4.66.33q-3.65.41-4.15.41-3.49,0-3.49-2.83a2.37,2.37,0,0,1,2.71-2.66,9,9,0,0,1,1.59.25,10.49,10.49,0,0,0,2.24.25q2.54,0,2.62-4.82V184.13a10.62,10.62,0,0,0-.72-3.86,2,2,0,0,0-1.91-1,10.64,10.64,0,0,0-1.73.21,10.52,10.52,0,0,1-1.73.21q-3.05,0-3.05-2.66t3.74-2.74a3.54,3.54,0,0,1,.79.08l3.07.33a11.49,11.49,0,0,0,2.33-.21l2.24-.21Q597.15,174.24,597.15,176.77Z"/><path class="cls-3" d="M167.18,399.38c16.39-26.69,78.93-119.77,93-143.89.23-.23,3.56-.29,7.42.5,7.84-1.05,38.82-2.21,35.37,7.18a347.86,347.86,0,0,0-13.94,59.27c-6.45,43.27-8.33,84.47-5.62,83.11,2.38-1.2,10.44-8,17.76-22.43,4.23-7.93,0,0,5.44-7.39.82-1.1,1.47,6.84-1.21,11.61-6.73,12-13.87,24.11-21.43,32.3-8.47,9.35-19.93,15.91-25.72,14.19-8.65-2.61-12.74-20.87-10.7-42.35.36-3.29.85-9,1.77-16-12.82,8.18-34.48,16-63.26,18.26-3.61,5.28-6.79,9.65-8.8,13.28-19,32.54-20.38,34.79-20.62,34.84C139.14,445.88,144.27,436.8,167.18,399.38ZM260.5,287.81c-7,10.76-16,24.71-26.39,39.86-10.19,14.48-20.38,28.53-29.92,41.22l46-2.12c2.71-22.86,6.73-54.3,10.33-79Z"/><path class="cls-3" d="M318.55,331.83c-11.35-3.23-20.81-7.25-22.5-14.06-3-10.83,42.73-18.58,42.75-17.92,1,7.73-2.88,17.59-5.91,26.3l5.77,1.5c22.66,5.8,33.35,4.52,27,24.35-5.77,18-7.83,26-11.1,46.46-2.22,10.59-.72,12.18,3.64,7.74,4.8-4.94,11.85-14.61,19.41-29.1,4-7.91,5.39-8.7,5.55-4.57,0,1.08,1.35,4-1.32,8.78-6.93,12.27-14.11,24.13-21.43,32.3-10.57,11.47-22.3,16.09-28.1,14.38-9.18-2.75-16.54-20.18-7.28-52.6,10.49-37.29,13.07-38.58,6.8-40.26l-1.68-.3c-6,17.84-16,35.78-23.14,49.8a22.88,22.88,0,0,1-6.62,7.91c-3.73,2.46-4.73,1.24-.49-6.47C310.8,366.31,317,347.15,318.55,331.83Z"/><path class="cls-3" d="M436.4,291.91c-1.41,3.64-2.88,7.63-4.44,11.87-1.76,4.89-3.54,10.11-5.24,15.59-10,31.83-16.77,60.37-18.83,74.85-1.1,8.77,1.53,7.24,6.14,3,4.15-3.8,9.61-9.64,16.92-24.12,5.08-11.18,9.61-17.82,9.78-13.92,0,1.3-2.1,12.33-4.8,17.1-6.73,12-14.63,25.15-22.2,33.35-8.47,9.35-17.63,13.55-23.43,11.84-8.93-2.55-17.2-18.82-12.29-40,2.43-11.44,10.38-41.88,19.74-77.91.45-2.73,12.36-7.63,14.46-8.38,0,0,1-.1-11.23.87-4,.32-8.33.66-12.86.8-3.31-5.17.22-12.82,7.58-13.84l8.57-.68c2.08-8.19,3.84-16.8,5.94-25.43.2-.87,42.36-3.57,38.23,7.18-.22.45-3.1,6.09-7,15.32l21.42-1.74c.48,0,.49.39-.18,1.53C457.15,285.49,449.91,289.32,436.4,291.91Z"/><path class="cls-3" d="M481.8,391.2c-2.81-17.14.83-40.43,7.13-56.53,1.92-4.93,38.53-9.78,37.47-6.65a190.92,190.92,0,0,1-27.47,55.13c-1.84,14.25,0,24.74,8.09,24.1,12.85-1,24-26.66,31.25-50.44-17-14.28-10.05-50,14.2-58.63,18.36-6.66,33.71,13.61,25.69,41.15a55.37,55.37,0,0,1-5.26,12.12c7.49-3.64,13.59-6.49,16.48-12.18,4.23-7.93,5.39-8.7,5.55-4.57,0,1.08.64,4.07-2.28,8.86-3.14,5.22-13.61,12.58-24.41,17.12-16.18,26-45.78,50.94-66,52.54-9,.73-14.81-4.49-18-12.91-9.89,9.68-20.18,15.92-29.67,16.67-19.76,1.57-32.06-20.47-12.7-69.31,10.87-27.77,7.9-42.73,7.89-42.95,20.55-5.53,39.4,12.51,28.76,40-19.56,49.73-28,66.9-19.17,66.2C465.6,410.49,473.64,402.48,481.8,391.2Zm57.29-43.4,2.41-5.6c7.61-25.56,8.23-34.07,3.77-32.41-7.07,2.5-15.54,24.17-6.18,38Z"/><path class="cls-3" d="M672.9,364.49c-15.46,26.19-42.15,39.59-59.06,40.92-20.47,1.62-40.12-25-31.47-54.59,13.29-45.33,58-67.32,68.66-57.75a65.51,65.51,0,0,1,5.48,5.86c17.69.56,33.19,18.86,25,46.21-1.28,4-.82,3.3-2.59,6.7a51.64,51.64,0,0,0,8.21-9.74c4.92-7.91,8-21.79,9.94-39.64-11.59-3.43-21.54-7.83-23.22-14.22-3-10.81,38.26-22.78,38.29-22.12,1.31,9,.28,19.52-2.17,30.34,1.92.5,4.1,1.19,6.51,1.65,22.66,5.8,33.35,4.52,27,24.35-5.77,18-9.43,25.93-11.1,46.46-.58,7-.19,7.37,2.88,5.61,5.32-4.35,11.69-12.4,19.22-26.89,4-7.91,6.35-8.75,6.51-4.64,0,1.08.4,4.1-2.28,8.86-6.93,12.27-15.07,24.2-22.39,32.38-8.47,9.35-15.71,13.4-21.51,11.69-8.93-2.55-21-18.26-12-50.06,10.49-37.29,15.49-37.69,9.22-39.36l-4.33-1c-4,13.78-8.57,31.22-15.37,40.72C688.92,351.5,682.23,360.17,672.9,364.49Zm-32.28-1.35c-13.92-14.52-8.57-55.1,8.07-62.93-11.86-4.05-22,18.66-29.9,47.73-6.88,25.94-10.65,51.85-.89,51.08,10-.79,16.83-16.31,22.76-35.88ZM643.78,352a25,25,0,0,1,1-4c6.89-25.51,12-42.62,3.84-42-5.88.48-11.42,30-4.84,46Z"/><path class="cls-3" d="M794.23,268.3c-74.86-9.5-133.87-12.18-178.13,10-1.87,1,2.53-35.58,18.33-40.52,49.5-16.07,108.71,4.47,151.91,14.65,31.24-75,63.72-99.23,89.55-103.88,26.08-4.67,52.54,13,45.75,41.08-8.45,34.79-54.77,64.68-106.19,75.25a29.33,29.33,0,0,1-4.27.77c-5.09,16.46-10.14,34.23-15.1,53.92,12.49-28.55,27-43.15,50.77-45,25.7-2,31.07,37.91-18,66.53-.23.23-.22.45.29,1.28,12,20.32,17.17,23.17,21.37,20.66,5.31-4.55,13.74-9.11,21.3-23.6,4-7.91,8.93-8.91,6.25-4.13-6.93,12.27-26,32.44-33.31,40.61-8.47,9.35-17.37,13.26-23.17,11.55-7.69-2.43-12.11-10.55-29-40.24,0-.22.22-.45,16.13-15,26.51-24.24,25.08-43,16.75-42.35-11.42.87-26.74,30.77-43.24,85.9-3.45,15.65-2.88,17.16-2.88,17.16-16.56,3.91-34.75-3.76-25.64-39.64,5.94-23.22,13.32-56.53,20.92-74.65C778,270.65,788.72,269.78,794.23,268.3Zm19.44-12.62c.71-.05-.45.87.49.62,40.07-7.08,67-33.73,71.35-62.3,3.84-25.22-1.6-41.55-16.22-36.92C848.31,163.73,832.16,196.47,813.67,255.68Z"/><path class="cls-3" d="M936.59,340.79c9.18-3.06,22.3-18.59,23.46-18.26,1.35.34-1.48,6.35-4.75,10.61-3.75,4.87-13.3,12-20.36,14.55-11.76,29.36-60.12,44.05-70,35.93-9.85-7.91,9.23-26.78,33.11-32.79,1.7-11.64-.17-23-3.43-33.15-11.78,16.34-26.71,31.63-38.83,45.4-3.66,4.2-11.67,6.78-5.26,0,19.95-21.12,31.78-42.67,37-62.4-7-13.56-14.76-23.79-15.88-28-3-10.83,43-16.43,43.32-15.8,1.66,12.24-.74,24.15-5.55,35.6,13.37,12.4,27.58,28,28.07,40.75A25.9,25.9,0,0,1,936.59,340.79Zm-39.73,15.78c0-.43.26.64.48.19-14.63,4.42-20.35,14.14-15.08,17.46C885.95,376.5,892.42,374.59,896.86,356.57Z"/><text class="cls-4" transform="matrix(1.56, -0.12, 0.1, 1, 285.6, 514.11)">p</text></svg>