<svg xmlns="http://www.w3.org/2000/svg" viewBox="0 0 1096 396.84"><defs><style>.cls-1{fill:#fff;}.cls-2{fill:#6cf;}.cls-3{fill:none;stroke:#4d4d4d;stroke-width:2px;opacity:0.08;}.cls-3,.cls-9{stroke-miterlimit:10;}.cls-4{font-size:159.08px;fill:#d8b8b4;font-family:Pacifico-Regular, Pacifico;}.cls-5{letter-spacing:0.03em;}.cls-6{letter-spacing:0em;}.cls-7{opacity:0.26;font-size:36.38px;font-family:Monaco, Monaco;}.cls-8,.cls-9{fill:#cdb6b2;}.cls-9{stroke:#fff;stroke-linecap:round;}</style></defs><title>logo6</title><g id="Layer_2" data-name="Layer 2"><rect class="cls-1" width="1096" height="395.84"/></g><g id="Capa_1" data-name="Capa 1"><path class="cls-2" d="M396.62,389.37"/><path class="cls-1" d="M873.43,257.71c30.76,4,30.47,33.23,26.37,32.58C703,261.55,361.28,304.36,227.12,340.42c-10,2.72-10.55-3.77-10.55-3.77C387.59,287.3,715.54,237,873.43,257.71Z"/><line class="cls-3" y1="395.84" x2="1096" y2="395.84"/><text class="cls-4" transform="translate(198.58 269.37) rotate(-4.51)">Ar<tspan class="cls-5" x="203.77" y="0">t</tspan><tspan class="cls-6" x="271.06" y="0">works</tspan></text><text class="cls-7" transform="translate(231.47 95.15) scale(1.51 1)">EPPERSON</text><path class="cls-8" d="M306,337.66c26.36-12.9,24.22-3,40.32-20.79l-.49,6s5.94-7.54,7.59-11.42l-.33,4,11.24-7.11h0c15.53-10.77,19.34-8.46,19.34-8.46,16.77-9.67,19.17-6.46,19.17-6.46,7.1-5.44,20.5-6.35,20.5-6.35,30.57-15.57,47.36-9.18,58.36-13.3s40.34-4.73,44.47-6.4,10.34,3.85,21.49-2.26,26.46,2.16,26.46,2.16,146.67-2.08,170.65-2.13,124.61,7.16,128,31.51l-14.88,2.8,14.39,3.18s3.32,8.3-9.48,18.29c0,0-6.53-1.54-14.31-4.18l8.69,7.73s-3.22,6.76-10.07,9.21L814.93,319s-1.14,14,12.85,22.12c0,0-22.82,2.15-34-7.79,0,0-7.75,13.41-24.38,5l-14.15-6.17s-7.94-.65-23.73-2.94-22.33-3.83-29.19-1.38-32.08,1.4-32.08,1.4l-6.37-3.53s-16.2,2.69-25.54,2.93-2.24-5.2-30.67.51-32.08,1.4-34.64.18-38.45-2.13-76.39,5.81-57.19,15.4-68.94,12.43-15.39-7.28-22.49-1.84-20.5,6.35-20.5,6.35l.92,5.09s-9.42,1.24-13.23-1.08l-18.85,2.48L334.26,350l11.09,10.94c10.34,3.85-17-3.4-22.09-6.82s-33.4,1.27-33.4,1.27"/><path class="cls-9" d="M184.82,386c19.25-7.46,241.91-75.58,285.22-84.08,126.05-24.75,205.79-32.87,379.51.87,0,0-115.91-24-245.33-13C476.55,300.62,377.69,332,276.28,366.84,205.3,391.25,184.82,386,184.82,386Z"/></g></svg>