<svg xmlns="http://www.w3.org/2000/svg" viewBox="0 0 1096 396.84"><defs><style>.cls-1{fill:#fff;}.cls-2{fill:#6cf;}.cls-10,.cls-3,.cls-9{fill:none;}.cls-3{stroke:#4d4d4d;stroke-width:2px;opacity:0.08;}.cls-10,.cls-3,.cls-8,.cls-9{stroke-miterlimit:10;}.cls-4{fill:#d8b8b4;}.cls-5{opacity:0.74;}.cls-6{opacity:0.26;}.cls-7,.cls-8{fill:#cdb6b2;}.cls-10,.cls-8,.cls-9{stroke:#fff;}.cls-8,.cls-9{stroke-linecap:round;}</style></defs><title>logo8</title><g id="Layer_2" data-name="Layer 2"><rect class="cls-1" width="1096" height="395.84"/></g><g id="Capa_1" data-name="Capa 1"><path class="cls-2" d="M396.62,389.37"/><path class="cls-1" d="M873.43,257.71c30.76,4,30.47,33.23,26.37,32.58C703,261.55,361.28,304.36,227.12,340.42c-10,2.72-10.55-3.77-10.55-3.77C387.59,287.3,715.54,237,873.43,257.71Z"/><line class="cls-3" y1="395.84" x2="1096" y2="395.84"/><path class="cls-4" d="M226.16,262.57A37.26,37.26,0,0,1,211,248q-5.91-9.83-7-23.78a98.06,98.06,0,0,1,6.83-45.46,81.22,81.22,0,0,1,28-35.4q19.24-14,47.59-16.28a120.23,120.23,0,0,1,15.77-.13,86.5,86.5,0,0,1,15.47,2.13q4.56.92,5,6a11.83,11.83,0,0,1-2.49,8,9.31,9.31,0,0,1-7,4.22,8.46,8.46,0,0,1-1.92,0q-8.43-1.25-14.39-1.66a85.46,85.46,0,0,0-12.49.11q-20.22,1.6-33.63,12.47a59.85,59.85,0,0,0-19.15,27.44,85.55,85.55,0,0,0-4.28,35.12q1.06,13.48,7,20.43t14.52,6.28q9.71-.77,16.41-9.27t11.35-26.75q4.65-18.24,8.14-49.15.61-4.51,3.35-6.33a15.88,15.88,0,0,1,7.52-2.19q11.31-.89,11.88,6.4a13.52,13.52,0,0,1-.23,3.21q-2.93,15.71-4.88,34.61t-1.19,28.58q.68,8.56,3.53,12.25t8.11,3.27a16.16,16.16,0,0,0,9.44-4.18q4.35-3.77,10.7-12.57a5.62,5.62,0,0,1,4.12-2.56,3.7,3.7,0,0,1,3.42,1.65,9.84,9.84,0,0,1,1.61,5.14q.49,6.18-2.25,10.07a72.33,72.33,0,0,1-14.16,15.48q-7.1,5.51-17.93,6.36-11.15.88-18.5-5t-10-17.48q-9.85,25.51-32.77,27.32A37.42,37.42,0,0,1,226.16,262.57Z"/><path class="cls-4" d="M397.77,203.63a8.3,8.3,0,0,1,2.95,5.91,12,12,0,0,1-.6,4.52,26.92,26.92,0,0,1-6.39,10.4,15.34,15.34,0,0,1-9.88,4.77,10.21,10.21,0,0,1-7.81-2.58,11.75,11.75,0,0,1-3.78-8.32q-.24-3-.19-6.53a34,34,0,0,0,0-3.51,2.84,2.84,0,0,0-.71-1.86,1.75,1.75,0,0,0-1.4-.53q-2.23.18-5.63,5.79a78.13,78.13,0,0,0-6.54,14.64,114,114,0,0,0-4.76,18.89q-1.15,7.75-3.18,10.46t-7.12,3.12q-6.05.48-9-5.67T329.66,233a129.05,129.05,0,0,1,2.8-39.63,12,12,0,0,1,4.17-7.11q3.09-2.4,9-2.86a9.06,9.06,0,0,1,4.52.44,3.28,3.28,0,0,1,1.51,2.91q.2,2.54-1.49,11.61-1.09,6.47-1.67,11.3a113.17,113.17,0,0,0-.67,11.86q4.18-14.05,10-23.13t11.78-13.22q5.92-4.13,11-4.54,4.62-.36,7.29,2.06t3.07,7.5a69.15,69.15,0,0,1-.85,11.55l1.43-.11A8.19,8.19,0,0,1,397.77,203.63Z"/><path class="cls-4" d="M481.85,213.35a9.83,9.83,0,0,1,1.61,5.14q.5,6.35-2.25,10.07a67.78,67.78,0,0,1-13.88,15,33,33,0,0,1-18.21,6.86Q416.64,253,413,207.45q-.55-7-.64-14.15l-6.21.49q-4.78.38-6.59-1.24t-2.11-5.42q-.7-8.88,6.46-9.45L413,177a154.14,154.14,0,0,1,5.77-32.53q4.43-14.87,11.64-24.06t16.28-9.9a12,12,0,0,1,11,5q4.29,5.57,5,14.45,1.94,24.58-17.32,44.45L463.21,173a5.08,5.08,0,0,1,3.75.82q1.2,1,1.44,4,.86,10.94-17.13,12.36l-19.43,1.53q.3,8,.66,12.39,1.3,16.5,5.73,22.85t12.87,5.69a19.11,19.11,0,0,0,11.78-5.08,96.58,96.58,0,0,0,11.44-13.35,5.62,5.62,0,0,1,4.12-2.56A3.7,3.7,0,0,1,481.85,213.35Zm-43.08-80.93a84.58,84.58,0,0,0-4.27,16.93A220.7,220.7,0,0,0,432,173.09a54.36,54.36,0,0,0,12.66-19.27q3.9-10.44,3.25-18.69-.74-9.35-4.24-9.08Q441.25,126.24,438.77,132.42Z"/><path class="cls-4" d="M594.14,189.49a4.44,4.44,0,0,1,3.79,1.3,6.67,6.67,0,0,1,1.61,4.18q.39,4.92-1.3,7.84a10.84,10.84,0,0,1-5.41,4.5,50.38,50.38,0,0,1-15.42,3.61,45,45,0,0,1-13.37-.86q-4,7.82-9,16.19-5.66,9.54-9.93,13.23a17,17,0,0,1-10,4.14,10.85,10.85,0,0,1-10-4.16q-3.65-4.66-5.34-15.85L518,212.09a152.56,152.56,0,0,1-7.24,21q-3.35,7.29-7,10.29a15.73,15.73,0,0,1-8.94,3.42,12.1,12.1,0,0,1-10.67-4.26q-4.14-4.78-6-15.65-3.66-22.05-5-38.7l-.44-5.55q-.26-5.25,2.29-7.52t8-2.7q4.14-.33,6.27,1.34t2.47,5.95q1.44,18.24,6,47.24,9-23.53,16.18-48.83,1.37-4.9,3.71-6.76a10.46,10.46,0,0,1,5.84-2.14q4.3-.34,6.11,1.27t2.16,6.05q1.44,18.24,6,47.24,8.44-14.87,12.55-23.65A23.53,23.53,0,0,1,547,189.38a24.41,24.41,0,0,1,1.56-10.65,22,22,0,0,1,5.88-8.76A15.09,15.09,0,0,1,563.6,166a9.54,9.54,0,0,1,7.74,2.66q3.12,3,3.61,9.21.56,7.14-2.53,16.63a114,114,0,0,0,15.9-3.65l4.24-1.13A5.65,5.65,0,0,1,594.14,189.49Z"/><path class="cls-4" d="M669.75,185.28a11,11,0,0,1,1.53,5.14q.6,7.61-3.91,9.4a73,73,0,0,1-20.72,5.46q-2,13.56-10.26,22.27a29.54,29.54,0,0,1-19.59,9.6,28.41,28.41,0,0,1-16.68-3.31,29.3,29.3,0,0,1-11.24-11.4,39.07,39.07,0,0,1-4.8-16.22A48.38,48.38,0,0,1,587,184.39a36.29,36.29,0,0,1,11.58-15.75,32.28,32.28,0,0,1,17.58-6.73q12.1-1,20.16,6.79a35.7,35.7,0,0,1,10.3,19.85A97.09,97.09,0,0,0,664.2,184a9.48,9.48,0,0,1,2.2-.49A3.49,3.49,0,0,1,669.75,185.28Zm-44.49,30.16q3.41-4.42,4.08-12.29a22,22,0,0,1-8.25-8.12,25.81,25.81,0,0,1-3.53-11.21,27.46,27.46,0,0,1,.08-5.11l-.8.06q-6.37.5-10.11,6.94t-2.86,17.54q.69,8.72,4.47,13.05t8.4,4A11.6,11.6,0,0,0,625.26,215.44Z"/><path class="cls-4" d="M663.2,227.12q-3-6.15-4.07-20.1a129,129,0,0,1,2.8-39.63,12,12,0,0,1,4.17-7.11q3.09-2.4,9-2.86a9.06,9.06,0,0,1,4.52.44,3.28,3.28,0,0,1,1.51,2.91q.2,2.54-1.49,11.61-1.09,6.47-1.67,11.3a113.15,113.15,0,0,0-.67,11.86q4.18-14.05,10-23.13t11.86-13.22q6-4.14,11.26-4.56,10.35-.82,11.16,9.49a79.55,79.55,0,0,1-.64,10.1,58.16,58.16,0,0,0-.65,8q.44,5.55,4.42,5.24,4.46-.35,10.92-7.88a6.12,6.12,0,0,1,4.14-2.4,3.73,3.73,0,0,1,3.41,1.57,8.74,8.74,0,0,1,1.58,4.74q.46,5.87-2.46,9.45a43.24,43.24,0,0,1-9.81,8.67,26.16,26.16,0,0,1-12.4,4.25q-8.44.67-13.16-3.27t-5.29-11.23a24.19,24.19,0,0,1,.1-4.79q.07-3.2,0-4.31-.2-2.53-2-2.4-2.39.19-5.87,5.81a74.77,74.77,0,0,0-6.62,14.65,114,114,0,0,0-4.76,18.88q-1.16,7.6-3.27,10.39t-7,3.19Q666.17,233.27,663.2,227.12Z"/><path class="cls-4" d="M826,186.19a9.84,9.84,0,0,1,1.61,5.14q.5,6.35-2.25,10.07a77.51,77.51,0,0,1-13.39,15.1,29.16,29.16,0,0,1-16.94,6.6q-12.26,1-20.3-5.42t-8.95-18q-.49-6.18,5.67-9.38,6.77-3.56,9.53-7.21a12.15,12.15,0,0,0,2.37-8.57,6.56,6.56,0,0,0-1.53-4.19,3.71,3.71,0,0,0-3.06-1.2q-4.3.34-9,6.93a70.65,70.65,0,0,0-8.38,16.7,114,114,0,0,0-5.42,20.61q-1.17,7.6-3.27,10.39t-7,3.19q-4.94.39-7.53-3t-4-10.78q-1.39-7.39-2.52-21.82a274.44,274.44,0,0,1,1-51.3q2.93-26.88,11.3-45.65T766,74.6a14.05,14.05,0,0,1,12.36,5.33q5,5.91,5.82,15.9,1.26,16-6.77,34T750,172.4q.17,8.29.86,17,6.08-20.42,15.25-30.17t17.76-10.42a16.48,16.48,0,0,1,13.24,4.38A19.24,19.24,0,0,1,803,166.15a30.23,30.23,0,0,1-3.19,16.37q-3.88,7.65-14.26,14.21a10.52,10.52,0,0,0,4.45,6.59,12.25,12.25,0,0,0,8.09,2,15,15,0,0,0,9.25-4.56,105.28,105.28,0,0,0,11.1-13.64,5.61,5.61,0,0,1,4.12-2.56A3.69,3.69,0,0,1,826,186.19Zm-67.83-87a138.21,138.21,0,0,0-5,22.58,293.68,293.68,0,0,0-3,30.63,113.67,113.67,0,0,0,14.33-26.5q5.37-14.14,4.5-25.25A21.25,21.25,0,0,0,767.26,93q-1.33-2.61-3.4-2.44Q761,90.79,758.14,99.24Z"/><path class="cls-4" d="M833.9,219.72q-4.68-3.46-5.06-8.22a9.76,9.76,0,0,1,2.46-7.37q2.79-3.25,8.68-3.72a35.54,35.54,0,0,1,4.89,0q2.82.18,4.26.22a20.43,20.43,0,0,0-2.44-7.63,39.12,39.12,0,0,0-4.78-6.72q-2.82-3.21-5.25-5.57A104,104,0,0,1,828.1,197a116.94,116.94,0,0,1-9.66,12.57,8.57,8.57,0,0,1-5.83,3.33,5.24,5.24,0,0,1-4.28-1.5,6.65,6.65,0,0,1-2-4.39,9.06,9.06,0,0,1,1.77-6l1.87-2.7a205.57,205.57,0,0,0,11.82-18.8,102.91,102.91,0,0,0,4.95-11.4q2.44-6.57,6.36-17.9,2.47-7.21,12-8a16.82,16.82,0,0,1,6.27.3,2.65,2.65,0,0,1,2,2.4A11.75,11.75,0,0,1,853,148a23,23,0,0,1-1.43,4.26q-2.42,5.93-2.1,9.9a10.56,10.56,0,0,0,2.08,5.1,59.52,59.52,0,0,0,5.74,6.73,101.09,101.09,0,0,1,8.62,10.73,20.6,20.6,0,0,1,3.43,10,26.94,26.94,0,0,1-2.11,12.85,25.32,25.32,0,0,1-7.92,10.28,22.84,22.84,0,0,1-12.45,4.65Q838.58,223.18,833.9,219.72Z"/><g class="cls-5"><path class="cls-6" d="M259.41,92.11v3H236.92V67.58H259v2.77H242.34v9.36h15v2.75h-15v9.64Z"/><path class="cls-6" d="M274.6,85.09V95.15h-5.42V67.58h10.36a32.9,32.9,0,0,1,9.31,1,9.62,9.62,0,0,1,4.48,2.78,6.15,6.15,0,0,1,1.56,4.09,7.21,7.21,0,0,1-2.09,4.94A13.4,13.4,0,0,1,287,83.86a33.52,33.52,0,0,1-10.16,1.23Zm0-2.75h2.34a24,24,0,0,0,7.46-.86A8.23,8.23,0,0,0,288.16,79a5.45,5.45,0,0,0,1.32-3.5,4.23,4.23,0,0,0-2.35-3.77q-2.35-1.39-9.27-1.39H274.6Z"/><path class="cls-6" d="M307.59,85.09V95.15h-5.42V67.58h10.36a32.9,32.9,0,0,1,9.31,1,9.62,9.62,0,0,1,4.48,2.78,6.15,6.15,0,0,1,1.56,4.09,7.21,7.21,0,0,1-2.09,4.94A13.4,13.4,0,0,1,320,83.86a33.52,33.52,0,0,1-10.16,1.23Zm0-2.75h2.34a24,24,0,0,0,7.46-.86A8.23,8.23,0,0,0,321.15,79a5.45,5.45,0,0,0,1.32-3.5,4.23,4.23,0,0,0-2.35-3.77q-2.35-1.39-9.27-1.39h-3.25Z"/><path class="cls-6" d="M358.38,92.11v3H335.89V67.58H358v2.77H341.31v9.36h15v2.75h-15v9.64Z"/><path class="cls-6" d="M372.85,83.42V95.15h-5.42V67.58h11.13a31.71,31.71,0,0,1,8,.74,8.59,8.59,0,0,1,4,2.23A4.61,4.61,0,0,1,392,73.75,6.36,6.36,0,0,1,391,77a10,10,0,0,1-2.58,2.88,18.08,18.08,0,0,1-4.75,2.4l12,12.89h-6.46l-11-11.72Zm0-2.75h7.57a14.5,14.5,0,0,0,3.8-1.89,7.4,7.4,0,0,0,1.89-2,4.23,4.23,0,0,0,.64-2.17,3.45,3.45,0,0,0-2.13-3.09q-2.13-1.15-7.73-1.15h-4Z"/><path class="cls-6" d="M400.63,94.56V91.18a38.87,38.87,0,0,0,11.67,2,15.56,15.56,0,0,0,4.2-.56,6.7,6.7,0,0,0,3-1.61,3.2,3.2,0,0,0,1-2.28,3.6,3.6,0,0,0-1.42-2.69,19,19,0,0,0-5.32-2.77l-2.72-1-2.76-1.06Q401,78.36,401,74.11q0-3.11,3.26-5.24t10.19-2.13a43.73,43.73,0,0,1,8.62.83v3.07a36.47,36.47,0,0,0-8.92-1.15,11.26,11.26,0,0,0-5.59,1.21q-2.13,1.21-2.13,2.92a3.32,3.32,0,0,0,1.63,2.81,19.17,19.17,0,0,0,4.17,2.06l2.11.84,2.61,1,2.15.86Q426,84,426,88.2q0,3.2-3.51,5.49T411.22,96a38.55,38.55,0,0,1-4.71-.28A56.23,56.23,0,0,1,400.63,94.56Z"/><path class="cls-6" d="M445.89,96q-7.09,0-10.83-4t-3.74-10.67q0-6.7,3.74-10.65t10.83-4q7.11,0,10.84,4t3.73,10.65q0,6.72-3.73,10.67T445.89,96Zm0-2.75a8.38,8.38,0,0,0,6.54-2.94Q455,87.34,455,81.36t-2.62-8.92a8.73,8.73,0,0,0-13.07,0q-2.62,2.94-2.62,8.92t2.62,8.92A8.38,8.38,0,0,0,445.89,93.23Z"/><path class="cls-6" d="M470.77,95.15h-5V67.58h4.89l14.71,18.35L487,88.66h.13L487,85.93V67.58h5V95.15h-5l-14.31-18-2-2.9.11,2.86Z"/></g><path class="cls-7" d="M306,337.66c26.36-12.9,24.22-3,40.32-20.79l-.49,6s5.94-7.54,7.59-11.42l-.33,4,11.24-7.11h0c15.53-10.77,19.34-8.46,19.34-8.46,16.77-9.67,19.17-6.46,19.17-6.46,7.1-5.44,20.5-6.35,20.5-6.35,30.57-15.57,47.36-9.18,58.36-13.3s40.34-4.73,44.47-6.4,10.34,3.85,21.49-2.26,26.46,2.16,26.46,2.16,146.67-2.08,170.65-2.13,124.61,7.16,128,31.51l-14.88,2.8,14.39,3.18s3.32,8.3-9.48,18.29c0,0-6.53-1.54-14.31-4.18l8.69,7.73s-3.22,6.76-10.07,9.21L814.93,319s-1.14,14,12.85,22.12c0,0-22.82,2.15-34-7.79,0,0-7.75,13.41-24.38,5l-14.15-6.17s-7.94-.65-23.73-2.94-22.33-3.83-29.19-1.38-32.08,1.4-32.08,1.4l-6.37-3.53s-16.2,2.69-25.54,2.93-2.24-5.2-30.67.51-32.08,1.4-34.64.18-38.45-2.13-76.39,5.81-57.19,15.4-68.94,12.43-15.39-7.28-22.49-1.84-20.5,6.35-20.5,6.35l.92,5.09s-9.42,1.24-13.23-1.08l-18.85,2.48L334.26,350l11.09,10.94c10.34,3.85-17-3.4-22.09-6.82s-33.4,1.27-33.4,1.27"/><path class="cls-8" d="M184.82,386c19.25-7.46,241.91-75.58,285.22-84.08,126.05-24.75,227.67-25.12,401.39,8.63,0,0-137.79-31.76-267.21-20.75C476.55,300.62,377.69,332,276.28,366.84,205.3,391.25,184.82,386,184.82,386Z"/><path class="cls-9" d="M327.89,142.57c-91-23-106.68,38.89-111.31,66-3.46,20.25,1.45,43.27,18.69,48.72,44.35,14,56.33-67.43,62.35-105.72,0,0-17.56,76,2.75,98,5.88,6.37,38.75,17.5,40.75-68,0,0,1.47,37.14,1.6,57.33,0,1.43,0,19,.4,17.67,3.25-11.62,16.22-52.53,24.77-62,26.32-29.16-.46,40.52,24.15,17.17,19.68-18.67-5.13-24.34,2.33-25,13.62-1.2,55.33-3,61.33-40.67,2.53-15.89-8-52.67-27.33-3.33s1.9,88.77,7.22,93.56c5.8,5.24,22.52,7.44,32.78-4.56s16.33-19.67,16.33-19.67"/><path class="cls-10" d="M523.48,177.42s-6.77,23-16.11,47-19.67,11-21.67-2.33-5-54-5-54L470.37,179.4l-50,3.26"/><path class="cls-10" d="M522,156.07s3,54.67,7.67,70.33,12.33,6.33,15,1.33,19.33-30.43,21.67-39.38S560,170.74,556,184.74s10.33,17.39,18.67,18.19S594,198.74,594,198.74c-3.17,41.83,46.33,39.06,46.33.67,0-11.05-5.64-29.11-22.67-29.33-25-.33-23.67,28.51-23.67,28.51"/><path class="cls-10" d="M628.49,173.24c-12.45,20.83,18.65,37.17,42.32,20.5L672,156.07"/><path class="cls-10" d="M673.71,235.09c-5.33-31.68-1.67-79-1.67-79"/><path class="cls-10" d="M739.07,184.07c-26.7,29.44-28.5.59-28-7.67.37-6.54-1.91-16.18-17.67-2-13.33,12-19.67,57.67-19.67,57.67"/><path class="cls-10" d="M739.26,176.7C815,82.74,749,50.07,742,132.4c-10.06,118.38,8.41,82.52,12,63.18,4.67-25.18,35.67-58.18,41.33-20.84,2,13.26-20,20.84-20,20.84S777,224.4,805,212.74c15.49-6.45,26.28-29.63,32.84-49.06a244.69,244.69,0,0,0,7.83-28.94"/><path class="cls-10" d="M872.7,209.07c-48.82-9.5-32.57,13.5-19,2.67,15.2-12.12-16-45.66-16-45.66"/></g></svg>