<svg id="Capa_1" data-name="Capa 1" xmlns="http://www.w3.org/2000/svg" viewBox="0 0 1096 673.41"><defs><style>.cls-1{fill:#ded6c6;}.cls-2{fill:#666;}.cls-3,.cls-4{fill:#09f;}.cls-4{font-size:167.1px;font-family:BonbonOrnamentsBold, Bonbon Ornaments Bold;}</style></defs><title>Mesa de trabajo 1</title><rect class="cls-1" width="1096" height="673.41"/><path class="cls-2" d="M233.4,139.33q0-7.74-5.33-7.74a8.6,8.6,0,0,0-2.2.21,15.77,15.77,0,0,1-2.82.31,3,3,0,0,1-2.3-1,3.43,3.43,0,0,1-.94-2.46q0-3.66,4.38-3.66l1.56.1q15.63,1,14.59,1h1l25.12-.73q.73,0,5.42-.31,1.67-.1,3-.1,5.42,0,5.42,4.81,0,.84-.3,5.33-.23,3.35-.22,6.17a49.94,49.94,0,0,0,.17,5.12,43.67,43.67,0,0,1,.35,4.5q0,4-3.71,4t-3.71-5.54v-5.44q0-8.79-3.66-10.35-2.72-1.15-14-1.15a64.36,64.36,0,0,0-8.78.31Q242,133.89,242,139v10.46q0,4.18,1.86,4.81a10,10,0,0,0,2.48.21h4.23q6.5,0,6.5-4.5a26.17,26.17,0,0,0-.26-3.24,27.45,27.45,0,0,1-.26-3.56q0-4.18,3.71-4.18t3.71,4.5q0,.84-.68,6.48a72,72,0,0,0-.58,8.47q0,2.09.42,7.43.1.84.52,3.66a28.6,28.6,0,0,1,.31,3.66q0,3.76-3.77,3.77t-3.66-4.39a30.56,30.56,0,0,1,.26-3.35,31,31,0,0,0,.26-3.35q0-4.5-6-4.5h-4.71q-3,0-3.71,1t-.68,4.5v6.48q0,1.67.1,4.5.1,3.45.1,4.6.1,4.18,1.67,5.23,1.15.73,5.44.73h14.22q6.17,0,8.47-1.83t2.3-6.85q0-1.57-.16-4.65t-.16-4.65q0-4.71,3.71-4.71,3.92,0,3.92,4.81,0,1.88-.16,5.75t-.16,5.75q0,1.47.16,4.34t.16,4.34q0,4.92-4.81,4.92-1.15,0-3.66-.21-1.26-.11-4.6-.1.73,0-8.16-.21T245,195q-9.83,0-19.24.63a4.79,4.79,0,0,0-.94.1h-.63q-4.39,0-4.39-3.76,0-3.35,3.24-3.35.52,0,2.82.21a8.34,8.34,0,0,0,2.2.31q5.33,0,5.33-7.84Z"/><path class="cls-2" d="M308.17,145.91v3.35a18.65,18.65,0,0,1,16-8.16q10.46,0,16.63,7.22T347,167.88q0,13.28-6.54,21.18T322.92,197a18.76,18.76,0,0,1-14.75-6.38v8.68a37.41,37.41,0,0,0,.21,5.12q.63,3.24,3,3.24a11.57,11.57,0,0,0,2.2-.31,11.56,11.56,0,0,1,2.2-.31q3.35,0,3.35,3.45t-4.38,3.45a39.08,39.08,0,0,1-4.69-.42,55.23,55.23,0,0,0-6.88-.31,34.21,34.21,0,0,0-4.17.21q-4.17.52-5.52.52a4.47,4.47,0,0,1-3-1.08,3.26,3.26,0,0,1-1.25-2.52q0-3.3,3.52-3.3a11.32,11.32,0,0,1,2,.27,14.57,14.57,0,0,0,2.59.36,2.31,2.31,0,0,0,2.43-2q.47-2,.57-11.35V153.86q-.1-4.81-2.69-4.81a10.54,10.54,0,0,0-2.23.37,10.54,10.54,0,0,1-2.33.37q-3.83,0-3.83-3.45t4.6-3.35q1.15,0,2.51.1,2.61.21,3.87.21.94,0,2.72-.16t2.61-.16Q308.17,143,308.17,145.91Zm1.57,12.76a48.72,48.72,0,0,0-1,9.94c0,.28,0,.8-.1,1.57v1.46q0,7,1.15,10.2a12.41,12.41,0,0,0,4.55,5.7,13.78,13.78,0,0,0,8.42,2.51q7.53,0,11.66-5.49t4.13-15.63q0-20.92-14.85-20.92a14.23,14.23,0,0,0-8.94,3A13.1,13.1,0,0,0,309.74,158.67Z"/><path class="cls-2" d="M370.92,145.91v3.35a18.65,18.65,0,0,1,16-8.16q10.46,0,16.63,7.22t6.17,19.56q0,13.28-6.54,21.18T385.67,197a18.76,18.76,0,0,1-14.75-6.38v8.68a37.41,37.41,0,0,0,.21,5.12q.63,3.24,3,3.24a11.57,11.57,0,0,0,2.2-.31,11.55,11.55,0,0,1,2.2-.31q3.35,0,3.35,3.45t-4.38,3.45a39.07,39.07,0,0,1-4.69-.42,55.23,55.23,0,0,0-6.88-.31,34.22,34.22,0,0,0-4.17.21q-4.17.52-5.52.52a4.47,4.47,0,0,1-3-1.08,3.26,3.26,0,0,1-1.25-2.52q0-3.3,3.52-3.3a11.32,11.32,0,0,1,2,.27,14.57,14.57,0,0,0,2.59.36,2.31,2.31,0,0,0,2.44-2q.47-2,.57-11.35V153.86q-.1-4.81-2.69-4.81a10.54,10.54,0,0,0-2.23.37,10.54,10.54,0,0,1-2.33.37q-3.83,0-3.83-3.45t4.6-3.35q1.15,0,2.51.1,2.61.21,3.87.21.94,0,2.72-.16t2.61-.16Q370.92,143,370.92,145.91Zm1.57,12.76a48.69,48.69,0,0,0-1,9.94c0,.28,0,.8-.1,1.57v1.46q0,7,1.15,10.2a12.41,12.41,0,0,0,4.55,5.7,13.78,13.78,0,0,0,8.42,2.51q7.53,0,11.66-5.49t4.13-15.63q0-20.92-14.85-20.92a14.23,14.23,0,0,0-8.94,3A13.11,13.11,0,0,0,372.49,158.67Z"/><path class="cls-2" d="M465.15,164.43q0,4-.52,4.86t-3,.89H428.33a2.92,2.92,0,0,0-1.78.37,1.52,1.52,0,0,0-.42,1.2,18.81,18.81,0,0,0,4.71,13.07A15.59,15.59,0,0,0,451,187.54a11.48,11.48,0,0,0,5-6.38l.94-3a3.24,3.24,0,0,1,3.45-2.51q3.87,0,3.87,4,0,6.8-6.9,12.08A25.14,25.14,0,0,1,441.62,197q-11,0-17.47-7.37t-6.48-19.82q0-12.76,6.9-20.71t18-7.95a21.6,21.6,0,0,1,16.21,6.59Q465.15,154.28,465.15,164.43Zm-38-2.72q0,1.47,2.3,1.46h25q2.2,0,2.2-1.46a13,13,0,0,0-4.18-9.62,13.63,13.63,0,0,0-9.83-4.08A15.77,15.77,0,0,0,432,152.24Q427.18,156.48,427.18,161.71Z"/><path class="cls-2" d="M488.68,145.86v2.87a17,17,0,0,1,14.54-7.63q7.32,0,11.87,4.13a13.69,13.69,0,0,1,4.55,10.62,11.61,11.61,0,0,1-2.3,7.48,7.39,7.39,0,0,1-6.07,2.88,6,6,0,0,1-4.08-1.46,4.55,4.55,0,0,1-1.67-3.56,4.19,4.19,0,0,1,1.26-3,3.94,3.94,0,0,1,2.93-1.31,6.38,6.38,0,0,1,1.36.31,5.2,5.2,0,0,0,.63-2.3,6.31,6.31,0,0,0-2.67-5.12,10.44,10.44,0,0,0-6.64-2.09q-8.16,0-10.88,7.32-1.67,4.5-1.67,13.6v6.9q0,7,.1,7.84.52,6,3.24,6A11.9,11.9,0,0,0,496,189a8.88,8.88,0,0,1,2-.27q3.35,0,3.35,3.3,0,3.61-4.27,3.61h-.42a45.86,45.86,0,0,1-4.74-.37,45.77,45.77,0,0,0-4.74-.37q-4.17,0-6.57.21l-5.84.52q-4.27,0-4.27-3.66,0-3.24,4-3.24a9,9,0,0,1,1.58.1l1.58.31a8.85,8.85,0,0,0,1.48.21q2.64,0,2.85-4.81v-5.33l-.31-23.74q-.31-6.17-3.14-6.17a11.71,11.71,0,0,0-2.3.31,11.72,11.72,0,0,1-2.3.31q-3.45,0-3.45-3.35,0-3.66,4.5-3.66a28,28,0,0,1,3.14.26,27.58,27.58,0,0,0,3.14.26,22.31,22.31,0,0,0,2.72-.26,6.72,6.72,0,0,1,2-.26Q488.68,142.88,488.68,145.86Z"/><path class="cls-2" d="M546.24,141.1a18.4,18.4,0,0,1,11.67,3.66v-.42q0-3.87,3.35-3.87t3.45,3.35q0,.63-.17,3.14a25.47,25.47,0,0,0-.35,4.18,36.56,36.56,0,0,0,.26,3.66q.26,2.41.26,3.66,0,4-3.4,4t-3.4-3.35v-3.45q-.11-3.14-3.61-5.39a14.87,14.87,0,0,0-8.21-2.25,13,13,0,0,0-8.05,2.46,7.42,7.42,0,0,0-3.24,6.12q0,6.69,9.2,7.95l6.07.84q17.78,2.41,17.78,14.75a14.94,14.94,0,0,1-5.74,12.18q-5.74,4.65-15,4.65a23.85,23.85,0,0,1-15-4.92v2q0,3.76-3.56,3.77-3.87,0-3.87-4.29a53.44,53.44,0,0,0,.63-5.44,20.73,20.73,0,0,0,.21-2.93,25.22,25.22,0,0,0-.42-4.71,19.6,19.6,0,0,1-.42-3.45q0-3.66,3.35-3.66,2.2,0,2.77,1t.68,5.54q.1,4.5,4.71,7.32T547.87,190a13.35,13.35,0,0,0,8.47-2.61,8,8,0,0,0,3.35-6.59q0-7.11-11.3-8.26-10.77-1.15-16.42-4.24t-5.65-10.82a14.65,14.65,0,0,1,5.52-11.87Q537.38,141.1,546.24,141.1Z"/><path class="cls-2" d="M599.74,197q-11,0-17.57-7.58T575.58,169q0-12.76,6.64-20.34t17.83-7.58q11.4,0,18,7.43t6.59,20.18q0,12.76-6.8,20.5T599.74,197Zm.52-48.94q-7.32,0-11.5,5.12t-4.6,14.54V169q0,9.83,4.13,15.43a13.54,13.54,0,0,0,11.56,5.6,14.32,14.32,0,0,0,12-5.6q4.34-5.59,4.34-15.53Q616.16,148,600.27,148Z"/><path class="cls-2" d="M648.79,146.07v3a20.24,20.24,0,0,1,16.73-7.95A21.13,21.13,0,0,1,676.19,144a15,15,0,0,1,6.8,7.16,24.8,24.8,0,0,1,1.46,9.31v19.87q0,4.5.1,5.33.52,3.56,2.82,3.56a15.09,15.09,0,0,0,2.46-.26,14.84,14.84,0,0,1,2.14-.26,3.31,3.31,0,0,1,2.35.94,3.05,3.05,0,0,1,1,2.3,3.26,3.26,0,0,1-1.25,2.61,4.59,4.59,0,0,1-3,1,44.46,44.46,0,0,1-4.81-.42,51,51,0,0,0-6.28-.42,39.85,39.85,0,0,0-4.5.21q-5.23.63-5.54.63-4.18,0-4.18-3.66,0-3.24,3.63-3.24a10.09,10.09,0,0,1,1.92.21,17.74,17.74,0,0,0,2.56.42q2.56,0,2.77-5.75V163.9a37.06,37.06,0,0,0-.52-7.63A10.09,10.09,0,0,0,672,150.1a13.31,13.31,0,0,0-7.81-2.41q-8.34,0-12,6-2.5,4.08-2.5,13.91v13.91a20.72,20.72,0,0,0,.63,6.27,2.3,2.3,0,0,0,2.3,1.67,10.09,10.09,0,0,0,2.3-.37,10.37,10.37,0,0,1,2.41-.37q3.24,0,3.24,3.5t-4.18,3.4q-.84,0-5.44-.63a38.14,38.14,0,0,0-5.12-.31,54.51,54.51,0,0,0-5.86.42q-4.6.52-5.23.52-4.39,0-4.39-3.56,0-3.35,3.41-3.35a11.26,11.26,0,0,1,2,.31,13.2,13.2,0,0,0,2.82.31q3.2,0,3.3-6.07V155.33a13.37,13.37,0,0,0-.91-4.86,2.49,2.49,0,0,0-2.4-1.31,13.39,13.39,0,0,0-2.18.26,13.24,13.24,0,0,1-2.18.26q-3.84,0-3.84-3.35t4.71-3.45a4.46,4.46,0,0,1,1,.1l3.87.42a14.46,14.46,0,0,0,2.93-.26l2.82-.26Q648.79,142.88,648.79,146.07Z"/><path class="cls-3" d="M145.06,414.3c17.06-30.69,82.14-137.71,96.82-165.45.24-.27,3.71-.33,7.72.57,8.16-1.21,40.4-2.54,36.81,8.26a435.5,435.5,0,0,0-14.51,68.15c-6.71,49.75-8.67,97.12-5.85,95.56,2.48-1.38,10.86-9.15,18.48-25.79,4.4-9.12,0,0,5.66-8.5.85-1.27,1.53,7.87-1.26,13.35-7,13.84-14.43,27.72-22.3,37.14-8.82,10.75-20.74,18.29-26.77,16.32-9-3-13.26-24-11.14-48.69.37-3.78.88-10.31,1.84-18.38-13.34,9.4-35.88,18.36-65.84,21-3.76,6.07-7.07,11.1-9.16,15.27-19.81,37.42-21.21,40-21.46,40.06C115.88,467.77,121.23,457.32,145.06,414.3ZM242.19,286c-7.27,12.37-16.65,28.41-27.46,45.83-10.6,16.65-21.21,32.8-31.14,47.4l47.86-2.44C234.27,350.52,238.45,314.36,242.19,286Z"/><path class="cls-3" d="M302.59,336.63c-11.81-3.71-21.66-8.34-23.42-16.17C276,308,323.64,299.11,323.66,299.85c1.06,8.89-3,20.23-6.15,30.24l6,1.72c23.58,6.67,34.71,5.2,28.06,28-6,20.74-8.15,29.91-11.55,53.42-2.31,12.18-.75,14,3.79,8.9,5-5.68,12.33-16.8,20.2-33.46,4.15-9.1,5.61-10,5.78-5.25,0,1.24,1.41,4.62-1.37,10.1-7.21,14.11-14.68,27.74-22.3,37.14-11,13.19-23.21,18.5-29.24,16.53-9.55-3.16-17.21-23.2-7.58-60.48,10.92-42.88,13.6-44.36,7.08-46.29l-1.75-.35c-6.24,20.51-16.69,41.14-24.08,57.26a25.87,25.87,0,0,1-6.89,9.09c-3.88,2.83-4.92,1.43-.51-7.44C294.53,376.27,301,354.24,302.59,336.63Z"/><path class="cls-3" d="M422.24,290.73c-1.47,4.19-3,8.77-4.62,13.65-1.83,5.62-3.68,11.63-5.45,17.93-10.4,36.6-17.45,69.41-19.6,86.07-1.14,10.08,1.59,8.33,6.39,3.42,4.32-4.37,10-11.09,17.61-27.73,5.29-12.85,10-20.49,10.18-16,.05,1.49-2.19,14.18-5,19.66-7,13.84-15.23,28.92-23.1,38.35-8.82,10.75-18.35,15.58-24.38,13.61-9.29-2.93-17.9-21.64-12.79-46C364,380.47,372.29,345.48,382,304c.47-3.14,12.86-8.77,15.05-9.64,0,0,1.09-.12-11.69,1-4.21.37-8.67.76-13.38.92-3.44-5.94.23-14.74,7.89-15.91l8.92-.78c2.16-9.42,4-19.32,6.18-29.24.21-1,44.08-4.11,39.79,8.25-.23.52-3.23,7-7.33,17.61l22.29-2c.5,0,.51.45-.19,1.76C443.85,283.35,436.3,287.75,422.24,290.73Z"/><path class="cls-3" d="M469.49,404.89c-2.92-19.71.86-46.49,7.42-65,2-5.67,40.1-11.24,39-7.65a229.41,229.41,0,0,1-28.59,63.39c-1.91,16.39,0,28.45,8.42,27.71,13.37-1.17,25-30.66,32.52-58-17.71-16.42-10.46-57.46,14.78-67.41,19.11-7.66,35.08,15.65,26.74,47.32a67.31,67.31,0,0,1-5.47,13.94c7.8-4.18,14.14-7.46,17.15-14,4.4-9.12,5.61-10,5.78-5.25,0,1.24.67,4.68-2.37,10.19-3.27,6-14.16,14.47-25.4,19.69-16.84,29.92-47.64,58.57-68.69,60.41-9.41.82-15.33-5.15-18.65-14.84-10.29,11.13-21,18.31-30.88,19.17-20.56,1.8-33.37-23.54-13.22-79.7,11.31-31.93,8.22-49.13,8.21-49.38,21.39-6.36,41,14.38,29.93,46-20.36,57.18-29.11,76.92-19.95,76.12C452.63,427.08,461,417.86,469.49,404.89ZM529.11,355l2.51-6.44c7.92-29.39,8.57-39.17,3.92-37.27C528.18,314.16,519.36,339.11,529.11,355Z"/><path class="cls-3" d="M666.41,374.18c-16.09,30.11-43.87,45.52-61.46,47.05-21.3,1.86-41.75-28.79-32.75-62.77,13.83-52.12,60.4-77.41,71.46-66.4a72.93,72.93,0,0,1,5.7,6.74c18.41.64,34.54,21.69,26,53.13-1.33,4.61-.85,3.79-2.7,7.7a58.35,58.35,0,0,0,8.54-11.2c5.12-9.09,8.3-25.05,10.34-45.58-12.06-3.94-22.42-9-24.17-16.35-3.17-12.45,39.83-26.19,39.85-25.45,1.36,10.36.29,22.44-2.26,34.89,2,.57,4.27,1.37,6.77,1.9,23.58,6.67,34.71,5.2,28.06,28-6,20.74-9.81,29.81-11.55,53.42-.6,8.1-.2,8.47,3,6.45,5.54-5,12.17-14.26,20-30.92,4.15-9.1,6.61-10.06,6.78-5.33,0,1.24.42,4.71-2.37,10.19-7.21,14.11-15.68,27.82-23.3,37.23-8.82,10.75-16.35,15.41-22.39,13.44-9.29-2.93-21.85-21-12.44-57.56,10.92-42.88,16.12-43.34,9.6-45.26l-4.51-1.1c-4.17,15.84-8.92,35.9-16,46.82C683,359.25,676.09,369.22,666.41,374.18Zm-33.59-1.55c-14.49-16.7-8.92-63.36,8.4-72.36-12.34-4.66-22.85,21.46-31.12,54.88-7.16,29.83-11.08,59.62-.93,58.73C619.58,413,626.65,395.13,632.82,372.63Zm3.28-12.77a31.22,31.22,0,0,1,1.08-4.59c7.17-29.33,12.45-49,4-48.27C635,307.55,629.25,341.5,636.1,359.86Z"/><path class="cls-3" d="M792.64,263.58c-77.91-10.92-139.32-14-185.38,11.46-1.95,1.17,2.63-40.91,19.08-46.59,51.52-18.48,113.14,5.14,158.09,16.85,32.51-86.2,66.31-114.1,93.2-119.44,27.14-5.37,54.68,14.93,47.61,47.24-8.79,40-57,74.37-110.51,86.53a27.93,27.93,0,0,1-4.44.89c-5.3,18.93-10.55,39.36-15.72,62,13-32.83,28.08-49.62,52.84-51.79,26.75-2.34,32.33,43.59-18.69,76.5-.24.27-.23.52.3,1.47,12.49,23.36,17.87,26.64,22.24,23.76,5.53-5.23,14.3-10.48,22.17-27.14,4.15-9.1,9.29-10.24,6.5-4.75-7.21,14.11-27.05,37.3-34.67,46.7-8.82,10.75-18.08,15.25-24.11,13.28-8-2.79-12.6-12.13-30.18-46.27,0-.25.23-.52,16.79-17.19,27.59-27.87,26.1-49.45,17.43-48.69-11.89,1-27.83,35.38-45,98.77-3.59,18-3,19.73-3,19.73-17.23,4.5-36.17-4.32-26.68-45.58,6.18-26.7,13.86-65,21.77-85.83C775.75,266.28,786.91,265.28,792.64,263.58Zm20.24-14.52c.74-.06-.47,1,.51.71,41.7-8.14,69.69-38.78,74.26-71.63,4-29-1.67-47.77-16.88-42.45C848.92,143.34,832.11,181,812.87,249.05Z"/><path class="cls-3" d="M940.8,346.93c9.55-3.52,23.21-21.38,24.42-21,1.41.39-1.54,7.3-4.94,12.2-3.9,5.6-13.84,13.84-21.19,16.73-12.24,33.76-62.57,50.65-72.84,41.31-10.25-9.09,9.61-30.79,34.46-37.7,1.77-13.38-.18-26.44-3.57-38.12-12.26,18.79-27.8,36.37-40.41,52.2-3.81,4.83-12.15,7.8-5.47,0,20.76-24.28,33.07-49.06,38.48-71.75-7.25-15.59-15.36-27.36-16.53-32.24C870.06,256,918,249.6,918.3,250.32c1.73,14.07-.77,27.77-5.78,40.93,13.91,14.26,28.7,32.18,29.21,46.86A32.75,32.75,0,0,1,940.8,346.93ZM899.45,365c0-.5.27.74.5.22-15.23,5.08-21.18,16.26-15.69,20.08C888.1,388,894.83,385.8,899.45,365Z"/><text class="cls-4" transform="translate(265.3 546.22) rotate(-5) scale(1.42 1)">p</text></svg>