<svg xmlns="http://www.w3.org/2000/svg" viewBox="0 0 1096 396.84"><defs><style>.cls-1{fill:#fff;}.cls-2{opacity:0.8;}.cls-3{fill:#d8b8b4;}.cls-4{fill:#6cf;}.cls-5{opacity:0.72;}.cls-6{opacity:0.26;}.cls-7{fill:none;stroke:#4d4d4d;stroke-miterlimit:10;stroke-width:2px;opacity:0.08;}</style></defs><title>logo4</title><g id="Layer_2" data-name="Layer 2"><rect class="cls-1" width="1096" height="395.84"/></g><g id="Capa_1" data-name="Capa 1"><g class="cls-2"><path class="cls-3" d="M265.61,229c12.19-19.89,58.69-89.26,69.18-107.24a15.43,15.43,0,0,1,5.52.37c5.83-.79,28.87-1.64,26.3,5.35a260.12,260.12,0,0,0-10.37,44.18c-4.79,32.25-6.19,63-4.18,61.94,1.77-.89,7.76-5.93,13.2-16.72,3.14-5.91,0,0,4-5.51.61-.83,1.09,5.1-.9,8.66-5,9-10.31,18-15.94,24.07-6.3,7-14.82,11.85-19.13,10.58-6.46-1.91-9.48-15.59-8-31.56.26-2.45.63-6.68,1.32-11.91-9.53,6.1-25.63,11.9-47,13.6-2.69,3.93-5,7.19-6.54,9.9-14.15,24.26-15.15,26-15.33,26C244.75,263.67,248.57,256.89,265.61,229ZM335,145.86c-5.19,8-11.89,18.41-19.62,29.7-7.57,10.79-15.16,21.26-22.25,30.72l34.2-1.58C329.34,187.67,332.33,164.23,335,145.86Z"/><path class="cls-3" d="M378.16,178.67c-8.44-2.4-15.47-5.4-16.73-10.48-2.26-8.07,31.77-13.85,31.79-13.36.75,5.76-2.16,13.11-4.39,19.6l4.3,1.11c16.85,4.32,24.8,3.37,20,18.14a191.37,191.37,0,0,0-8.25,34.63c-1.65,7.9-.54,9.1,2.71,5.77,3.59-3.68,8.81-10.89,14.43-21.69,3-5.9,4-6.47,4.13-3.4a8.47,8.47,0,0,1-1,6.55c-5.15,9.14-10.49,18-15.94,24.07-7.84,8.55-16.59,12-20.9,10.72-6.82-2-12.29-15-5.41-39.2,7.81-27.8,9.72-28.76,5.06-30l-1.25-.22c-4.46,13.29-11.93,26.67-17.21,37.12a17.16,17.16,0,0,1-4.92,5.89c-2.77,1.84-3.52.93-.37-4.82C372.4,204.36,377,190.08,378.16,178.67Z"/><path class="cls-3" d="M463.66,148.91c-1.05,2.72-2.17,5.68-3.3,8.85-1.3,3.64-2.63,7.54-3.9,11.62-7.43,23.72-12.47,45-14,55.79-.81,6.54,1.14,5.4,4.56,2.21,3.09-2.83,7.14-7.19,12.58-18,3.78-8.33,7.16-13.28,7.27-10.38,0,1-1.56,9.19-3.56,12.74-5,9-10.88,18.75-16.51,24.86-6.3,7-13.11,10.1-17.42,8.82-6.64-1.9-12.79-14-9.14-29.85,1.81-8.53,7.72-31.21,14.67-58.07.34-2,9.19-5.69,10.76-6.25,0,0,.78-.08-8.36.68-3,.24-6.19.49-9.56.6-2.46-3.85.16-9.56,5.64-10.31l6.37-.51c1.54-6.11,2.89-12.52,4.42-19,.15-.66,31.49-2.66,28.43,5.35-.16.34-2.31,4.55-5.24,11.42l15.93-1.26c.35,0,.37.29-.13,1.14C479.09,144.13,473.7,147,463.66,148.91Z"/><path class="cls-3" d="M497.42,222.91c-2.09-12.78.62-30.14,5.3-42.16,1.46-3.67,28.65-7.29,27.85-5a142.41,142.41,0,0,1-20.43,41.09c-1.37,10.62,0,18.44,6,18,9.56-.76,17.88-19.87,23.23-37.6-12.66-10.64-7.48-37.25,10.56-43.69,13.65-5,25.06,10.14,19.11,30.67a41.3,41.3,0,0,1-3.91,9c5.58-2.71,10.11-4.84,12.25-9,3.15-5.91,4-6.47,4.13-3.4a9.72,9.72,0,0,1-1.69,6.6c-2.33,3.91-10.12,9.38-18.15,12.76-12,19.4-34,38-49.08,39.16-6.72.53-11-3.34-13.33-9.62-7.35,7.22-15,11.87-22.06,12.43-14.69,1.17-23.84-15.26-9.44-51.66,8.08-20.7,5.87-31.85,5.87-32,15.28-4.13,29.29,9.32,21.38,29.85-14.55,37.07-20.8,49.86-14.25,49.34C485.37,237.29,491.35,231.32,497.42,222.91ZM540,190.56l1.79-4.18c5.66-19.05,6.12-25.39,2.8-24.16C539.35,164.1,533.05,180.27,540,190.56Z"/><path class="cls-3" d="M638.12,203c-11.5,19.52-31.35,29.5-43.91,30.5-15.22,1.21-29.83-18.66-23.4-40.69,9.88-33.78,43.15-50.17,51.06-43a48.78,48.78,0,0,1,4.07,4.37c13.15.41,24.68,14.06,18.54,34.44a18.7,18.7,0,0,1-1.93,5,38.31,38.31,0,0,0,6.1-7.26c3.66-5.89,5.93-16.24,7.39-29.54-8.62-2.55-16-5.85-17.27-10.6-2.26-8.07,28.46-17,28.48-16.5,1,6.72.2,14.54-1.61,22.61,1.43.37,3.05.89,4.84,1.23,16.85,4.32,24.8,3.37,20,18.14-4.28,13.44-7,19.33-8.25,34.63-.43,5.25-.14,5.49,2.11,4.18,4-3.23,8.69-9.25,14.31-20,3-5.9,4.72-6.52,4.84-3.46a11,11,0,0,1-1.69,6.6c-5.15,9.14-11.2,18-16.65,24.13-6.3,7-11.69,10-16,8.71-6.64-1.9-15.61-13.64-8.89-37.31,7.81-27.8,11.52-28.09,6.86-29.34l-3.22-.71c-3,10.27-6.37,23.27-11.43,30.35C650,193.33,645,199.79,638.12,203Zm-24-1c-10.36-10.83-6.37-41.07,6-46.9-8.81-3-16.33,13.91-22.24,35.57-5.11,19.33-7.92,38.64-.66,38.07C604.65,228.15,609.71,216.58,614.12,202Zm2.34-8.27a18.68,18.68,0,0,1,.77-3c5.13-19,8.89-31.76,2.88-31.29C615.69,159.82,611.57,181.82,616.46,193.72Z"/><path class="cls-3" d="M728.31,131.31c-55.66-7.08-99.55-9.09-132.46,7.43-1.39.76,1.88-26.52,13.63-30.2,36.81-12,80.84,3.33,113,10.92,23.23-55.87,47.38-74,66.6-77.42,19.39-3.48,39.07,9.68,34,30.62-6.28,25.9-40.74,48.2-79,56.09a21.77,21.77,0,0,1-3.17.58c-3.79,12.27-7.54,25.51-11.23,40.2,9.3-21.28,20.06-32.17,37.76-33.57,19.11-1.52,23.1,28.25-13.36,49.59-.17.18-.16.34.21,1,8.93,15.14,12.77,17.27,15.89,15.4,4-3.39,10.22-6.79,15.84-17.59,3-5.9,6.63-6.63,4.64-3.08-5.15,9.14-19.33,24.18-24.78,30.27-6.3,7-12.92,9.88-17.23,8.61-5.75-1.81-9-7.86-21.57-30,0-.16.16-.34,12-11.14,19.72-18.06,18.65-32.05,12.45-31.56-8.49.67-19.89,22.93-32.15,64-2.57,11.69-2.17,12.79-2.17,12.79-12.31,2.92-25.85-2.8-19.07-29.55,4.42-17.31,9.9-42.16,15.56-55.64C716.24,133.07,724.21,132.42,728.31,131.31Zm14.46-9.41c.53,0-.34.68.36.46,29.79-5.28,49.8-25.14,53.06-46.43C799,57.1,795,45,784.13,48.42,768.52,53.38,756.51,77.78,742.77,121.9Z"/><path class="cls-3" d="M834.18,185.34c6.82-2.28,16.58-13.86,17.45-13.64s-1.1,4.73-3.53,7.91c-2.79,3.63-9.89,9-15.14,10.85-8.74,21.89-44.71,32.83-52,26.78-7.33-5.89,6.86-20,24.62-24.44,1.26-8.67-.13-17.14-2.55-24.71-8.76,12.18-19.86,23.58-28.87,33.84-2.72,3.13-8.68,5.06-3.91,0,14.84-15.74,23.63-31.8,27.5-46.51-5.18-10.1-11-17.73-11.81-20.9-2.26-8.07,32-12.25,32.21-11.78,1.24,9.12-.55,18-4.13,26.53,9.94,9.24,20.51,20.86,20.87,30.37A19.35,19.35,0,0,1,834.18,185.34Zm-29.55,11.73c0-.32.2.48.36.14-10.88,3.29-15.13,10.54-11.21,13C796.52,212,801.33,210.54,804.63,197.07Z"/></g><path class="cls-4" d="M396.62,389.37"/><g class="cls-2"><path class="cls-3" d="M873.43,253.71c30.76,4,30.47,33.23,26.37,32.58C703,257.55,361.28,300.36,227.12,336.42c-10,2.72-10.55-3.77-10.55-3.77C387.59,283.3,715.54,233,873.43,253.71Z"/></g><g class="cls-5"><path class="cls-6" d="M366,91.29h-15.1V100h16.82v2.61H345.85V78.47h21v2.61h-16v7.63H366Z"/><path class="cls-6" d="M374.2,78.76a92.88,92.88,0,0,1,9.62-.47c5,0,8.58.72,10.89,2a5.73,5.73,0,0,1,3.4,5,5.89,5.89,0,0,1-3,5.16c-2.65,1.75-7,2.65-11.87,2.65a27.49,27.49,0,0,1-4-.21v9.67h-5Zm5,11.64a26.72,26.72,0,0,0,4.15.25c6,0,9.74-1.83,9.74-5.16s-3.63-4.73-9.16-4.73a33.45,33.45,0,0,0-4.72.25Z"/><path class="cls-6" d="M404.85,78.76a92.88,92.88,0,0,1,9.62-.47c5,0,8.58.72,10.89,2a5.73,5.73,0,0,1,3.4,5,5.89,5.89,0,0,1-3,5.16c-2.65,1.75-7,2.65-11.87,2.65a27.49,27.49,0,0,1-4-.21v9.67h-5Zm5,11.64a26.72,26.72,0,0,0,4.15.25c6,0,9.74-1.83,9.74-5.16s-3.63-4.73-9.16-4.73a33.45,33.45,0,0,0-4.72.25Z"/><path class="cls-6" d="M455.61,91.29h-15.1V100h16.82v2.61H435.51V78.47h21v2.61h-16v7.63h15.1Z"/><path class="cls-6" d="M463.85,78.79a83.34,83.34,0,0,1,9.62-.5c5.36,0,8.82.61,11.24,2a5.27,5.27,0,0,1,3.05,4.58c0,3.19-3.23,5.3-7.32,6.16v.11a7.3,7.3,0,0,1,5.7,4.87c1.27,3.37,2.19,5.69,3,6.63H484c-.63-.68-1.5-2.76-2.59-5.77-1.15-3.33-3.23-4.58-7.78-4.69h-4.72v10.46h-5Zm5,11H474c5.36,0,8.76-1.83,8.76-4.58,0-3.12-3.63-4.48-8.93-4.51a32.83,32.83,0,0,0-5,.29Z"/><path class="cls-6" d="M494.16,98.81a26.31,26.31,0,0,0,9,1.58c5.13,0,8.12-1.68,8.12-4.12,0-2.26-2.07-3.55-7.32-4.8-6.34-1.4-10.26-3.44-10.26-6.84,0-3.76,5-6.55,12.56-6.55a26.76,26.76,0,0,1,8.58,1.18l-1.38,2.54a23.15,23.15,0,0,0-7.38-1.15c-5.3,0-7.32,2-7.32,3.62,0,2.26,2.36,3.37,7.72,4.66,6.57,1.58,9.91,3.55,9.91,7.09,0,3.72-4.44,6.95-13.6,6.95a30.14,30.14,0,0,1-9.91-1.54Z"/><path class="cls-6" d="M556.44,90.29c0,8.31-8.12,12.71-18,12.71C528.15,103,521,98.06,521,90.76c0-7.66,7.66-12.68,18-12.68C549.59,78.08,556.44,83.13,556.44,90.29Zm-30.13.39c0,5.16,4.49,9.78,12.39,9.78s12.45-4.55,12.45-10c0-4.8-4-9.81-12.39-9.81S526.31,85.38,526.31,90.68Z"/><path class="cls-6" d="M563,102.61V78.47h5.47l12.45,12.21a68.11,68.11,0,0,1,7,7.84l.12,0a67,67,0,0,1-.58-9.92V78.47h4.72v24.14H587L574.71,90.36a76.94,76.94,0,0,1-7.26-8.06l-.17,0c.29,3,.4,5.95.4,10v10.31Z"/></g><line class="cls-7" y1="395.84" x2="1096" y2="395.84"/></g></svg>