<svg xmlns="http://www.w3.org/2000/svg" viewBox="0 0 1096 396.84"><defs><style>.cls-1{fill:#fff;}.cls-2{fill:#6cf;}.cls-3{fill:none;stroke:#4d4d4d;stroke-width:2px;opacity:0.08;}.cls-10,.cls-3{stroke-miterlimit:10;}.cls-4{font-size:159.08px;fill:#d8b8b4;font-family:Pacifico-Regular, Pacifico;}.cls-5{letter-spacing:0.03em;}.cls-6{letter-spacing:0em;}.cls-7{opacity:0.74;}.cls-8{opacity:0.26;}.cls-10,.cls-9{fill:#cdb6b2;}.cls-10{stroke:#fff;stroke-linecap:round;}</style></defs><title>logo7</title><g id="Layer_2" data-name="Layer 2"><rect class="cls-1" width="1096" height="395.84"/></g><g id="Capa_1" data-name="Capa 1"><path class="cls-2" d="M396.62,389.37"/><path class="cls-1" d="M873.43,257.71c30.76,4,30.47,33.23,26.37,32.58C703,261.55,361.28,304.36,227.12,340.42c-10,2.72-10.55-3.77-10.55-3.77C387.59,287.3,715.54,237,873.43,257.71Z"/><line class="cls-3" y1="395.84" x2="1096" y2="395.84"/><text class="cls-4" transform="translate(198.58 269.37) rotate(-4.51)">Ar<tspan class="cls-5" x="203.77" y="0">t</tspan><tspan class="cls-6" x="271.06" y="0">works</tspan></text><g class="cls-7"><path class="cls-8" d="M259.41,92.11v3H236.92V67.58H259v2.77H242.34v9.36h15v2.75h-15v9.64Z"/><path class="cls-8" d="M274.6,85.09V95.15h-5.42V67.58h10.36a32.9,32.9,0,0,1,9.31,1,9.62,9.62,0,0,1,4.48,2.78,6.15,6.15,0,0,1,1.56,4.09,7.21,7.21,0,0,1-2.09,4.94A13.4,13.4,0,0,1,287,83.86a33.52,33.52,0,0,1-10.16,1.23Zm0-2.75h2.34a24,24,0,0,0,7.46-.86A8.23,8.23,0,0,0,288.16,79a5.45,5.45,0,0,0,1.32-3.5,4.23,4.23,0,0,0-2.35-3.77q-2.35-1.39-9.27-1.39H274.6Z"/><path class="cls-8" d="M307.59,85.09V95.15h-5.42V67.58h10.36a32.9,32.9,0,0,1,9.31,1,9.62,9.62,0,0,1,4.48,2.78,6.15,6.15,0,0,1,1.56,4.09,7.21,7.21,0,0,1-2.09,4.94A13.4,13.4,0,0,1,320,83.86a33.52,33.52,0,0,1-10.16,1.23Zm0-2.75h2.34a24,24,0,0,0,7.46-.86A8.23,8.23,0,0,0,321.15,79a5.45,5.45,0,0,0,1.32-3.5,4.23,4.23,0,0,0-2.35-3.77q-2.35-1.39-9.27-1.39h-3.25Z"/><path class="cls-8" d="M358.38,92.11v3H335.89V67.58H358v2.77H341.31v9.36h15v2.75h-15v9.64Z"/><path class="cls-8" d="M372.85,83.42V95.15h-5.42V67.58h11.13a31.71,31.71,0,0,1,8,.74,8.59,8.59,0,0,1,4,2.23A4.61,4.61,0,0,1,392,73.75,6.36,6.36,0,0,1,391,77a10,10,0,0,1-2.58,2.88,18.08,18.08,0,0,1-4.75,2.4l12,12.89h-6.46l-11-11.72Zm0-2.75h7.57a14.5,14.5,0,0,0,3.8-1.89,7.4,7.4,0,0,0,1.89-2,4.23,4.23,0,0,0,.64-2.17,3.45,3.45,0,0,0-2.13-3.09q-2.13-1.15-7.73-1.15h-4Z"/><path class="cls-8" d="M400.63,94.56V91.18a38.87,38.87,0,0,0,11.67,2,15.56,15.56,0,0,0,4.2-.56,6.7,6.7,0,0,0,3-1.61,3.2,3.2,0,0,0,1-2.28,3.6,3.6,0,0,0-1.42-2.69,19,19,0,0,0-5.32-2.77l-2.72-1-2.76-1.06Q401,78.36,401,74.11q0-3.11,3.26-5.24t10.19-2.13a43.73,43.73,0,0,1,8.62.83v3.07a36.47,36.47,0,0,0-8.92-1.15,11.26,11.26,0,0,0-5.59,1.21q-2.13,1.21-2.13,2.92a3.32,3.32,0,0,0,1.63,2.81,19.17,19.17,0,0,0,4.17,2.06l2.11.84,2.61,1,2.15.86Q426,84,426,88.2q0,3.2-3.51,5.49T411.22,96a38.55,38.55,0,0,1-4.71-.28A56.23,56.23,0,0,1,400.63,94.56Z"/><path class="cls-8" d="M445.89,96q-7.09,0-10.83-4t-3.74-10.67q0-6.7,3.74-10.65t10.83-4q7.11,0,10.84,4t3.73,10.65q0,6.72-3.73,10.67T445.89,96Zm0-2.75a8.38,8.38,0,0,0,6.54-2.94Q455,87.34,455,81.36t-2.62-8.92a8.73,8.73,0,0,0-13.07,0q-2.62,2.94-2.62,8.92t2.62,8.92A8.38,8.38,0,0,0,445.89,93.23Z"/><path class="cls-8" d="M470.77,95.15h-5V67.58h4.89l14.71,18.35L487,88.66h.13L487,85.93V67.58h5V95.15h-5l-14.31-18-2-2.9.11,2.86Z"/></g><path class="cls-9" d="M306,337.66c26.36-12.9,24.22-3,40.32-20.79l-.49,6s5.94-7.54,7.59-11.42l-.33,4,11.24-7.11h0c15.53-10.77,19.34-8.46,19.34-8.46,16.77-9.67,19.17-6.46,19.17-6.46,7.1-5.44,20.5-6.35,20.5-6.35,30.57-15.57,47.36-9.18,58.36-13.3s40.34-4.73,44.47-6.4,10.34,3.85,21.49-2.26,26.46,2.16,26.46,2.16,146.67-2.08,170.65-2.13,124.61,7.16,128,31.51l-14.88,2.8,14.39,3.18s3.32,8.3-9.48,18.29c0,0-6.53-1.54-14.31-4.18l8.69,7.73s-3.22,6.76-10.07,9.21L814.93,319s-1.14,14,12.85,22.12c0,0-22.82,2.15-34-7.79,0,0-7.75,13.41-24.38,5l-14.15-6.17s-7.94-.65-23.73-2.94-22.33-3.83-29.19-1.38-32.08,1.4-32.08,1.4l-6.37-3.53s-16.2,2.69-25.54,2.93-2.24-5.2-30.67.51-32.08,1.4-34.64.18-38.45-2.13-76.39,5.81-57.19,15.4-68.94,12.43-15.39-7.28-22.49-1.84-20.5,6.35-20.5,6.35l.92,5.09s-9.42,1.24-13.23-1.08l-18.85,2.48L334.26,350l11.09,10.94c10.34,3.85-17-3.4-22.09-6.82s-33.4,1.27-33.4,1.27"/><path class="cls-10" d="M184.82,386c19.25-7.46,241.91-75.58,285.22-84.08,126.05-24.75,227.67-25.12,401.39,8.63,0,0-137.79-31.76-267.21-20.75C476.55,300.62,377.69,332,276.28,366.84,205.3,391.25,184.82,386,184.82,386Z"/></g></svg>