<svg id="Layer_1" data-name="Layer 1" xmlns="http://www.w3.org/2000/svg" xmlns:xlink="http://www.w3.org/1999/xlink" viewBox="0 0 222.6 222.6"><defs><style>.cls-1{fill:url(#linear-gradient);}.cls-2{isolation:isolate;}.cls-3{fill:#f1f2f2;}.cls-4{fill:none;stroke:#fff;stroke-miterlimit:10;stroke-width:4px;}</style><linearGradient id="linear-gradient" y1="112.7" x2="222.6" y2="112.7" gradientTransform="matrix(1, 0, 0, -1, 0, 224)" gradientUnits="userSpaceOnUse"><stop offset="0.07" stop-color="#fbb040"/><stop offset="1" stop-color="#ee2a7b"/></linearGradient></defs><title>upsite</title><rect class="cls-1" width="222.6" height="222.6"/><g class="cls-2"><g class="cls-2"><path class="cls-3" d="M76.56,99.07l.22,22.46-7.22,4.08.1-1.93a10.8,10.8,0,0,1-1.8,2.73,10,10,0,0,1-2.48,2,6.42,6.42,0,0,1-2.66,1,1.79,1.79,0,0,1-1.57-.56,3,3,0,0,1-.64-1.52,36,36,0,0,1-.16-3.8l-.15-15.15,7.1-4,.15,15.28a13.68,13.68,0,0,0,.2,3c.11.26.42.26.91,0a1.75,1.75,0,0,0,.93-1,20.54,20.54,0,0,0,.12-3.35l-.15-15.11Z"/><path class="cls-3" d="M86.32,93.55l-.1,2.05a14.68,14.68,0,0,1,2.07-3,10.15,10.15,0,0,1,2.49-2,4.64,4.64,0,0,1,2.86-.76A1.68,1.68,0,0,1,95.16,91a14.27,14.27,0,0,1,.34,3.62l.09,9.46a20.23,20.23,0,0,1-.33,4.57,7.45,7.45,0,0,1-1.52,2.94,9.78,9.78,0,0,1-2.81,2.37,5.47,5.47,0,0,1-2.45.79,3.37,3.37,0,0,1-2.07-.6l.05,5.15-7.1,4L79.1,97.63Zm2.09,5.39a9.64,9.64,0,0,0-.18-2.43q-.16-.35-.88.06a1.81,1.81,0,0,0-.9,1,10.17,10.17,0,0,0-.18,2.57l.09,9.31a7.46,7.46,0,0,0,.24,2.42c.14.26.45.26.92,0a1.65,1.65,0,0,0,.85-.95,10.18,10.18,0,0,0,.15-2.35Z"/><path class="cls-3" d="M112.33,86,106,89.6V88.38a5.16,5.16,0,0,0-.2-1.87c-.12-.21-.43-.17-.93.11a2.21,2.21,0,0,0-.89.89,2.67,2.67,0,0,0-.29,1.31,4.65,4.65,0,0,0,.16,1.43q.15.4.91.55a13.3,13.3,0,0,0,3.08-.06q3.11-.29,4.08.45t1,3.19a12,12,0,0,1-.7,4.55,10.76,10.76,0,0,1-2.45,3.55,19.06,19.06,0,0,1-4.16,3.11A13.86,13.86,0,0,1,101,107.4q-1.93.28-2.67-.71a6.91,6.91,0,0,1-.76-3.79v-1.08l6.29-3.56v1.42a5.94,5.94,0,0,0,.26,2.22q.24.41.95,0a2.63,2.63,0,0,0,1-1,3.6,3.6,0,0,0,.28-1.7q0-1.61-.41-1.79a21.09,21.09,0,0,0-4.15-.07q-3.14.08-3.84-.92a5.07,5.07,0,0,1-.72-2.89,11,11,0,0,1,.7-4.39,10.62,10.62,0,0,1,2.48-3.39,20.25,20.25,0,0,1,4.09-3,14.76,14.76,0,0,1,3.95-1.66,3.9,3.9,0,0,1,2.51.09,1.88,1.88,0,0,1,1.07,1.13,10.47,10.47,0,0,1,.21,2.38Z"/><path class="cls-3" d="M122,68.41,122,72l-7.31,4.13,0-3.57Zm0,4.94.22,22.46-7.31,4.13-.22-22.46Z"/><path class="cls-3" d="M132,64.69l0,3.54L134,67.14l0,3.55-1.92,1.08.12,12q0,2.22.26,2.34t2-.86l0,3.62-2.86,1.62a29.55,29.55,0,0,1-3.46,1.76,2.76,2.76,0,0,1-1.84.14,1.41,1.41,0,0,1-1-1.05,24.91,24.91,0,0,1-.24-4.15L125,75.8l-1.53.86,0-3.55,1.53-.86,0-3.54Z"/><path class="cls-3" d="M151.71,68.25l-9.19,5.2,0,4.86a4.15,4.15,0,0,0,.25,1.83q.23.31.88-.06a2.25,2.25,0,0,0,1.07-1.2,7.55,7.55,0,0,0,.25-2.41l0-3,6.73-3.81,0,1.66a16.34,16.34,0,0,1-.24,3.35,12,12,0,0,1-1.25,3.11,13.91,13.91,0,0,1-2.52,3.34A18.31,18.31,0,0,1,143.88,84a13.9,13.9,0,0,1-4,1.62,3.9,3.9,0,0,1-2.7-.2,2.92,2.92,0,0,1-1.35-1.65,12.45,12.45,0,0,1-.41-3.61l-.07-6.55a14.18,14.18,0,0,1,.78-5.11,12.24,12.24,0,0,1,2.68-4.14A18.4,18.4,0,0,1,143.15,61a10.77,10.77,0,0,1,4.94-1.7,2.91,2.91,0,0,1,2.75,1.35,9.91,9.91,0,0,1,.83,4.63Zm-7.15.37,0-1.64a6.74,6.74,0,0,0-.21-2.14q-.2-.4-.79-.06a1.81,1.81,0,0,0-.91.95,10,10,0,0,0-.15,2.43l0,1.64Z"/></g><g class="cls-2"><path class="cls-3" d="M74.23,127.49l.27,27.4-7.1,4,0-1.63A16.54,16.54,0,0,1,65.27,160a10.56,10.56,0,0,1-2.35,1.84,4.79,4.79,0,0,1-2.87.78,1.75,1.75,0,0,1-1.57-1.06,11.09,11.09,0,0,1-.38-3.39L58,147.68a15.91,15.91,0,0,1,.31-3.87A7.73,7.73,0,0,1,59.85,141a10.11,10.11,0,0,1,2.92-2.48,7.1,7.1,0,0,1,2.42-.91,3.51,3.51,0,0,1,2,.25l-.06-6.37Zm-7,14.61a3.2,3.2,0,0,0-.24-1.54q-.22-.3-.87.07a1.88,1.88,0,0,0-.85.86,5.12,5.12,0,0,0-.2,1.83l.11,11a3.88,3.88,0,0,0,.23,1.68q.21.31.81,0a1.91,1.91,0,0,0,.91-1,8.53,8.53,0,0,0,.2-2.49Z"/><path class="cls-3" d="M93,133.53l-9.19,5.2,0,4.86a4.13,4.13,0,0,0,.25,1.83c.16.21.45.19.88-.06a2.26,2.26,0,0,0,1.07-1.2,7.57,7.57,0,0,0,.25-2.41l0-3L93,135l0,1.66a16.47,16.47,0,0,1-.24,3.35,12,12,0,0,1-1.25,3.11A13.87,13.87,0,0,1,89,146.44a18.35,18.35,0,0,1-3.85,2.82,13.94,13.94,0,0,1-4,1.62,3.9,3.9,0,0,1-2.7-.2A2.93,2.93,0,0,1,77.17,149a12.46,12.46,0,0,1-.41-3.61l-.07-6.55a14.19,14.19,0,0,1,.78-5.11,12.25,12.25,0,0,1,2.68-4.14,18.41,18.41,0,0,1,4.31-3.35,10.78,10.78,0,0,1,4.94-1.7,2.91,2.91,0,0,1,2.75,1.35,9.9,9.9,0,0,1,.83,4.63Zm-7.15.37,0-1.64a6.74,6.74,0,0,0-.22-2.14c-.13-.27-.4-.29-.8-.06a1.81,1.81,0,0,0-.91.95,9.94,9.94,0,0,0-.15,2.43l0,1.64Z"/><path class="cls-3" d="M109.78,119.57l-6.29,3.56v-1.22a5.19,5.19,0,0,0-.2-1.87q-.19-.31-.93.11a2.22,2.22,0,0,0-.89.89,2.67,2.67,0,0,0-.29,1.31,4.64,4.64,0,0,0,.16,1.43c.1.26.4.45.91.55a13.33,13.33,0,0,0,3.08-.06q3.1-.29,4.08.45t1,3.19a12.05,12.05,0,0,1-.7,4.55,10.76,10.76,0,0,1-2.45,3.54,19.09,19.09,0,0,1-4.16,3.11,13.86,13.86,0,0,1-4.64,1.8q-1.93.28-2.67-.7a6.91,6.91,0,0,1-.76-3.79v-1.08l6.29-3.56v1.42a5.93,5.93,0,0,0,.26,2.22q.24.41.95,0a2.63,2.63,0,0,0,1.05-1,3.61,3.61,0,0,0,.28-1.7c0-1.07-.15-1.67-.41-1.79a21.06,21.06,0,0,0-4.15-.07q-3.14.08-3.84-.92a5.07,5.07,0,0,1-.72-2.89,11,11,0,0,1,.7-4.39,10.64,10.64,0,0,1,2.48-3.39,20.25,20.25,0,0,1,4.09-3,14.76,14.76,0,0,1,3.95-1.66,3.89,3.89,0,0,1,2.51.09,1.88,1.88,0,0,1,1.07,1.13,10.48,10.48,0,0,1,.21,2.38Z"/><path class="cls-3" d="M119.4,101.94l0,3.57-7.31,4.13,0-3.57Zm0,4.94.22,22.46-7.31,4.13L112.15,111Z"/><path class="cls-3" d="M138.12,96.32l.17,17.29a39.26,39.26,0,0,1-.12,4.62,8.31,8.31,0,0,1-1.16,2.84,14.3,14.3,0,0,1-2.82,3.35,25.91,25.91,0,0,1-4.57,3.19,12.74,12.74,0,0,1-5.46,2q-2.07.05-2.17-3.16l6.88-3.9q0,1.49,1.14.85a2.34,2.34,0,0,0,1.07-1.06,5.65,5.65,0,0,0,.25-2.06l0-1.69a15.33,15.33,0,0,1-1.91,2.29,10.31,10.31,0,0,1-2.11,1.6,6.4,6.4,0,0,1-3.16,1,1.81,1.81,0,0,1-1.71-1,7.94,7.94,0,0,1-.49-3.18l-.08-8.16a10.38,10.38,0,0,1,1.15-5.28,9.25,9.25,0,0,1,3.62-3.46,6.11,6.11,0,0,1,2.44-.85,3,3,0,0,1,2,.47l.49-2Zm-7.05,10a5.19,5.19,0,0,0-.2-1.86q-.19-.32-.82,0a1.91,1.91,0,0,0-.86,1,5.86,5.86,0,0,0-.24,2L129,115a5,5,0,0,0,.21,1.85c.13.22.4.22.81,0a1.84,1.84,0,0,0,.91-1.06,10,10,0,0,0,.19-2.57Z"/><path class="cls-3" d="M147.87,90.8l-.1,2.14A11.62,11.62,0,0,1,149.64,90a10,10,0,0,1,2.57-2.07,5,5,0,0,1,3-.86,1.73,1.73,0,0,1,1.51,1.25,15.78,15.78,0,0,1,.38,4l.16,15.74-7.1,4L150,96.55a12.52,12.52,0,0,0-.19-2.74q-.16-.42-.88,0a1.83,1.83,0,0,0-.94,1.12,15.77,15.77,0,0,0-.16,3.23l.15,15.18-7.1,4-.22-22.46Z"/></g></g><polygon class="cls-4" points="199.4 60.7 111 9.7 22.9 60.2 23.1 161.9 111.5 212.9 199.7 162.3 199.4 60.7"/></svg>