<?xml version="1.0" encoding="utf-8"?>
<!-- Generator: Adobe Illustrator 21.1.0, SVG Export Plug-In . SVG Version: 6.00 Build 0)  -->
<svg version="1.1" id="Layer_1" xmlns="http://www.w3.org/2000/svg" xmlns:xlink="http://www.w3.org/1999/xlink" x="0px" y="0px"
	 viewBox="0 0 994.7 704.8" style="enable-background:new 0 0 994.7 704.8;" xml:space="preserve">
<style type="text/css">
	.st0{fill:#C0E8F2;}
	.st1{fill:#DED6C6;}
	.st2{fill:#38A040;}
	.st3{fill:#E5745A;}
	.st4{fill:#0B2811;}
	.st5{fill:#134920;}
	.st6{fill:#FAFCFC;}
	.st7{fill:#7F4C18;}
	.st8{fill:#351A07;}
	.st9{fill:#F7A706;}
	.st10{fill:#D3860B;}
	.st11{fill:#070707;stroke:#000000;stroke-miterlimit:10;}
	.st12{fill:#F7F4F2;}
	.st13{fill:#050505;stroke:#000000;stroke-miterlimit:10;}
	.st14{fill:#050505;}
	.st15{fill:#E5A980;}
	.st16{fill:#DD8C68;}
	.st17{fill:#56361D;}
	.st18{fill:#29437C;}
	.st19{fill:none;stroke:#000000;stroke-miterlimit:10;}
	.st20{fill:#BF6B5E;}
	.st21{fill:#1C6027;}
	.st22{fill:#020202;stroke:#000000;stroke-miterlimit:10;}
	.st23{fill:#F9CB0B;}
	.st24{fill:#99544D;}
	.st25{fill:#324F8E;}
	.st26{fill:#4267BA;}
	.st27{fill:none;stroke:#E8E81A;stroke-width:0.5;stroke-miterlimit:10;}
	.st28{fill:#E0930A;}
	.st29{fill:none;stroke:#EFCE45;stroke-width:5;stroke-linecap:round;stroke-miterlimit:10;}
	.st30{fill:#F9F6F4;stroke:#000000;stroke-miterlimit:10;}
	.st31{fill:#EFB297;}
	.st32{clip-path:url(#SVGID_2_);}
	.st33{fill:#99411A;}
	.st34{fill:#EA976A;}
	.st35{fill:none;stroke:#E5745A;stroke-width:4;stroke-linecap:round;stroke-miterlimit:10;}
	.st36{fill:#51493A;}
	.st37{fill:#895B2E;}
	.st38{fill:#F7F6F5;}
	.st39{fill:#B26B2B;}
	.st40{fill:#DDDAD7;}
	.st41{fill:#EFCE45;}
	.st42{fill:#AD5634;}
	.st43{fill:#B76349;}
	.st44{fill:none;stroke:#F7E07C;stroke-width:5;stroke-linecap:round;stroke-miterlimit:10;}
	.st45{fill:none;stroke:#665B2C;stroke-width:10;stroke-linecap:round;stroke-miterlimit:10;}
	.st46{fill:none;stroke:#665B2C;stroke-width:5;stroke-linecap:round;stroke-miterlimit:10;}
	.st47{fill:none;stroke:#665B2C;stroke-linecap:round;stroke-miterlimit:10;}
	.st48{fill:#E27247;stroke:#665B2C;stroke-width:0.75;stroke-miterlimit:10;}
	.st49{fill:none;stroke:#F9CB0B;stroke-width:5;stroke-linecap:round;stroke-miterlimit:10;}
	.st50{fill:none;stroke:#4C2709;stroke-width:2;stroke-linecap:round;stroke-miterlimit:10;}
	.st51{clip-path:url(#SVGID_4_);}
	.st52{fill:#C96353;}
</style>
<title>walker_mower_thank_you_outlines</title>
<g id="Capa_1">
	<ellipse class="st0" cx="472" cy="227.9" rx="441.7" ry="227.9"/>
	<rect y="380.6" class="st1" width="994.7" height="324.1"/>
</g>
<g id="Layer_2">
	<path class="st2" d="M320.8,393.2c0,0-149.1-10.1-174.5,6.4s-26,28.5,0,35.5s62,13,50,22s-60,7-114,6s-86,23-82,33
		s47.8,51.4,130,47.6s70,70.4,60,74.4s-100.7,30-69.3,50s108.8,34,178.1,20s112.7-28,151-20s16.1,28,70.2,32s166,12,171-12
		s-49-30-59-40s0-35.6,32-40.9c32.7-5.3,94.1,7.8,114,0c20.5-8,20-24.1,60-26.6s88,2.5,94-16s62-41.1,62-56.8s17-72-174-75.4
		S320.8,393.2,320.8,393.2z"/>
	<path class="st3" d="M379.8,389L379.8,389c1.1,0,2,0.9,2,2v3.5c0,1.1-0.9,2-2,2l0,0c-1.1,0-2-0.9-2-2V391
		C377.8,389.9,378.7,389,379.8,389z"/>
	<path class="st4" d="M347.4,415.3h170.7c6.6,0,12,5.4,12,12V472c0,6.6-5.4,12-12,12H347.4c-6.6,0-12-5.4-12-12v-44.7
		C335.4,420.7,340.8,415.3,347.4,415.3z"/>
	<path class="st5" d="M300.3,474.9c-0.5-0.1-0.9-0.1-1.4,0c-38.5,4-50.3-4.9-46.3,15.1c4,20,2.3,18.6,23.1,26.3
		c18.9,7,38,22.9,41.3,25.8c0.3,0.3,0.7,0.5,1.1,0.7c5.1,2.5,40.1,20.6-3.6,27.1c-47,7-58.4,7-51.7,16s26.2,32,56.4,34
		c29.1,1.9,354.2-12.7,378.8-13.8c1,0,1.9-0.3,2.7-0.9l69.5-45.8c2.5-1.6,3.1-4.9,1.5-7.4c-0.8-1.3-2.1-2.1-3.6-2.3L300.3,474.9z"/>
	<path class="st6" d="M16.2,329.2c151.5-51.1,583.9-92.3,709.7-92"/>
	<path class="st6" d="M101.3,280.7c272.4-108.2,590-79.5,715.8-79.1"/>
	<path class="st6" d="M739.2,158.8c-29.2-78.2-112.7-6.4-128.5-36.2c-33.3-62.7-71.3-54-95-37.4c-25.1,17.5-37.7,34-43.8,47.5
		c-4.4,9.6-15.7,13.9-25.4,9.5c-0.4-0.2-0.9-0.4-1.3-0.7c-36-19.9-70.5,39.1-70.5,39.1"/>
</g>
<g id="Layer_5">
	<path class="st7" d="M510.4,431.4l-15,7.3L510.4,431.4L498,445.2l4.6,16.8l33.5-16.8c19.6-21.6-2.5-16.4-8.2-16.2
		S516.8,432,510.4,431.4"/>
	<path class="st7" d="M544.1,431.5l4.6,16.8l33.5-16.8c19.6-21.6-2.5-16.4-8.2-16.2s-11,3-17.5,2.3"/>
	<path class="st8" d="M509.9,458.4l26.2-13.2l6.9-9.4c1-4.4,0.8-6.2-3.2-4.5"/>
	<path class="st8" d="M556,444.6l26.2-13.2l6.9-9.4c1-4.4,0.8-6.2-3.2-4.5"/>
</g>
<g id="Layer_4">
	<path class="st9" d="M305.3,419.2l76.7,36.1c1.1,0.5,2.3,0.6,3.4,0.3l147.2-40.3c2.6-0.7,4.1-3.4,3.4-6c-0.3-1.3-1.2-2.3-2.3-3
		l-35.1-19.8c-0.4-0.2-0.8-0.4-1.2-0.5l-164.6-40.8c-0.6-0.1-1.2-0.2-1.8-0.1l-56.9,6.9c-1.3,0.2-2.4,0.8-3.2,1.8l-4.8,6
		c-1.6,2-1.4,5,0.5,6.7l27.4,24.6c0.7,0.6,1.1,1.3,1.4,2.2l7.3,22.9C303.1,417.5,304.1,418.6,305.3,419.2z"/>
	<path class="st10" d="M280.9,362.6l27.9,26.4l7.8,23.1l62.6,21.8l138-35.4L498,386.2l-162.6-33.9l-53,5.9c-1.4,0.1-2.4,1.4-2.3,2.8
		C280.2,361.6,280.4,362.2,280.9,362.6z"/>
	
		<ellipse transform="matrix(0.8206 -0.5716 0.5716 0.8206 -227.4212 221.3206)" class="st11" cx="238.8" cy="472.8" rx="24" ry="28.7"/>
	<path class="st12" d="M308.4,474.8l-54.4-16.5c-6.6-0.7-12.4-5.2-12.9-10l-3.2-28.9c-0.5-4.7,4.4-8,11-7.3l54.5,6.1
		c6.6,0.7,12.4,5.2,12.9,10l3.2,28.9C319.9,461.8,314.9,475.5,308.4,474.8z"/>
	<path class="st13" d="M337.2,428.1l-36.9,6.4c-2.5,0.4-4.1,2.8-3.7,5.2c0,0.3,0.1,0.5,0.2,0.8L336.7,548c0.8,2.3,3.3,3.5,5.6,2.7
		l43-13.7c1.9-0.6,3.1-2.3,3.1-4.3c0.6-89.9-42.6-103.1-49.5-104.6C338.4,428,337.8,428,337.2,428.1z"/>
	<path class="st3" d="M399.5,154.4c4.6-5.6,11.9-10.1,14.2,4.4c2.1,13-12.8,15.6-12.8,15.6"/>
	<path class="st14" d="M321.4,307.3l12.9-3.7c6.4-1.8,13,1.8,14.9,8.2l20.4,70.6c1.8,6.4-1.8,13-8.2,14.9l-12.9,3.7
		c-6.4,1.8-13-1.8-14.9-8.2l-20.4-70.6C311.3,315.8,315,309.1,321.4,307.3z"/>
	<path class="st15" d="M396,281.9c13.3,27.9,90.7,48.4,112.6-36.2c0,0-5.6-2.2-8.7-11.1c0,0-27.2,75.7-82.5,35L396,281.9z"/>
	<path class="st5" d="M380.3,235.8c0,0,26.5,4.8,32.6,13.6c6.1,8.9,37.2,26.4,37.2,26.4l-8.5,36.3l-18.4-11
		c-1.4-6,4.5,37.7,27.7,49.3c0,0-69.2,4.6-88.7,27.1c0,0-34.4-46.5-39.5-76.4s-6-45.6-6-45.6l39.6-19.7L380.3,235.8z"/>
	<path class="st16" d="M369.6,205.8l1.2,0.1c6.6,0.7,11.5,6.6,10.8,13.2l-2.5,25.5c-0.7,6.6-6.6,11.5-13.2,10.8l-1.2-0.1
		c-6.6-0.7-11.5-6.6-10.8-13.2l2.5-25.5C357,210,362.9,205.1,369.6,205.8z"/>
	<path class="st15" d="M334,138.1l43.9-5.4c10.3-1.3,19.7,6.1,21,16.4l6.1,49.5c1.3,10.3-6.1,19.7-16.4,21l-43.9,5.4
		c-10.3,1.3-19.7-6.1-21-16.4l-6.1-49.5C316.3,148.7,323.7,139.4,334,138.1z"/>
	<path class="st16" d="M329.5,141.2c0,0,20.9,9.2,29.9,10.5s39.5-2.7,39.5-2.7l-1.5-11.8l-63.4,0.8L329.5,141.2z"/>
	<path class="st17" d="M311.3,160.8c-4.5-5.2-1.7-14.9-1.7-14.9l21.2-6.3c0,0-15,15.3-12.1,28.5L311.3,160.8z"/>
	<path class="st18" d="M309.6,146.3l84.8-21c0,0-7.5-16.2-10-24.2s-22.5-19.5-44.5-15.5s-31.8,26-31.5,37.8S309.6,146.3,309.6,146.3
		z"/>
	<ellipse transform="matrix(0.9925 -0.1222 0.1222 0.9925 -19.5781 42.6649)" class="st3" cx="338" cy="180.9" rx="6.8" ry="2.4"/>
	
		<ellipse transform="matrix(0.9925 -0.1222 0.1222 0.9925 -18.3298 49.0289)" class="st3" cx="390.5" cy="173.9" rx="6.8" ry="2.4"/>
	<ellipse transform="matrix(0.6107 -0.7919 0.7919 0.6107 4.461 365.1255)" class="st19" cx="373.6" cy="178" rx="1.1" ry="2.6"/>
	<path class="st20" d="M376.8,193.6c1.9,0.8,3.4,1.6,3.8,4.1c0,0,1.2-2.4,0-3.8S376.8,193.6,376.8,193.6z"/>
	<path class="st20" d="M360.5,195.7c-1.9,0.8-3.4,1.6-3.8,4.1c0,0-1.2-2.4,0-3.8S360.5,195.7,360.5,195.7z"/>
	<path class="st19" d="M316.4,177.7c0.8,2.7-0.8-8-3.8-9.6s-5.2,0-5.4,1.2C307.1,169.2,313.9,169,316.4,177.7z"/>
	
		<ellipse transform="matrix(0.9925 -0.1222 0.1222 0.9925 -16.7541 47.6914)" class="st17" cx="380.4" cy="160.4" rx="3.1" ry="8.6"/>
	<path class="st15" d="M313.1,271.2c-31.2,17-56.2,107.3,42.5,127.3c0,0,2.2-6.6,12.3-10.7c0,0-88.5-28.2-45.2-94.4L313.1,271.2z"/>
	<path class="st21" d="M278.6,316.5l38,15l19.3-39.7c0,0-8.1-40-19.3-36.3C316.6,255.5,299.1,272.9,278.6,316.5z"/>
	<ellipse transform="matrix(0.5 -0.866 0.866 0.5 -247.8592 776.8719)" class="st19" cx="548.9" cy="603.1" rx="18.5" ry="22.1"/>
	
		<ellipse transform="matrix(0.4118 -0.9113 0.9113 0.4118 -16.201 1052.3892)" class="st22" cx="807.1" cy="538.7" rx="32.9" ry="39.2"/>
	
		<ellipse transform="matrix(0.9127 -0.4086 0.4086 0.9127 -170.2271 171.6533)" class="st13" cx="316.6" cy="484.2" rx="36.7" ry="52.9"/>
	<path class="st3" d="M362.8,160.8c-4.4,0.5-5.6,7.7-5.6,11s0.4,8,3.5,11.5s10.5,6.8,14.8,4.8s7.9-8.2,1.2-11.9s-8-6.9-9.7-10.8
		C364.6,160,362.8,160.8,362.8,160.8z"/>
	<path class="st19" d="M322.6,191.4"/>
	<path class="st19" d="M299.9,170.5"/>
	<path class="st3" d="M318.5,166.3c-4.1-6-16.1-8-19.6,6.2c-3.1,12.8,22.7,15.9,22.7,15.9"/>
	<path class="st23" d="M628.5,411.7l195.7,65.1c6.3,2.1,9.7,8.9,7.6,15.2l0,0c-2.1,6.3-8.9,9.7-15.2,7.6L621,434.5
		c-6.3-2.1-9.7-8.9-7.6-15.2l0,0C615.5,413.1,622.2,409.7,628.5,411.7z"/>
	<path class="st24" d="M401.4,165c-1.1,2.7,1.1-8,5.4-9.6l0.7-0.2c2.2-0.7,3.7,1.6,1.6,2.4C405.6,158.8,402.8,161.5,401.4,165z"/>
	<path class="st17" d="M357.8,196c1.2,2.5,17.2,4,20.8-1.5c0,0-1.2,2.4,0,4.3s2.4,6.2-2.2,8.2C368.6,210.3,357.8,196,357.8,196z"/>
	<path class="st14" d="M505.2,395.8l-93.6,24.7c-6.4,1.5-73-21-73-21c-1.5-6.4,58.3-24.5,64.8-26l94.4-9.7c6.5-1.5,12.9,2.5,14.4,9
		c0,0,0,0,0,0l2,8.6C515.7,387.9,511.7,394.3,505.2,395.8z"/>
	<path class="st24" d="M319.4,177.5c1.4,2.7-1.3-8-6.7-9.6l-0.9-0.2c-2.7-0.7-4.6,1.6-2,2.4C314,171.1,317.4,173.8,319.4,177.5z"/>
	<path class="st17" d="M329.5,141.2c-3.9,3.8-8.9,7.9-6,14.2L329.5,141.2z"/>
	<path class="st17" d="M332.5,156.5c3.5-4,7.2-8.9,15.7-7.5L332.5,156.5z"/>
	<path class="st17" d="M329.8,155.3c3.5-4,7.2-8.9,15.7-7.5L329.8,155.3z"/>
	<path class="st25" d="M349.4,358.9c0,0,74.2-13.2,85.7-24l8,12l-13.5,16.6l-54.8,43.7L349.4,358.9z"/>
	<path class="st25" d="M419.4,360.1c23.5-35.8,128.4-49,137.1,57.5c0,0-8.6,8.3-12.4,13.9c0,0-29.6-106.9-100.6-56.3L419.4,360.1z"
		/>
	<path class="st17" d="M406,146.1c-2.6-3.2-5.4-7.3-12.1-6.5L406,146.1z"/>
	<path class="st9" d="M338.3,604.5l377.8-19.3c1.3-0.1,2.5-0.7,3.4-1.7l47.4-55.5c1.7-2,1.5-5-0.5-6.8c-0.5-0.4-1-0.7-1.5-0.9l0,0
		c-2.1-0.7-3.5-2.9-3.2-5.1l2.1-16.8c0.3-2-0.8-4-2.6-4.9l-129.5-64.8c-1-0.5-2.1-0.6-3.2-0.4l-184.7,40.4c-0.4,0.1-0.8,0.2-1.2,0.5
		l-23.1,12.3c-47.5,22.7-58.5,41.5-60.7,50.9c-0.6,2.6-3.2,4.2-5.7,3.6c-0.3-0.1-0.7-0.2-1-0.3l-18.4-8.8c-1.1-0.5-2.3-0.6-3.4-0.3
		l-52.8,15.2c-14.2,4.1-16.1,23.4-3,30.2l61.5,32C336.6,604.3,337.4,604.5,338.3,604.5z"/>
	<path class="st17" d="M401.1,150.3c-0.8-4.1-1.2-9-7.6-11.5L401.1,150.3z"/>
	<ellipse class="st21" cx="366" cy="250" rx="19.9" ry="12.7"/>
	<path class="st26" d="M362,376.4c23.4-33,122.5-51.2,147.9,52.4c0.3,1.4-0.3,2.9-1.6,3.6c-2.8,1.7-5.2,4-7,6.8
		c-1,1.5-3.1,1.9-4.6,0.9c-0.5-0.4-0.9-0.9-1.2-1.4c-9-21-41.9-82.9-105.4-43.5c-1.1,0.7-13,9.9-14.1,9.2l-13-23.2
		c-1.6-0.9-2.1-3-1.1-4.5C361.9,376.5,362,376.4,362,376.4z"/>
	<path class="st16" d="M364.5,255.2L364.5,255.2c-7.3-0.6-12.7-6.4-12-12.8l0.1-0.7c0.7-6.4,7.2-11.2,14.5-10.6l0,0
		c7.3,0.6,12.7,6.4,12,12.8l-0.1,0.7C378.3,251,371.8,255.8,364.5,255.2z"/>
	<path class="st26" d="M335.5,139.6c4.1-8.6,25.7-32.7,58.1-17.6c9.2,4.2,17,11.1,22.2,19.7c0,0,2.6,5.6-6,1.8s-27.1-5.7-42,4
		c0,0-4.2,2.8-10.2,0S335.5,139.6,335.5,139.6z"/>
	<polygon class="st21" points="412.9,249.5 423.1,301.2 441.5,312.2 450.1,275.9 	"/>
	<path class="st27" d="M384.5,315.5l-20.2-20.8l3.8-1.1l9.9,10.6c2.5,2.6,4.8,5.2,6.6,7.3h0.1c-0.9-2.8-1.7-5.7-2.3-8.6l-2.9-12.6
		l3.8-1.1l10,10.6c2.3,2.5,4.6,5,6.4,7.2h0.1c-0.9-2.7-1.5-5.4-2.3-8.5l-2.9-12.6l3.7-1.1l5.2,25.1l-3.8,1.1l-10.3-10.9
		c-2.2-2.2-4.2-4.5-6.1-6.9h-0.1c0.9,2.6,1.6,5.3,2.1,8.1l2.8,13L384.5,315.5z"/>
	<path class="st28" d="M534.7,523.5l10.7,5.4c0.9,0.4,1.9,0.6,2.9,0.3l157.4-42.6c2.1-0.5,3.4-2.7,2.9-4.9c-0.4-1.5-1.6-2.7-3.2-3
		l-23.6-4.4c-0.6-0.1-1.2-0.1-1.8,0.1l-144.4,41.6c-2.1,0.6-3.4,2.8-2.8,4.9C533,522.1,533.7,523,534.7,523.5z"/>
	<path class="st28" d="M432.8,487c-19,2.4-26.7,5.5-28,9.5s-1.1,10.3-1.1,10.3s43.2,26.9,51.9,27.8s52.9-3.8,55-9.2
		C512.5,520.1,432.8,487,432.8,487z"/>
	<path class="st23" d="M412.2,454l174.3,83.9c6,2.9,8.5,10,5.6,16l0,0c-2.9,6-10,8.5-16,5.6l-174.3-83.9c-6-2.9-8.5-10-5.6-16l0,0
		C399,453.6,406.2,451.1,412.2,454z"/>
	<line class="st29" x1="732.5" y1="562.5" x2="763.8" y2="526.6"/>
	<line class="st29" x1="695.5" y1="581" x2="715.4" y2="580"/>
	
		<ellipse transform="matrix(0.9127 -0.4086 0.4086 0.9127 -171.9324 169.1641)" class="st30" cx="309.9" cy="486.9" rx="22.8" ry="32.9"/>
	<circle class="st22" cx="692.1" cy="592.9" r="13.3"/>
	<circle class="st22" cx="736.1" cy="576.9" r="13.3"/>
	<path class="st13" d="M295,433.9"/>
	<line class="st29" x1="400.1" y1="582.8" x2="516.9" y2="572.8"/>
	<line class="st29" x1="599.2" y1="586.2" x2="665.5" y2="583.3"/>
	<line class="st29" x1="431.2" y1="595" x2="512.3" y2="591.5"/>
	<polygon class="st13" points="301.1,534.5 396.9,581.6 397.9,601.8 325.8,605.5 255.4,564 263.6,546 	"/>
	
		<ellipse transform="matrix(0.4118 -0.9113 0.9113 0.4118 -215.613 857.8785)" class="st11" cx="556.8" cy="596" rx="39.2" ry="46.8"/>
	
		<ellipse transform="matrix(0.8206 -0.5716 0.5716 0.8206 -244.2909 420.0138)" class="st30" cx="546.8" cy="599.1" rx="19.9" ry="25.1"/>
	
		<ellipse transform="matrix(0.7071 -0.7071 0.7071 0.7071 -148.2287 727.3269)" class="st30" cx="803.8" cy="542.6" rx="17.2" ry="20"/>
	
		<ellipse transform="matrix(0.9311 -0.3649 0.3649 0.9311 -157.3796 116.6671)" class="st30" cx="230" cy="474.8" rx="9" ry="14.3"/>
	<path class="st15" d="M500,234.6c0,0,1.6-12,0-16.5c-1.7-4.9,2.7-3.9,4.1-0.9s3.1,8.6,3.1,8.6s11-16.7,15.7-18s-8,15.3-8,15.3
		s-1.9,2.6,2.1,1.2s7.1-6.9,8.2-8.2c5.2-6,5.5-1.5,1.7,3.1c-2.3,2.8-3.6,4.9-5.4,7.3c-0.2,0.2-0.2,0.6,0.1,0.8
		c0.2,0.1,0.4,0.2,0.6,0.1c4.5-1.9,9.9-7.4,9.9-7.4s4.4,0.6-1.2,5.6s-6.2,6.5-6.2,6.5s-0.2,0.6,3.2-0.5s7-6.2,6-2s-21.1,19.7-26,20
		S500,234.6,500,234.6z"/>
	<polygon class="st15" points="357.8,400.5 337.5,393.6 360.1,386.2 	"/>
	
		<ellipse transform="matrix(0.9925 -0.1222 0.1222 0.9925 -17.6477 43.1021)" class="st17" cx="342.5" cy="165.4" rx="3.1" ry="8.6"/>
	<ellipse class="st31" cx="373.8" cy="179.5" rx="2.1" ry="1.5"/>
	<g>
		<defs>
			<ellipse id="SVGID_1_" cx="368.7" cy="208.5" rx="9.3" ry="8.5"/>
		</defs>
		<clipPath id="SVGID_2_">
			<use xlink:href="#SVGID_1_"  style="overflow:visible;"/>
		</clipPath>
		<g class="st32">
			<path class="st33" d="M358.2,195.1c1.2,2.5,17.2,4,20.8-1.5c0,0-1.2,2.4,0,4.3s2.4,6.2-2.2,8.2
				C369,209.4,358.2,195.1,358.2,195.1z"/>
		</g>
	</g>
	<path class="st16" d="M510.4,226.6c0,0,2,10.4,4.6,11.4s10.7,1.5,8.5-3.6S510.4,226.6,510.4,226.6z"/>
	<path class="st34" d="M510.8,243.9c0,0,1.9-11.7-0.2-14s-5.2-3.9-6.1,0.9S510.8,243.9,510.8,243.9z"/>
	<path class="st35" d="M347.7,392.8"/>
	<line class="st29" x1="592.5" y1="565" x2="702.4" y2="554.3"/>
	
		<ellipse transform="matrix(0.2785 -0.9604 0.9604 0.2785 -144.9452 651.8087)" class="st36" cx="361.4" cy="422.4" rx="1.7" ry="8.8"/>
	<path class="st35" d="M292.1,325"/>
	<path class="st37" d="M368.7,391.6L368.7,391.6c1.7,0.4,2.8,2.2,2.4,3.9L365,421c-0.4,1.7-2.2,2.8-3.9,2.4l0,0
		c-1.7-0.4-2.8-2.2-2.4-3.9l6.1-25.5C365.2,392.3,367,391.2,368.7,391.6z"/>
	<path class="st15" d="M360.1,386.2c6.7-2.8,10.4-6.6,12.9-5.8s8.2,6.2,8.5,8.5s1,7.4-1.3,9.6s-4,0-4,0l0,0c0,0,0.3,2.2-1.3,2.7
		c-0.8,0.2-1.6,0-2.2-0.5c-0.3-0.2-0.6-0.1-0.8,0.1c-0.1,0.1-0.1,0.2-0.1,0.2c-0.1,0.5-0.4,1-0.8,1.3c-1.3,1-3.8-0.7-3.8-1.2v-0.5
		c0,0,0.7,2.4-2.1,3.4c-2.3,0.8-7.2,0.5-9.4-5.5L360.1,386.2z"/>
	<path class="st16" d="M376.3,397.3l-6.9,1.5c-0.5,0.1-0.9,0.3-1.3,0.5c-1.6,0.9-5.8,3.2-6.8,1.9c-0.1-0.1,8.1-8.6,9.4-9.9
		c0.1-0.1,0.2-0.2,0.3-0.3l2.5-3.1c0.5-0.7,1.3-1.2,2.1-1.5c1-0.3,2,0.1,2.6,0.9c0.7,1.4,1.2,2.9,1.6,4.4c0.6,2.5-0.9,5-3.3,5.6
		C376.5,397.3,376.4,397.3,376.3,397.3z"/>
	<polygon class="st38" points="495.5,438.6 498,445.2 510.4,431.4 	"/>
	<polygon class="st38" points="541.8,425.5 544.4,432.1 556.8,417.2 	"/>
	<polygon class="st23" points="480.1,462 494.2,480 637.1,448.3 631.6,428.7 	"/>
	<path class="st23" d="M506.8,498.1l183.3-43.2c1.3-0.3,2.7-0.1,3.8,0.6l0,0c2.5,1.4,3.4,4.7,2,7.2c-0.7,1.3-1.9,2.2-3.4,2.5
		l-182.4,43.7c-1.4,0.3-2.8,0.1-4-0.6l-0.9-0.5c-2.5-1.5-3.3-4.7-1.8-7.2C504.2,499.3,505.4,498.4,506.8,498.1z"/>
	<line class="st29" x1="704.4" y1="554.3" x2="755.8" y2="497.3"/>
	<line class="st29" x1="383.8" y1="440.7" x2="475.2" y2="415.9"/>
	<path class="st29" d="M535.3,431.4"/>
	<path class="st29" d="M525.6,436.4"/>
	<path class="st39" d="M512.9,432.4c0,0-4.3,3-4.8,5.9s20-1.9,20-1.9l8.1-6L512.9,432.4z"/>
	<path class="st39" d="M559.7,417.4c0,0-4.8,2.5-5.3,5.4s20-1.9,20-1.9l8.7-5.5L559.7,417.4z"/>
	<path class="st40" d="M798.7,541.6c-1.2-10.2,6.2-12.7,11.5-8.6s6.3,8.6,6.7,13.5c0,0-2.3-11.2-12-11.7
		C801,534.5,798.7,541.6,798.7,541.6z"/>
	<path class="st41" d="M789.5,546.2l8.1,7.6c1.3,1.2,3.2,1.1,4.4-0.2c0.3-0.3,0.5-0.6,0.6-1c3.5-8.9,11.5-28.7,16.7-33.2
		c11-9.5,13.9-6.6,13.9-6.6l-13-8.1c0,0-4.3-2.7-16.7,5.2C786,521,789.5,546.2,789.5,546.2z"/>
	<path class="st40" d="M292.1,481.9c-2.3-19.5,11.8-24.2,22-16.5s12,21.8,12.5,31.1c0,0-4.3-26.7-22.7-27.7
		C296.7,468.4,292.1,481.9,292.1,481.9z"/>
	<path class="st40" d="M529.5,599.3c-2.3-19.5,11.8-24.2,22-16.5s12.1,16.5,12.7,25.7c0,0-4.5-21.4-22.9-22.3
		C534.1,585.9,529.5,599.3,529.5,599.3z"/>
	<path class="st41" d="M535.9,606.8l8.6,8.1c0.8,0.8,2.1,0.8,2.9-0.1c0.2-0.2,0.3-0.4,0.4-0.7c3-8,11.8-29.8,17.3-34.6
		c7-6.1,16.5-8.3,22.5-9.1c1.1-0.2,1.9-1.2,1.8-2.3c-0.1-0.6-0.4-1.1-0.9-1.4l-8.2-5.9c-0.2-0.1-0.4-0.3-0.7-0.3
		c-2.5-0.7-17-3.7-30.3,9.5c-12.9,12.8-13.9,31-14,35.3C535.3,605.8,535.5,606.4,535.9,606.8z"/>
	<path class="st9" d="M678,579.4l12.9,8.2c3.2,2,4.1,6.2,2.1,9.4l0,0c-2,3.2-6.2,4.1-9.4,2.1l-12.9-8.2c-3.2-2-4.1-6.2-2.1-9.4l0,0
		C670.7,578.3,674.9,577.3,678,579.4z"/>
	<path class="st9" d="M723.1,563.3l12.9,8.2c3.2,2,4.1,6.2,2.1,9.4l0,0c-2,3.2-6.2,4.1-9.4,2.1l-12.9-8.2c-3.2-2-4.1-6.2-2.1-9.4
		l0,0C715.8,562.3,720,561.3,723.1,563.3z"/>
	<polygon class="st28" points="731.1,554.7 761.6,515.2 763.8,498.4 714.6,554.7 	"/>
	<path class="st42" d="M354.7,223.7l25.7-3.2c-0.5,5.2-5.1,5.9-8.8,6C364.6,226.7,354.7,223.7,354.7,223.7z"/>
	<polygon class="st43" points="286,319.4 310.8,329.2 285.6,326.1 	"/>
	<path class="st43" d="M448.7,280.9v24.6c-1.9,0.4-3.9,0.4-5.8,0L448.7,280.9z"/>
	<line class="st44" x1="410.2" y1="460" x2="584.5" y2="543.9"/>
	<line class="st44" x1="634.1" y1="420" x2="817.1" y2="482.8"/>
	<line class="st45" x1="554.3" y1="509" x2="694.2" y2="473.9"/>
	<line class="st46" x1="326.6" y1="600.8" x2="394.3" y2="584.2"/>
	<circle class="st47" cx="687" cy="594.4" r="1.6"/>
	<circle class="st47" cx="543.8" cy="606" r="1.6"/>
	<circle class="st48" cx="413.8" cy="439.1" r="1.6"/>
	<circle class="st48" cx="423.8" cy="436.4" r="1.6"/>
	<circle class="st48" cx="432.8" cy="433.6" r="1.6"/>
	<circle class="st47" cx="733.5" cy="578.4" r="1.6"/>
	<circle class="st47" cx="797.1" cy="542.6" r="1.6"/>
	<path class="st13" d="M441.7,589.6c0,0,8.3-4,12,0c5.6,6.2,6.3,20.7,2.3,22.7c-10.4,5.1-14.1,1.4-16.4-9.8S441.7,589.6,441.7,589.6
		z"/>
	<path class="st9" d="M440.2,608.9l-11.8-9.1c-2.9-2.2-4.4-7.3-3.4-11.4l0,0c1-4,4.2-5.5,7.1-3.3l11.8,9.1c2.9,2.2,4.4,7.3,3.4,11.4
		l0,0C446.3,609.6,443.1,611.1,440.2,608.9z"/>
	<line class="st49" x1="271.1" y1="361.5" x2="303" y2="390.1"/>
	<path d="M548.4,462.8l-7.9-7.2l1.5-0.4l5,4.8c0.5,0.5,1,1,1.5,1.5c-0.2-0.9-0.4-1.4-0.4-1.6l-1.1-5.8l1.8-0.4l4.1,3.6
		c0.9,0.8,1.8,1.7,2.6,2.6c-0.2-0.5-0.3-1.1-0.5-1.9l-1.4-5.5l1.5-0.4l1.8,8.6l-1.5,0.3l-6.2-5.5l-0.9-0.9c0.1,0.4,0.2,0.7,0.2,1
		l1.3,6.6L548.4,462.8z"/>
	<path d="M565.7,458c-0.3,0.4-0.7,0.7-1.1,1c-0.4,0.3-0.9,0.4-1.4,0.5c-0.8,0.2-1.6,0.2-2.4,0c-0.6-0.1-1.1-0.5-1.5-1
		c-0.2-0.2-0.2-0.5-0.2-0.8c0-0.3,0.2-0.5,0.4-0.7c0.2-0.2,0.5-0.4,0.8-0.5c0.4-0.2,0.8-0.3,1.2-0.4c0.8-0.2,1.6-0.5,2.3-0.9
		l-0.2-0.2c-0.2-0.4-0.5-0.6-0.9-0.8c-0.6-0.1-1.2-0.1-1.8,0c-0.5,0.1-0.9,0.3-1.3,0.6c-0.2,0.3-0.3,0.7-0.2,1l-1.5,0.2
		c-0.1-0.4-0.1-0.8,0-1.1c0.2-0.4,0.5-0.7,0.9-0.9c0.6-0.3,1.1-0.5,1.8-0.6c0.6-0.1,1.2-0.2,1.8-0.2c0.4,0,0.8,0.1,1.2,0.2
		c0.3,0.1,0.6,0.3,0.8,0.6c0.2,0.3,0.4,0.6,0.6,0.9l0.8,1.3c0.3,0.6,0.7,1.2,1.2,1.7c0.2,0.2,0.5,0.4,0.8,0.6l-1.5,0.3
		C566.1,458.4,565.9,458.2,565.7,458z M564.2,455.9c-0.7,0.4-1.3,0.7-2.1,0.9c-0.4,0.1-0.8,0.3-1.1,0.5c-0.2,0.1-0.3,0.3-0.4,0.4
		c0,0.2,0,0.4,0.1,0.5c0.2,0.3,0.5,0.5,0.8,0.5c0.5,0.1,0.9,0.1,1.4,0c0.5-0.1,0.9-0.3,1.3-0.6c0.3-0.2,0.5-0.5,0.5-0.9
		c0-0.4-0.2-0.7-0.4-1L564.2,455.9z"/>
	<path d="M569.5,458l-4.9-7.9l1.4-0.3l4.9,7.9L569.5,458z"/>
	<path d="M573.1,457.1l-4.9-7.9l1.4-0.3l2.8,4.5l1.9-3.1l1.8-0.4l-1.8,2.9l5.7,2.8l-1.7,0.4l-4.6-2.3l-0.6,0.9l1.4,2.3L573.1,457.1z
		"/>
	<path d="M585.6,452.2l1.5-0.2c0.1,0.6,0,1.2-0.4,1.6c-0.6,0.5-1.3,0.9-2.1,1c-1.1,0.3-2.3,0.2-3.4-0.1c-1-0.3-1.9-1-2.4-1.9
		c-0.6-0.7-0.7-1.7-0.3-2.5c0.5-0.8,1.4-1.3,2.3-1.4c1.1-0.3,2.2-0.2,3.2,0.2c1,0.4,1.9,1.1,2.4,2l0.2,0.3l-6.2,1.4
		c0.4,0.6,1,1,1.7,1.3c0.6,0.2,1.3,0.3,2,0.1c0.4-0.1,0.8-0.3,1.1-0.6C585.6,453,585.7,452.6,585.6,452.2z M580,451.7l4.6-1
		c-0.3-0.4-0.7-0.8-1.2-1c-0.7-0.3-1.4-0.3-2.1-0.2c-0.5,0.1-1,0.4-1.3,0.8C579.8,450.7,579.7,451.2,580,451.7L580,451.7z"/>
	<path d="M590,453.3l-3.6-5.7l1.3-0.3l0.5,0.9c0-0.4,0.2-0.7,0.4-1c0.2-0.2,0.5-0.3,0.8-0.4c0.5-0.1,1.1-0.1,1.6,0l0.1,1
		c-0.4-0.1-0.8-0.1-1.2,0c-0.3,0-0.5,0.2-0.7,0.4c-0.2,0.2-0.2,0.4-0.2,0.6c0.1,0.4,0.2,0.8,0.5,1.2l1.9,3L590,453.3z"/>
	<path class="st28" d="M428.5,487"/>
	<path class="st50" d="M512.3,438.7c-0.1-3.2,2.3-5.8,5.5-6.1"/>
	<path class="st50" d="M517.2,438.5c-0.4-4.1,3.2-6.6,5.7-6.9"/>
	<path class="st50" d="M522.3,437.2c-0.2-4,2.2-6.1,4.9-6.1"/>
	<path class="st50" d="M559.3,422c0.3-3.2,3-5.5,6.2-5.4"/>
	<path class="st50" d="M564.1,422.5c0.1-4.2,4-6.2,6.5-6.1"/>
	<path class="st50" d="M569.4,421.7c0.3-4,2.9-5.8,5.5-5.5"/>
	<circle class="st47" cx="442.1" cy="601.6" r="1.6"/>
	<line class="st29" x1="400.7" y1="596.9" x2="423.4" y2="595.9"/>
	<g>
		<defs>
			<path id="SVGID_3_" d="M362.8,160.8c-4.4,0.5-5.6,7.7-5.6,11s0.4,8,3.5,11.5s10.5,6.8,14.8,4.8s7.9-8.2,1.2-11.9s-8-6.9-9.7-10.8
				C364.6,160,362.8,160.8,362.8,160.8z"/>
		</defs>
		<clipPath id="SVGID_4_">
			<use xlink:href="#SVGID_3_"  style="overflow:visible;"/>
		</clipPath>
		<g class="st51">
			<path class="st52" d="M354.6,172c-5.9,0.4-7.6,7.1-7.6,10.1s0.5,7.4,4.6,10.6s14.2,6.2,19.9,4.4s10.6-7.6,1.6-11s-10.8-6.3-13-10
				C357,171.3,354.6,172,354.6,172z"/>
		</g>
	</g>
	<path class="st17" d="M392.1,151.7c-4-3.4-8.4-7.8-16.6-5.1L392.1,151.7z"/>
	<path class="st17" d="M394.5,150.1c-4-3.4-8.4-7.8-16.6-5.1L394.5,150.1z"/>
	<polygon class="st28" points="696.5,573.2 613.5,578.5 596.6,569.1 704.4,559.5 	"/>
</g>
</svg>
